Lora Devanagari-Bold.ufo
<glyph name="percent" format="1">
  <advance width="904"/>
  <unicode hex="0025"/>
  <outline>
    <contour>
      <point x="128" y="44" type="line"/>
      <point x="193" y="-17" type="line"/>
      <point x="771" y="650" type="line"/>
      <point x="698" y="716" type="line"/>
    </contour>
    <contour>
      <point x="109" y="713"/>
      <point x="41" y="611"/>
      <point x="41" y="517" type="curve" smooth="yes"/>
      <point x="41" y="418"/>
      <point x="107" y="325"/>
      <point x="230" y="325" type="curve" smooth="yes"/>
      <point x="335" y="325"/>
      <point x="417" y="420"/>
      <point x="417" y="526" type="curve" smooth="yes"/>
      <point x="417" y="618"/>
      <point x="351" y="718"/>
      <point x="228" y="716" type="curve" smooth="yes"/>
    </contour>
    <contour>
      <point x="280" y="639"/>
      <point x="295" y="563"/>
      <point x="295" y="511" type="curve" smooth="yes"/>
      <point x="295" y="464"/>
      <point x="280" y="405"/>
      <point x="231" y="405" type="curve" smooth="yes"/>
      <point x="176" y="405"/>
      <point x="164" y="482"/>
      <point x="164" y="532" type="curve" smooth="yes"/>
      <point x="164" y="570"/>
      <point x="178" y="639"/>
      <point x="229" y="639" type="curve" smooth="yes"/>
    </contour>
    <contour>
      <point x="556" y="372"/>
      <point x="488" y="270"/>
      <point x="488" y="176" type="curve" smooth="yes"/>
      <point x="488" y="77"/>
      <point x="554" y="-16"/>
      <point x="677" y="-16" type="curve" smooth="yes"/>
      <point x="782" y="-16"/>
      <point x="864" y="80"/>
      <point x="864" y="185" type="curve" smooth="yes"/>
      <point x="864" y="277"/>
      <point x="797" y="377"/>
      <point x="675" y="375" type="curve" smooth="yes"/>
    </contour>
    <contour>
      <point x="727" y="298"/>
      <point x="742" y="222"/>
      <point x="742" y="170" type="curve" smooth="yes"/>
      <point x="742" y="124"/>
      <point x="727" y="64"/>
      <point x="678" y="64" type="curve" smooth="yes"/>
      <point x="623" y="64"/>
      <point x="610" y="141"/>
      <point x="610" y="191" type="curve" smooth="yes"/>
      <point x="610" y="229"/>
      <point x="625" y="298"/>
      <point x="676" y="298" type="curve" smooth="yes"/>
    </contour>
  </outline>
</glyph>
<glyph name="parenright" format="1">
  <advance width="296"/>
  <unicode hex="0029"/>
  <outline>
    <contour>
      <point x="10" y="725" type="line"/>
      <point x="113" y="588"/>
      <point x="137" y="340"/>
      <point x="137" y="250" type="curve" smooth="yes"/>
      <point x="137" y="160"/>
      <point x="113" y="-99"/>
      <point x="10" y="-236" type="curve"/>
      <point x="47" y="-271" type="line"/>
      <point x="146" y="-180"/>
      <point x="272" y="28"/>
      <point x="272" y="250" type="curve" smooth="yes"/>
      <point x="272" y="472"/>
      <point x="146" y="669"/>
      <point x="46" y="760" type="curve"/>
    </contour>
  </outline>
</glyph>
<glyph name="asterisk" format="1">
  <advance width="533"/>
  <unicode hex="002A"/>
  <outline>
    <contour>
      <point x="224" y="716"/>
      <point x="215" y="679"/>
      <point x="215" y="645" type="curve" smooth="yes"/>
      <point x="215" y="617"/>
      <point x="223" y="577"/>
      <point x="243" y="518" type="curve"/>
      <point x="192" y="554"/>
      <point x="157" y="574"/>
      <point x="130" y="583" type="curve" smooth="yes"/>
      <point x="97" y="594"/>
      <point x="60" y="597"/>
      <point x="46" y="556" type="curve" smooth="yes"/>
      <point x="33" y="515"/>
      <point x="65" y="495"/>
      <point x="98" y="484" type="curve" smooth="yes"/>
      <point x="125" y="476"/>
      <point x="165" y="471"/>
      <point x="228" y="471" type="curve"/>
      <point x="177" y="436"/>
      <point x="147" y="408"/>
      <point x="130" y="385" type="curve" smooth="yes"/>
      <point x="110" y="357"/>
      <point x="96" y="322"/>
      <point x="130" y="296" type="curve" smooth="yes"/>
      <point x="165" y="271"/>
      <point x="194" y="296"/>
      <point x="214" y="324" type="curve" smooth="yes"/>
      <point x="231" y="346"/>
      <point x="248" y="384"/>
      <point x="267" y="443" type="curve"/>
      <point x="285" y="384"/>
      <point x="302" y="347"/>
      <point x="319" y="323" type="curve" smooth="yes"/>
      <point x="339" y="296"/>
      <point x="368" y="271"/>
      <point x="403" y="296" type="curve" smooth="yes"/>
      <point x="438" y="322"/>
      <point x="423" y="356"/>
      <point x="403" y="385" type="curve" smooth="yes"/>
      <point x="387" y="407"/>
      <point x="356" y="435"/>
      <point x="306" y="471" type="curve"/>
      <point x="368" y="471"/>
      <point x="408" y="476"/>
      <point x="436" y="484" type="curve" smooth="yes"/>
      <point x="468" y="494"/>
      <point x="500" y="515"/>
      <point x="487" y="556" type="curve" smooth="yes"/>
      <point x="474" y="596"/>
      <point x="436" y="594"/>
      <point x="402" y="583" type="curve" smooth="yes"/>
      <point x="376" y="574"/>
      <point x="341" y="554"/>
      <point x="291" y="518" type="curve"/>
      <point x="311" y="577"/>
      <point x="319" y="617"/>
      <point x="319" y="645" type="curve" smooth="yes"/>
      <point x="319" y="679"/>
      <point x="310" y="716"/>
      <point x="267" y="716" type="curve" smooth="yes"/>
    </contour>
  </outline>
</glyph>
<glyph name="at" format="1">
  <advance width="793"/>
  <unicode hex="0040"/>
  <outline>
    <contour>
      <point x="178" y="637"/>
      <point x="47" y="426"/>
      <point x="47" y="256" type="curve" smooth="yes"/>
      <point x="47" y="65"/>
      <point x="171" y="-104"/>
      <point x="415" y="-99" type="curve" smooth="yes"/>
      <point x="519" y="-97"/>
      <point x="618" y="-55"/>
      <point x="691" y="28" type="curve"/>
      <point x="669" y="55" type="line"/>
      <point x="605" y="-16"/>
      <point x="508" y="-50"/>
      <point x="427" y="-50" type="curve" smooth="yes"/>
      <point x="263" y="-50"/>
      <point x="126" y="60"/>
      <point x="126" y="262" type="curve" smooth="yes"/>
      <point x="126" y="434"/>
      <point x="242" y="594"/>
      <point x="413" y="594" type="curve" smooth="yes"/>
      <point x="560" y="594"/>
      <point x="673" y="494"/>
      <point x="673" y="312" type="curve" smooth="yes"/>
      <point x="673" y="243"/>
      <point x="650" y="119"/>
      <point x="571" y="119" type="curve" smooth="yes"/>
      <point x="543" y="119"/>
      <point x="534" y="149"/>
      <point x="534" y="178" type="curve" smooth="yes"/>
      <point x="534" y="229"/>
      <point x="554" y="374"/>
      <point x="566" y="464" type="curve"/>
      <point x="522" y="478"/>
      <point x="476" y="485"/>
      <point x="447" y="485" type="curve" smooth="yes"/>
      <point x="297" y="485"/>
      <point x="217" y="351"/>
      <point x="217" y="221" type="curve" smooth="yes"/>
      <point x="217" y="119"/>
      <point x="268" y="76"/>
      <point x="323" y="76" type="curve" smooth="yes"/>
      <point x="366" y="76"/>
      <point x="416" y="110"/>
      <point x="452" y="200" type="curve"/>
      <point x="443" y="98"/>
      <point x="496" y="74"/>
      <point x="543" y="71" type="curve" smooth="yes"/>
      <point x="627" y="66"/>
      <point x="742" y="139"/>
      <point x="746" y="303" type="curve" smooth="yes"/>
      <point x="750" y="468"/>
      <point x="638" y="637"/>
      <point x="418" y="637" type="curve" smooth="yes"/>
    </contour>
    <contour>
      <point x="437" y="436"/>
      <point x="453" y="435"/>
      <point x="462" y="432" type="curve"/>
      <point x="457" y="318"/>
      <point x="401" y="145"/>
      <point x="350" y="145" type="curve" smooth="yes"/>
      <point x="330" y="145"/>
      <point x="316" y="171"/>
      <point x="316" y="218" type="curve" smooth="yes"/>
      <point x="316" y="311"/>
      <point x="356" y="429"/>
      <point x="425" y="435" type="curve" smooth="yes"/>
    </contour>
  </outline>
</glyph>
<glyph name="E" format="1">
  <advance width="624"/>
  <unicode hex="0045"/>
  <outline>
    <contour>
      <point x="50" y="700" type="line"/>
      <point x="50" y="623" type="line"/>
      <point x="64" y="624"/>
      <point x="104" y="625"/>
      <point x="125" y="626" type="curve"/>
      <point x="123" y="609"/>
      <point x="121" y="572"/>
      <point x="121" y="536" type="curve" smooth="yes"/>
      <point x="121" y="153" type="line" smooth="yes"/>
      <point x="121" y="72"/>
      <point x="95" y="68"/>
      <point x="50" y="66" type="curve"/>
      <point x="50" y="0" type="line"/>
      <point x="578" y="0" type="line"/>
      <point x="583" y="220" type="line"/>
      <point x="518" y="220" type="line"/>
      <point x="518" y="112"/>
      <point x="455" y="76"/>
      <point x="396" y="76" type="curve" smooth="yes"/>
      <point x="262" y="76" type="line"/>
      <point x="264" y="93"/>
      <point x="266" y="128"/>
      <point x="266" y="164" type="curve" smooth="yes"/>
      <point x="266" y="328" type="line"/>
      <point x="292" y="329" type="line" smooth="yes"/>
      <point x="346" y="330"/>
      <point x="390" y="325"/>
      <point x="390" y="241" type="curve"/>
      <point x="456" y="241" type="line"/>
      <point x="456" y="484" type="line"/>
      <point x="379" y="484" type="line"/>
      <point x="380" y="459"/>
      <point x="381" y="425"/>
      <point x="383" y="397" type="curve"/>
      <point x="266" y="397" type="line"/>
      <point x="266" y="547" type="line" smooth="yes"/>
      <point x="266" y="625"/>
      <point x="291" y="633"/>
      <point x="333" y="634" type="curve" smooth="yes"/>
      <point x="369" y="635" type="line" smooth="yes"/>
      <point x="423" y="637"/>
      <point x="490" y="615"/>
      <point x="490" y="506" type="curve"/>
      <point x="556" y="506" type="line"/>
      <point x="550" y="700" type="line"/>
    </contour>
    <contour>
      <point x="562" y="5" type="move" name="ogonek"/>
    </contour>
    <contour>
      <point x="383" y="0" type="move" name="bottom"/>
    </contour>
    <contour>
      <point x="324" y="700" type="move" name="top"/>
    </contour>
  </outline>
</glyph>
<glyph name="O" format="1">
  <advance width="769"/>
  <unicode hex="004F"/>
  <outline>
    <contour>
      <point x="149" y="716"/>
      <point x="35" y="518"/>
      <point x="35" y="350" type="curve" smooth="yes"/>
      <point x="35" y="176"/>
      <point x="130" y="-16"/>
      <point x="383" y="-16" type="curve" smooth="yes"/>
      <point x="620" y="-16"/>
      <point x="734" y="185"/>
      <point x="734" y="350" type="curve" smooth="yes"/>
      <point x="734" y="517"/>
      <point x="629" y="716"/>
      <point x="386" y="716" type="curve" smooth="yes"/>
    </contour>
    <contour>
      <point x="512" y="646"/>
      <point x="576" y="516"/>
      <point x="576" y="333" type="curve" smooth="yes"/>
      <point x="576" y="210"/>
      <point x="532" y="58"/>
      <point x="394" y="57" type="curve" smooth="yes"/>
      <point x="242" y="56"/>
      <point x="192" y="237"/>
      <point x="192" y="362" type="curve" smooth="yes"/>
      <point x="192" y="485"/>
      <point x="236" y="640"/>
      <point x="373" y="643" type="curve" smooth="yes"/>
    </contour>
    <contour>
      <point x="384" y="700" type="move" name="top"/>
    </contour>
  </outline>
</glyph>
<glyph name="Q" format="1">
  <advance width="770"/>
  <unicode hex="0051"/>
  <outline>
    <contour>
      <point x="150" y="716"/>
      <point x="36" y="518"/>
      <point x="36" y="350" type="curve" smooth="yes"/>
      <point x="36" y="178"/>
      <point x="128" y="-16"/>
      <point x="374" y="-16" type="curve" smooth="yes"/>
      <point x="457" y="-16"/>
      <point x="494" y="-89"/>
      <point x="579" y="-164" type="curve" smooth="yes"/>
      <point x="635" y="-213"/>
      <point x="659" y="-218"/>
      <point x="751" y="-218" type="curve" smooth="yes"/>
      <point x="794" y="-218" type="line"/>
      <point x="794" y="-151" type="line"/>
      <point x="750" y="-151"/>
      <point x="746" y="-137"/>
      <point x="653" y="-51" type="curve" smooth="yes"/>
      <point x="601" y="-2"/>
      <point x="566" y="5"/>
      <point x="509" y="5" type="curve"/>
      <point x="509" y="6" type="line"/>
      <point x="659" y="63"/>
      <point x="734" y="217"/>
      <point x="734" y="350" type="curve" smooth="yes"/>
      <point x="734" y="517"/>
      <point x="630" y="716"/>
      <point x="387" y="716" type="curve" smooth="yes"/>
    </contour>
    <contour>
      <point x="513" y="646"/>
      <point x="577" y="516"/>
      <point x="577" y="333" type="curve" smooth="yes"/>
      <point x="577" y="210"/>
      <point x="532" y="58"/>
      <point x="394" y="57" type="curve" smooth="yes"/>
      <point x="243" y="56"/>
      <point x="193" y="237"/>
      <point x="193" y="362" type="curve" smooth="yes"/>
      <point x="193" y="485"/>
      <point x="236" y="640"/>
      <point x="374" y="643" type="curve" smooth="yes"/>
    </contour>
  </outline>
</glyph>
<glyph name="a" format="1">
  <advance width="506"/>
  <unicode hex="0061"/>
  <outline>
    <contour>
      <point x="141" y="469"/>
      <point x="51" y="421"/>
      <point x="51" y="349" type="curve" smooth="yes"/>
      <point x="51" y="316"/>
      <point x="72" y="288"/>
      <point x="111" y="287" type="curve" smooth="yes"/>
      <point x="156" y="286"/>
      <point x="175" y="319"/>
      <point x="175" y="344" type="curve" smooth="yes"/>
      <point x="175" y="353"/>
      <point x="173" y="367"/>
      <point x="164" y="378" type="curve"/>
      <point x="180" y="394"/>
      <point x="204" y="403"/>
      <point x="229" y="404" type="curve" smooth="yes"/>
      <point x="282" y="405"/>
      <point x="298" y="368"/>
      <point x="298" y="321" type="curve" smooth="yes"/>
      <point x="298" y="274" type="line"/>
      <point x="169" y="268"/>
      <point x="30" y="222"/>
      <point x="30" y="106" type="curve" smooth="yes"/>
      <point x="30" y="37"/>
      <point x="78" y="-15"/>
      <point x="161" y="-15" type="curve" smooth="yes"/>
      <point x="211" y="-15"/>
      <point x="260" y="0"/>
      <point x="303" y="42" type="curve"/>
      <point x="304" y="42" type="line"/>
      <point x="305" y="26"/>
      <point x="305" y="17"/>
      <point x="308" y="0" type="curve"/>
      <point x="490" y="0" type="line"/>
      <point x="490" y="69" type="line"/>
      <point x="476" y="69"/>
      <point x="448" y="68"/>
      <point x="427" y="66" type="curve"/>
      <point x="430" y="94"/>
      <point x="431" y="129"/>
      <point x="431" y="146" type="curve" smooth="yes"/>
      <point x="431" y="208"/>
      <point x="432" y="234"/>
      <point x="432" y="295" type="curve" smooth="yes"/>
      <point x="432" y="416"/>
      <point x="367" y="469"/>
      <point x="254" y="469" type="curve" smooth="yes"/>
    </contour>
    <contour>
      <point x="297" y="107" type="line"/>
      <point x="277" y="87"/>
      <point x="250" y="75"/>
      <point x="221" y="75" type="curve" smooth="yes"/>
      <point x="193" y="75"/>
      <point x="167" y="88"/>
      <point x="166" y="122" type="curve" smooth="yes"/>
      <point x="165" y="174"/>
      <point x="225" y="203"/>
      <point x="297" y="209" type="curve"/>
    </contour>
    <contour>
      <point x="455" y="5" type="move" name="ogonek"/>
    </contour>
    <contour>
      <point x="243" y="455" type="move" name="top"/>
    </contour>
  </outline>
</glyph>
<glyph name="c" format="1">
  <advance width="501"/>
  <unicode hex="0063"/>
  <outline>
    <contour>
      <point x="134" y="469"/>
      <point x="31" y="355"/>
      <point x="31" y="217" type="curve" smooth="yes"/>
      <point x="31" y="70"/>
      <point x="138" y="-15"/>
      <point x="268" y="-15" type="curve" smooth="yes"/>
      <point x="339" y="-15"/>
      <point x="418" y="5"/>
      <point x="488" y="95" type="curve"/>
      <point x="444" y="136" type="line"/>
      <point x="408" y="93"/>
      <point x="353" y="65"/>
      <point x="299" y="66" type="curve" smooth="yes"/>
      <point x="205" y="70"/>
      <point x="172" y="153"/>
      <point x="172" y="244" type="curve" smooth="yes"/>
      <point x="172" y="346"/>
      <point x="216" y="402"/>
      <point x="278" y="405" type="curve" smooth="yes"/>
      <point x="295" y="406"/>
      <point x="334" y="402"/>
      <point x="348" y="375" type="curve" smooth="yes"/>
      <point x="341" y="363"/>
      <point x="337" y="346"/>
      <point x="337" y="335" type="curve" smooth="yes"/>
      <point x="337" y="310"/>
      <point x="353" y="275"/>
      <point x="402" y="276" type="curve" smooth="yes"/>
      <point x="444" y="277"/>
      <point x="467" y="309"/>
      <point x="467" y="345" type="curve" smooth="yes"/>
      <point x="467" y="408"/>
      <point x="404" y="469"/>
      <point x="282" y="469" type="curve" smooth="yes"/>
    </contour>
    <contour>
      <point x="290" y="455" type="move" name="top"/>
    </contour>
    <contour>
      <point x="303" y="0" type="move" name="bottom"/>
    </contour>
  </outline>
</glyph>
<glyph name="d" format="1">
  <advance width="576"/>
  <unicode hex="0064"/>
  <outline>
    <contour>
      <point x="440" y="686" type="line"/>
      <point x="427" y="675"/>
      <point x="381" y="659"/>
      <point x="292" y="659" type="curve"/>
      <point x="292" y="590" type="line"/>
      <point x="305" y="590"/>
      <point x="339" y="591"/>
      <point x="360" y="593" type="curve"/>
      <point x="357" y="565"/>
      <point x="356" y="530"/>
      <point x="356" y="513" type="curve" smooth="yes"/>
      <point x="356" y="453" type="line"/>
      <point x="332" y="461"/>
      <point x="305" y="469"/>
      <point x="271" y="469" type="curve" smooth="yes"/>
      <point x="127" y="469"/>
      <point x="32" y="362"/>
      <point x="32" y="215" type="curve" smooth="yes"/>
      <point x="32" y="75"/>
      <point x="111" y="-15"/>
      <point x="226" y="-15" type="curve" smooth="yes"/>
      <point x="275" y="-15"/>
      <point x="320" y="0"/>
      <point x="362" y="42" type="curve"/>
      <point x="363" y="42" type="line"/>
      <point x="368" y="0" type="line"/>
      <point x="551" y="0" type="line"/>
      <point x="551" y="69" type="line"/>
      <point x="537" y="69"/>
      <point x="509" y="68"/>
      <point x="488" y="66" type="curve"/>
      <point x="491" y="94"/>
      <point x="492" y="129"/>
      <point x="492" y="146" type="curve" smooth="yes"/>
      <point x="492" y="686" type="line"/>
    </contour>
    <contour>
      <point x="315" y="402"/>
      <point x="343" y="394"/>
      <point x="356" y="385" type="curve"/>
      <point x="356" y="112" type="line"/>
      <point x="339" y="86"/>
      <point x="309" y="68"/>
      <point x="276" y="68" type="curve" smooth="yes"/>
      <point x="202" y="68"/>
      <point x="173" y="152"/>
      <point x="173" y="229" type="curve" smooth="yes"/>
      <point x="173" y="315"/>
      <point x="199" y="400"/>
      <point x="288" y="402" type="curve" smooth="yes"/>
    </contour>
    <contour>
      <point x="288" y="227" type="move" name="center"/>
    </contour>
    <contour>
      <point x="565" y="455" type="move" name="topright"/>
    </contour>
  </outline>
</glyph>
<glyph name="g" format="1">
  <advance width="537"/>
  <unicode hex="0067"/>
  <outline>
    <contour>
      <point x="438" y="551"/>
      <point x="398" y="496"/>
      <point x="377" y="441" type="curve"/>
      <point x="345" y="462"/>
      <point x="295" y="469"/>
      <point x="262" y="469" type="curve" smooth="yes"/>
      <point x="152" y="469"/>
      <point x="43" y="392"/>
      <point x="48" y="283" type="curve" smooth="yes"/>
      <point x="49" y="221"/>
      <point x="88" y="175"/>
      <point x="142" y="155" type="curve"/>
      <point x="142" y="155" type="line"/>
      <point x="72" y="135"/>
      <point x="48" y="88"/>
      <point x="48" y="57" type="curve" smooth="yes"/>
      <point x="48" y="23"/>
      <point x="67" y="-9"/>
      <point x="120" y="-23" type="curve"/>
      <point x="50" y="-47"/>
      <point x="28" y="-90"/>
      <point x="28" y="-127" type="curve" smooth="yes"/>
      <point x="28" y="-189"/>
      <point x="81" y="-246"/>
      <point x="248" y="-246" type="curve" smooth="yes"/>
      <point x="376" y="-246"/>
      <point x="520" y="-190"/>
      <point x="520" y="-86" type="curve" smooth="yes"/>
      <point x="520" y="19"/>
      <point x="421" y="50"/>
      <point x="274" y="58" type="curve" smooth="yes"/>
      <point x="183" y="63"/>
      <point x="151" y="69"/>
      <point x="151" y="92" type="curve" smooth="yes"/>
      <point x="151" y="109"/>
      <point x="173" y="119"/>
      <point x="201" y="119" type="curve" smooth="yes"/>
      <point x="220" y="119"/>
      <point x="241" y="116"/>
      <point x="258" y="116" type="curve" smooth="yes"/>
      <point x="371" y="116"/>
      <point x="477" y="191"/>
      <point x="477" y="296" type="curve" smooth="yes"/>
      <point x="477" y="342"/>
      <point x="457" y="384"/>
      <point x="420" y="414" type="curve"/>
      <point x="423" y="434"/>
      <point x="442" y="468"/>
      <point x="460" y="473" type="curve"/>
      <point x="463" y="453"/>
      <point x="487" y="437"/>
      <point x="506" y="437" type="curve" smooth="yes"/>
      <point x="552" y="436"/>
      <point x="566" y="471"/>
      <point x="566" y="493" type="curve" smooth="yes"/>
      <point x="566" y="528"/>
      <point x="542" y="551"/>
      <point x="499" y="551" type="curve" smooth="yes"/>
    </contour>
    <contour>
      <point x="205" y="-48"/>
      <point x="247" y="-49"/>
      <point x="276" y="-51" type="curve" smooth="yes"/>
      <point x="369" y="-55"/>
      <point x="414" y="-74"/>
      <point x="414" y="-111" type="curve" smooth="yes"/>
      <point x="414" y="-145"/>
      <point x="366" y="-184"/>
      <point x="276" y="-184" type="curve" smooth="yes"/>
      <point x="195" y="-184"/>
      <point x="144" y="-152"/>
      <point x="147" y="-103" type="curve" smooth="yes"/>
      <point x="148" y="-82"/>
      <point x="158" y="-58"/>
      <point x="178" y="-44" type="curve"/>
    </contour>
    <contour>
      <point x="316" y="408"/>
      <point x="342" y="344"/>
      <point x="342" y="280" type="curve" smooth="yes"/>
      <point x="342" y="230"/>
      <point x="314" y="177"/>
      <point x="262" y="177" type="curve" smooth="yes"/>
      <point x="209" y="177"/>
      <point x="180" y="236"/>
      <point x="180" y="301" type="curve" smooth="yes"/>
      <point x="180" y="356"/>
      <point x="210" y="408"/>
      <point x="261" y="408" type="curve" smooth="yes"/>
    </contour>
    <contour>
      <point x="255" y="455" type="move" name="top"/>
    </contour>
  </outline>
</glyph>
<glyph name="j" format="1">
  <advance width="282"/>
  <unicode hex="006A"/>
  <outline>
    <contour>
      <point x="168" y="464" type="line"/>
      <point x="155" y="452"/>
      <point x="109" y="436"/>
      <point x="20" y="436" type="curve"/>
      <point x="20" y="367" type="line"/>
      <point x="33" y="368"/>
      <point x="67" y="369"/>
      <point x="87" y="370" type="curve"/>
      <point x="84" y="343"/>
      <point x="83" y="313"/>
      <point x="83" y="291" type="curve" smooth="yes"/>
      <point x="86" y="-115" type="line" smooth="yes"/>
      <point x="86" y="-141"/>
      <point x="81" y="-183"/>
      <point x="46" y="-183" type="curve" smooth="yes"/>
      <point x="41" y="-183"/>
      <point x="32" y="-181"/>
      <point x="29" y="-179" type="curve"/>
      <point x="38" y="-139"/>
      <point x="13" y="-109"/>
      <point x="-27" y="-110" type="curve" smooth="yes"/>
      <point x="-66" y="-111"/>
      <point x="-88" y="-140"/>
      <point x="-88" y="-172" type="curve" smooth="yes"/>
      <point x="-88" y="-209"/>
      <point x="-55" y="-246"/>
      <point x="17" y="-246" type="curve" smooth="yes"/>
      <point x="132" y="-246"/>
      <point x="220" y="-166"/>
      <point x="220" y="2" type="curve" smooth="yes"/>
      <point x="220" y="464" type="line"/>
    </contour>
    <contour>
      <point x="117" y="694"/>
      <point x="82" y="660"/>
      <point x="82" y="618" type="curve" smooth="yes"/>
      <point x="82" y="577"/>
      <point x="113" y="545"/>
      <point x="157" y="545" type="curve" smooth="yes"/>
      <point x="201" y="545"/>
      <point x="229" y="577"/>
      <point x="229" y="618" type="curve" smooth="yes"/>
      <point x="229" y="660"/>
      <point x="198" y="694"/>
      <point x="156" y="694" type="curve" smooth="yes"/>
    </contour>
  </outline>
</glyph>
<glyph name="m" format="1">
  <advance width="888"/>
  <unicode hex="006D"/>
  <outline>
    <contour>
      <point x="601" y="469"/>
      <point x="541" y="445"/>
      <point x="495" y="409" type="curve"/>
      <point x="472" y="449"/>
      <point x="434" y="469"/>
      <point x="376" y="469" type="curve" smooth="yes"/>
      <point x="326" y="469"/>
      <point x="273" y="446"/>
      <point x="235" y="418" type="curve"/>
      <point x="233" y="418" type="line"/>
      <point x="232" y="430"/>
      <point x="231" y="451"/>
      <point x="229" y="464" type="curve"/>
      <point x="182" y="464" type="line"/>
      <point x="169" y="452"/>
      <point x="122" y="436"/>
      <point x="34" y="436" type="curve"/>
      <point x="34" y="367" type="line"/>
      <point x="47" y="368"/>
      <point x="81" y="369"/>
      <point x="101" y="370" type="curve"/>
      <point x="98" y="343"/>
      <point x="97" y="315"/>
      <point x="97" y="293" type="curve" smooth="yes"/>
      <point x="97" y="140" type="line" smooth="yes"/>
      <point x="97" y="92"/>
      <point x="94" y="59"/>
      <point x="41" y="59" type="curve"/>
      <point x="41" y="0" type="line"/>
      <point x="288" y="0" type="line"/>
      <point x="288" y="69" type="line"/>
      <point x="275" y="69"/>
      <point x="250" y="68"/>
      <point x="230" y="66" type="curve"/>
      <point x="233" y="94"/>
      <point x="234" y="129"/>
      <point x="234" y="146" type="curve" smooth="yes"/>
      <point x="234" y="352" type="line"/>
      <point x="255" y="370"/>
      <point x="284" y="385"/>
      <point x="316" y="385" type="curve" smooth="yes"/>
      <point x="359" y="385"/>
      <point x="385" y="361"/>
      <point x="385" y="282" type="curve" smooth="yes"/>
      <point x="386" y="140" type="line" smooth="yes"/>
      <point x="386" y="92"/>
      <point x="382" y="59"/>
      <point x="333" y="59" type="curve"/>
      <point x="333" y="0" type="line"/>
      <point x="582" y="0" type="line"/>
      <point x="582" y="69" type="line"/>
      <point x="567" y="69"/>
      <point x="539" y="68"/>
      <point x="519" y="66" type="curve"/>
      <point x="522" y="94"/>
      <point x="523" y="129"/>
      <point x="523" y="146" type="curve" smooth="yes"/>
      <point x="523" y="268" type="line" smooth="yes"/>
      <point x="523" y="301"/>
      <point x="520" y="330"/>
      <point x="514" y="355" type="curve"/>
      <point x="537" y="372"/>
      <point x="566" y="385"/>
      <point x="600" y="385" type="curve" smooth="yes"/>
      <point x="643" y="383"/>
      <point x="672" y="358"/>
      <point x="673" y="279" type="curve" smooth="yes"/>
      <point x="673" y="140" type="line" smooth="yes"/>
      <point x="673" y="92"/>
      <point x="669" y="59"/>
      <point x="625" y="59" type="curve"/>
      <point x="625" y="0" type="line"/>
      <point x="869" y="0" type="line"/>
      <point x="869" y="69" type="line"/>
      <point x="855" y="69"/>
      <point x="826" y="68"/>
      <point x="806" y="66" type="curve"/>
      <point x="809" y="94"/>
      <point x="810" y="129"/>
      <point x="810" y="146" type="curve" smooth="yes"/>
      <point x="810" y="280" type="line" smooth="yes"/>
      <point x="810" y="419"/>
      <point x="756" y="469"/>
      <point x="652" y="469" type="curve" smooth="yes"/>
    </contour>
  </outline>
</glyph>
<glyph name="o" format="1">
  <advance width="548"/>
  <unicode hex="006F"/>
  <outline>
    <contour>
      <point x="142" y="469"/>
      <point x="31" y="368"/>
      <point x="31" y="217" type="curve" smooth="yes"/>
      <point x="31" y="75"/>
      <point x="137" y="-15"/>
      <point x="277" y="-15" type="curve" smooth="yes"/>
      <point x="417" y="-15"/>
      <point x="517" y="83"/>
      <point x="517" y="235" type="curve" smooth="yes"/>
      <point x="517" y="381"/>
      <point x="412" y="469"/>
      <point x="274" y="469" type="curve" smooth="yes"/>
    </contour>
    <contour>
      <point x="350" y="407"/>
      <point x="374" y="303"/>
      <point x="374" y="213" type="curve" smooth="yes"/>
      <point x="374" y="135"/>
      <point x="357" y="51"/>
      <point x="281" y="50" type="curve" smooth="yes"/>
      <point x="202" y="48"/>
      <point x="173" y="149"/>
      <point x="173" y="242" type="curve" smooth="yes"/>
      <point x="173" y="321"/>
      <point x="197" y="404"/>
      <point x="272" y="405" type="curve" smooth="yes"/>
    </contour>
    <contour>
      <point x="274" y="455" type="move" name="top"/>
    </contour>
  </outline>
</glyph>
<glyph name="p" format="1">
  <advance width="581"/>
  <unicode hex="0070"/>
  <outline>
    <contour>
      <point x="315" y="469"/>
      <point x="270" y="456"/>
      <point x="226" y="420" type="curve"/>
      <point x="225" y="420" type="line"/>
      <point x="224" y="431"/>
      <point x="222" y="451"/>
      <point x="220" y="464" type="curve"/>
      <point x="173" y="464" type="line"/>
      <point x="159" y="452"/>
      <point x="114" y="436"/>
      <point x="24" y="436" type="curve"/>
      <point x="24" y="367" type="line"/>
      <point x="39" y="368"/>
      <point x="71" y="369"/>
      <point x="93" y="370" type="curve"/>
      <point x="90" y="343"/>
      <point x="89" y="315"/>
      <point x="89" y="293" type="curve" smooth="yes"/>
      <point x="89" y="-92" type="line" smooth="yes"/>
      <point x="89" y="-140"/>
      <point x="85" y="-173"/>
      <point x="31" y="-173" type="curve"/>
      <point x="31" y="-232" type="line"/>
      <point x="283" y="-232" type="line"/>
      <point x="283" y="-163" type="line"/>
      <point x="270" y="-163"/>
      <point x="242" y="-164"/>
      <point x="222" y="-165" type="curve"/>
      <point x="224" y="-138"/>
      <point x="225" y="-103"/>
      <point x="225" y="-85" type="curve" smooth="yes"/>
      <point x="225" y="2" type="line"/>
      <point x="249" y="-6"/>
      <point x="276" y="-15"/>
      <point x="310" y="-15" type="curve" smooth="yes"/>
      <point x="454" y="-15"/>
      <point x="549" y="93"/>
      <point x="549" y="239" type="curve" smooth="yes"/>
      <point x="549" y="379"/>
      <point x="470" y="469"/>
      <point x="355" y="469" type="curve" smooth="yes"/>
    </contour>
    <contour>
      <point x="377" y="389"/>
      <point x="407" y="308"/>
      <point x="407" y="225" type="curve" smooth="yes"/>
      <point x="407" y="135"/>
      <point x="383" y="55"/>
      <point x="295" y="54" type="curve" smooth="yes"/>
      <point x="267" y="53"/>
      <point x="238" y="61"/>
      <point x="225" y="70" type="curve"/>
      <point x="225" y="347" type="line"/>
      <point x="242" y="371"/>
      <point x="271" y="386"/>
      <point x="303" y="387" type="curve" smooth="yes"/>
    </contour>
  </outline>
</glyph>
<glyph name="s" format="1">
  <advance width="469"/>
  <unicode hex="0073"/>
  <outline>
    <contour>
      <point x="93" y="469"/>
      <point x="39" y="393"/>
      <point x="39" y="323" type="curve" smooth="yes"/>
      <point x="39" y="225"/>
      <point x="131" y="197"/>
      <point x="211" y="168" type="curve" smooth="yes"/>
      <point x="283" y="142"/>
      <point x="322" y="131"/>
      <point x="323" y="96" type="curve" smooth="yes"/>
      <point x="323" y="65"/>
      <point x="288" y="51"/>
      <point x="256" y="51" type="curve" smooth="yes"/>
      <point x="174" y="51"/>
      <point x="113" y="95"/>
      <point x="107" y="150" type="curve"/>
      <point x="44" y="150" type="line"/>
      <point x="48" y="-6" type="line"/>
      <point x="121" y="-6" type="line"/>
      <point x="118" y="21" type="line"/>
      <point x="119" y="21" type="line"/>
      <point x="149" y="0"/>
      <point x="206" y="-15"/>
      <point x="262" y="-15" type="curve" smooth="yes"/>
      <point x="351" y="-15"/>
      <point x="437" y="31"/>
      <point x="437" y="125" type="curve" smooth="yes"/>
      <point x="437" y="211"/>
      <point x="365" y="253"/>
      <point x="268" y="285" type="curve" smooth="yes"/>
      <point x="201" y="305"/>
      <point x="150" y="315"/>
      <point x="150" y="357" type="curve" smooth="yes"/>
      <point x="150" y="392"/>
      <point x="181" y="405"/>
      <point x="214" y="405" type="curve" smooth="yes"/>
      <point x="283" y="405"/>
      <point x="334" y="366"/>
      <point x="346" y="304" type="curve"/>
      <point x="408" y="304" type="line"/>
      <point x="408" y="465" type="line"/>
      <point x="335" y="465" type="line"/>
      <point x="336" y="438" type="line"/>
      <point x="335" y="438" type="line"/>
      <point x="304" y="459"/>
      <point x="254" y="469"/>
      <point x="220" y="469" type="curve" smooth="yes"/>
    </contour>
    <contour>
      <point x="227" y="455" type="move" name="top"/>
    </contour>
    <contour>
      <point x="242" y="0" type="move" name="bottom"/>
    </contour>
  </outline>
</glyph>
<glyph name="t" format="1">
  <advance width="398"/>
  <unicode hex="0074"/>
  <outline>
    <contour>
      <point x="149" y="568" type="line"/>
      <point x="134" y="522"/>
      <point x="83" y="455"/>
      <point x="17" y="455" type="curve"/>
      <point x="17" y="379" type="line"/>
      <point x="31" y="379"/>
      <point x="60" y="379"/>
      <point x="83" y="379" type="curve"/>
      <point x="81" y="160" type="line" smooth="yes"/>
      <point x="81" y="8"/>
      <point x="167" y="-15"/>
      <point x="231" y="-15" type="curve" smooth="yes"/>
      <point x="264" y="-15"/>
      <point x="341" y="-13"/>
      <point x="410" y="84" type="curve"/>
      <point x="364" y="125" type="line"/>
      <point x="327" y="76"/>
      <point x="293" y="70"/>
      <point x="276" y="70" type="curve" smooth="yes"/>
      <point x="227" y="70"/>
      <point x="218" y="116"/>
      <point x="218" y="158" type="curve" smooth="yes"/>
      <point x="218" y="163"/>
      <point x="218" y="210"/>
      <point x="219" y="382" type="curve"/>
      <point x="341" y="385" type="line"/>
      <point x="341" y="455" type="line"/>
      <point x="219" y="455" type="line"/>
      <point x="220" y="568" type="line"/>
    </contour>
    <contour>
      <point x="200" y="227" type="move" name="center"/>
    </contour>
    <contour>
      <point x="238" y="0" type="move" name="bottom"/>
    </contour>
  </outline>
</glyph>
<glyph name="v" format="1">
  <advance width="518"/>
  <unicode hex="0076"/>
  <outline>
    <contour>
      <point x="332" y="455" type="line"/>
      <point x="332" y="385" type="line"/>
      <point x="392" y="389" type="line"/>
      <point x="392" y="388" type="line"/>
      <point x="380" y="370"/>
      <point x="372" y="355"/>
      <point x="360" y="325" type="curve" smooth="yes"/>
      <point x="290" y="137" type="line"/>
      <point x="289" y="137" type="line"/>
      <point x="208" y="325" type="line" smooth="yes"/>
      <point x="194" y="362"/>
      <point x="191" y="395"/>
      <point x="231" y="396" type="curve"/>
      <point x="231" y="455" type="line"/>
      <point x="6" y="455" type="line"/>
      <point x="6" y="385" type="line"/>
      <point x="41" y="387" type="line"/>
      <point x="46" y="365"/>
      <point x="45" y="357"/>
      <point x="66" y="313" type="curve" smooth="yes"/>
      <point x="219" y="-3" type="line"/>
      <point x="302" y="-3" type="line"/>
      <point x="426" y="287" type="line" smooth="yes"/>
      <point x="441" y="324"/>
      <point x="470" y="389"/>
      <point x="515" y="396" type="curve"/>
      <point x="515" y="455" type="line"/>
    </contour>
  </outline>
</glyph>
<glyph name="braceleft" format="1">
  <advance width="368"/>
  <unicode hex="007B"/>
  <outline>
    <contour>
      <point x="333" y="760" type="line" smooth="yes"/>
      <point x="181" y="760"/>
      <point x="106" y="695"/>
      <point x="106" y="554" type="curve" smooth="yes"/>
      <point x="106" y="495"/>
      <point x="116" y="438"/>
      <point x="116" y="386" type="curve" smooth="yes"/>
      <point x="116" y="318"/>
      <point x="94" y="299"/>
      <point x="20" y="299" type="curve" smooth="yes"/>
      <point x="-3" y="299" type="line"/>
      <point x="-3" y="228" type="line"/>
      <point x="20" y="228" type="line" smooth="yes"/>
      <point x="94" y="228"/>
      <point x="116" y="204"/>
      <point x="116" y="136" type="curve" smooth="yes"/>
      <point x="116" y="84"/>
      <point x="106" y="2"/>
      <point x="106" y="-57" type="curve" smooth="yes"/>
      <point x="106" y="-198"/>
      <point x="181" y="-271"/>
      <point x="333" y="-271" type="curve" smooth="yes"/>
      <point x="361" y="-271" type="line"/>
      <point x="361" y="-200" type="line"/>
      <point x="277" y="-203"/>
      <point x="241" y="-185"/>
      <point x="241" y="-71" type="curve" smooth="yes"/>
      <point x="241" y="-39"/>
      <point x="248" y="23"/>
      <point x="252" y="73" type="curve" smooth="yes"/>
      <point x="260" y="180"/>
      <point x="186" y="251"/>
      <point x="84" y="262" type="curve"/>
      <point x="84" y="264" type="line"/>
      <point x="188" y="274"/>
      <point x="261" y="344"/>
      <point x="251" y="453" type="curve" smooth="yes"/>
      <point x="247" y="494"/>
      <point x="241" y="538"/>
      <point x="241" y="568" type="curve" smooth="yes"/>
      <point x="241" y="682"/>
      <point x="277" y="693"/>
      <point x="361" y="689" type="curve"/>
      <point x="361" y="760" type="line"/>
    </contour>
  </outline>
</glyph>
<glyph name="bar" format="1">
  <advance width="259"/>
  <unicode hex="007C"/>
  <outline>
    <contour>
      <point x="61" y="760" type="line"/>
      <point x="63" y="-271" type="line"/>
      <point x="195" y="-271" type="line"/>
      <point x="199" y="760" type="line"/>
    </contour>
  </outline>
</glyph>
<glyph name="brokenbar" format="1">
  <advance width="248"/>
  <unicode hex="00A6"/>
  <outline>
    <contour>
      <point x="67" y="760" type="line"/>
      <point x="70" y="375" type="line"/>
      <point x="176" y="375" type="line"/>
      <point x="180" y="760" type="line"/>
    </contour>
    <contour>
      <point x="67" y="113" type="line"/>
      <point x="70" y="-271" type="line"/>
      <point x="176" y="-271" type="line"/>
      <point x="180" y="113" type="line"/>
    </contour>
  </outline>
</glyph>
<glyph name="registered" format="1">
  <advance width="915"/>
  <unicode hex="00AE"/>
  <outline>
    <contour>
      <point x="223" y="755"/>
      <point x="46" y="568"/>
      <point x="46" y="340" type="curve" smooth="yes"/>
      <point x="46" y="103"/>
      <point x="214" y="-71"/>
      <point x="459" y="-71" type="curve" smooth="yes"/>
      <point x="688" y="-71"/>
      <point x="869" y="112"/>
      <point x="869" y="339" type="curve" smooth="yes"/>
      <point x="869" y="567"/>
      <point x="702" y="755"/>
      <point x="461" y="755" type="curve" smooth="yes"/>
    </contour>
    <contour>
      <point x="666" y="697"/>
      <point x="799" y="533"/>
      <point x="799" y="340" type="curve" smooth="yes"/>
      <point x="799" y="147"/>
      <point x="669" y="-14"/>
      <point x="462" y="-14" type="curve" smooth="yes"/>
      <point x="250" y="-14"/>
      <point x="117" y="147"/>
      <point x="117" y="340" type="curve" smooth="yes"/>
      <point x="117" y="533"/>
      <point x="255" y="697"/>
      <point x="459" y="697" type="curve" smooth="yes"/>
    </contour>
    <contour>
      <point x="261" y="585" type="line"/>
      <point x="261" y="533" type="line"/>
      <point x="271" y="533"/>
      <point x="297" y="534"/>
      <point x="312" y="535" type="curve"/>
      <point x="310" y="524"/>
      <point x="309" y="500"/>
      <point x="309" y="474" type="curve" smooth="yes"/>
      <point x="309" y="221" type="line" smooth="yes"/>
      <point x="309" y="166"/>
      <point x="292" y="164"/>
      <point x="261" y="162" type="curve"/>
      <point x="261" y="118" type="line"/>
      <point x="462" y="118" type="line"/>
      <point x="462" y="170" type="line"/>
      <point x="453" y="169"/>
      <point x="420" y="169"/>
      <point x="406" y="168" type="curve"/>
      <point x="406" y="179"/>
      <point x="407" y="205"/>
      <point x="407" y="229" type="curve" smooth="yes"/>
      <point x="407" y="297" type="line"/>
      <point x="421" y="297"/>
      <point x="431" y="297"/>
      <point x="445" y="297" type="curve"/>
      <point x="452" y="287"/>
      <point x="452" y="281"/>
      <point x="512" y="181" type="curve" smooth="yes"/>
      <point x="529" y="152"/>
      <point x="547" y="130"/>
      <point x="563" y="118" type="curve"/>
      <point x="668" y="118" type="line"/>
      <point x="668" y="162" type="line"/>
      <point x="637" y="164"/>
      <point x="625" y="180"/>
      <point x="596" y="225" type="curve" smooth="yes"/>
      <point x="569" y="268" type="line" smooth="yes"/>
      <point x="557" y="287"/>
      <point x="546" y="304"/>
      <point x="529" y="311" type="curve"/>
      <point x="529" y="311" type="line"/>
      <point x="607" y="333"/>
      <point x="639" y="384"/>
      <point x="641" y="441" type="curve" smooth="yes"/>
      <point x="644" y="548"/>
      <point x="567" y="586"/>
      <point x="450" y="586" type="curve" smooth="yes"/>
    </contour>
    <contour>
      <point x="476" y="530"/>
      <point x="536" y="524"/>
      <point x="536" y="447" type="curve" smooth="yes"/>
      <point x="536" y="388"/>
      <point x="500" y="354"/>
      <point x="435" y="354" type="curve" smooth="yes"/>
      <point x="424" y="354"/>
      <point x="418" y="354"/>
      <point x="407" y="357" type="curve"/>
      <point x="407" y="476" type="line" smooth="yes"/>
      <point x="407" y="520"/>
      <point x="420" y="530"/>
      <point x="448" y="530" type="curve" smooth="yes"/>
    </contour>
  </outline>
</glyph>
<glyph name="ordmasculine" format="1">
  <advance width="515"/>
  <unicode hex="00BA"/>
  <outline>
    <contour>
      <point x="63" y="352"/>
      <point x="151" y="293"/>
      <point x="262" y="293" type="curve" smooth="yes"/>
      <point x="368" y="293"/>
      <point x="453" y="392"/>
      <point x="453" y="503" type="curve" smooth="yes"/>
      <point x="453" y="633"/>
      <point x="365" y="693"/>
      <point x="259" y="693" type="curve" smooth="yes"/>
      <point x="142" y="693"/>
      <point x="63" y="591"/>
      <point x="63" y="483" type="curve" smooth="yes"/>
    </contour>
    <contour>
      <point x="208" y="368"/>
      <point x="178" y="451"/>
      <point x="178" y="524" type="curve" smooth="yes"/>
      <point x="178" y="558"/>
      <point x="187" y="598"/>
      <point x="199" y="611" type="curve" smooth="yes"/>
      <point x="203" y="616"/>
      <point x="212" y="619"/>
      <point x="228" y="619" type="curve" smooth="yes"/>
      <point x="292" y="619"/>
      <point x="338" y="557"/>
      <point x="338" y="462" type="curve" smooth="yes"/>
      <point x="338" y="439"/>
      <point x="333" y="392"/>
      <point x="318" y="377" type="curve" smooth="yes"/>
      <point x="312" y="371"/>
      <point x="299" y="368"/>
      <point x="287" y="368" type="curve" smooth="yes"/>
    </contour>
    <contour>
      <point x="164" y="149"/>
      <point x="295" y="153"/>
      <point x="441" y="161" type="curve"/>
      <point x="457" y="239" type="line"/>
      <point x="78" y="239" type="line"/>
      <point x="62" y="149" type="line"/>
    </contour>
  </outline>
</glyph>
<glyph name="icircumflex" format="1">
  <advance width="327"/>
  <unicode hex="00EE"/>
  <outline>
    <contour>
      <point x="188" y="510" type="line"/>
      <point x="174" y="497"/>
      <point x="126" y="480"/>
      <point x="34" y="480" type="curve"/>
      <point x="34" y="404" type="line"/>
      <point x="48" y="405"/>
      <point x="83" y="406"/>
      <point x="104" y="407" type="curve"/>
      <point x="101" y="377"/>
      <point x="100" y="344"/>
      <point x="100" y="320" type="curve" smooth="yes"/>
      <point x="100" y="154" type="line" smooth="yes"/>
      <point x="100" y="101"/>
      <point x="96" y="65"/>
      <point x="41" y="65" type="curve"/>
      <point x="41" y="0" type="line"/>
      <point x="303" y="0" type="line"/>
      <point x="303" y="76" type="line"/>
      <point x="289" y="76"/>
      <point x="259" y="75"/>
      <point x="238" y="73" type="curve"/>
      <point x="241" y="103"/>
      <point x="242" y="142"/>
      <point x="242" y="161" type="curve" smooth="yes"/>
      <point x="242" y="510" type="line"/>
    </contour>
    <contour>
      <point x="165" y="783" type="line"/>
      <point x="9" y="617" type="line"/>
      <point x="51" y="569" type="line"/>
      <point x="164" y="667" type="line"/>
      <point x="165" y="667" type="line"/>
      <point x="278" y="562" type="line"/>
      <point x="321" y="613" type="line"/>
      <point x="175" y="783" type="line"/>
    </contour>
  </outline>
</glyph>
<glyph name="idieresis" format="1">
  <advance width="327"/>
  <unicode hex="00EF"/>
  <outline>
    <contour>
      <point x="188" y="510" type="line"/>
      <point x="174" y="497"/>
      <point x="126" y="480"/>
      <point x="34" y="480" type="curve"/>
      <point x="34" y="404" type="line"/>
      <point x="48" y="405"/>
      <point x="83" y="406"/>
      <point x="104" y="407" type="curve"/>
      <point x="101" y="377"/>
      <point x="100" y="344"/>
      <point x="100" y="320" type="curve" smooth="yes"/>
      <point x="100" y="154" type="line" smooth="yes"/>
      <point x="100" y="101"/>
      <point x="96" y="65"/>
      <point x="41" y="65" type="curve"/>
      <point x="41" y="0" type="line"/>
      <point x="303" y="0" type="line"/>
      <point x="303" y="76" type="line"/>
      <point x="289" y="76"/>
      <point x="259" y="75"/>
      <point x="238" y="73" type="curve"/>
      <point x="241" y="103"/>
      <point x="242" y="142"/>
      <point x="242" y="161" type="curve" smooth="yes"/>
      <point x="242" y="510" type="line"/>
    </contour>
    <contour>
      <point x="49" y="751"/>
      <point x="21" y="716"/>
      <point x="21" y="675" type="curve" smooth="yes"/>
      <point x="21" y="633"/>
      <point x="48" y="600"/>
      <point x="84" y="600" type="curve" smooth="yes"/>
      <point x="120" y="600"/>
      <point x="147" y="633"/>
      <point x="147" y="675" type="curve" smooth="yes"/>
      <point x="147" y="716"/>
      <point x="123" y="751"/>
      <point x="84" y="751" type="curve" smooth="yes"/>
    </contour>
    <contour>
      <point x="213" y="751"/>
      <point x="185" y="716"/>
      <point x="185" y="675" type="curve" smooth="yes"/>
      <point x="185" y="633"/>
      <point x="212" y="600"/>
      <point x="248" y="600" type="curve" smooth="yes"/>
      <point x="284" y="600"/>
      <point x="311" y="633"/>
      <point x="311" y="675" type="curve" smooth="yes"/>
      <point x="311" y="716"/>
      <point x="287" y="751"/>
      <point x="249" y="751" type="curve" smooth="yes"/>
    </contour>
  </outline>
</glyph>
<glyph name="florin" format="1">
  <advance width="363"/>
  <unicode hex="0192"/>
  <outline>
    <contour>
      <point x="181" y="760"/>
      <point x="136" y="638"/>
      <point x="116" y="500" type="curve"/>
      <point x="23" y="500" type="line"/>
      <point x="23" y="417" type="line"/>
      <point x="107" y="418" type="line"/>
      <point x="104" y="389"/>
      <point x="103" y="360"/>
      <point x="101" y="332" type="curve" smooth="yes"/>
      <point x="96" y="260"/>
      <point x="92" y="182"/>
      <point x="87" y="110" type="curve" smooth="yes"/>
      <point x="82" y="11"/>
      <point x="75" y="-85"/>
      <point x="63" y="-141" type="curve" smooth="yes"/>
      <point x="53" y="-185"/>
      <point x="40" y="-198"/>
      <point x="25" y="-198" type="curve" smooth="yes"/>
      <point x="19" y="-198"/>
      <point x="13" y="-196"/>
      <point x="7" y="-193" type="curve"/>
      <point x="15" y="-150"/>
      <point x="-11" y="-116"/>
      <point x="-51" y="-116" type="curve" smooth="yes"/>
      <point x="-89" y="-116"/>
      <point x="-113" y="-148"/>
      <point x="-113" y="-183" type="curve" smooth="yes"/>
      <point x="-113" y="-223"/>
      <point x="-83" y="-271"/>
      <point x="1" y="-271" type="curve" smooth="yes"/>
      <point x="169" y="-271"/>
      <point x="200" y="-56"/>
      <point x="213" y="151" type="curve" smooth="yes"/>
      <point x="222" y="280"/>
      <point x="225" y="349"/>
      <point x="227" y="391" type="curve" smooth="yes"/>
      <point x="229" y="420" type="line"/>
      <point x="362" y="423" type="line"/>
      <point x="362" y="500" type="line"/>
      <point x="234" y="500" type="line"/>
      <point x="238" y="551"/>
      <point x="243" y="601"/>
      <point x="248" y="630" type="curve" smooth="yes"/>
      <point x="255" y="674"/>
      <point x="271" y="687"/>
      <point x="285" y="687" type="curve" smooth="yes"/>
      <point x="292" y="687"/>
      <point x="298" y="685"/>
      <point x="303" y="682" type="curve"/>
      <point x="295" y="639"/>
      <point x="322" y="605"/>
      <point x="362" y="605" type="curve" smooth="yes"/>
      <point x="399" y="605"/>
      <point x="423" y="637"/>
      <point x="423" y="672" type="curve" smooth="yes"/>
      <point x="423" y="711"/>
      <point x="393" y="760"/>
      <point x="310" y="760" type="curve" smooth="yes"/>
    </contour>
  </outline>
</glyph>
<glyph name="breve" format="1">
  <advance width="404"/>
  <unicode hex="02D8"/>
  <outline>
    <contour>
      <point x="276" y="727"/>
      <point x="250" y="692"/>
      <point x="204" y="692" type="curve" smooth="yes"/>
      <point x="157" y="692"/>
      <point x="130" y="726"/>
      <point x="109" y="763" type="curve"/>
      <point x="44" y="730" type="line"/>
      <point x="75" y="634"/>
      <point x="144" y="600"/>
      <point x="200" y="600" type="curve" smooth="yes"/>
      <point x="268" y="600"/>
      <point x="325" y="638"/>
      <point x="360" y="735" type="curve"/>
      <point x="295" y="764" type="line"/>
    </contour>
    <contour>
      <point x="202" y="500" type="move" name="_top"/>
    </contour>
  </outline>
</glyph>
<glyph name="ring" format="1">
  <advance width="358"/>
  <unicode hex="02DA"/>
  <outline>
    <contour>
      <point x="116" y="795"/>
      <point x="59" y="743"/>
      <point x="61" y="674" type="curve" smooth="yes"/>
      <point x="64" y="603"/>
      <point x="125" y="563"/>
      <point x="180" y="563" type="curve" smooth="yes"/>
      <point x="238" y="563"/>
      <point x="299" y="610"/>
      <point x="297" y="685" type="curve" smooth="yes"/>
      <point x="295" y="760"/>
      <point x="235" y="795"/>
      <point x="179" y="795" type="curve" smooth="yes"/>
    </contour>
    <contour>
      <point x="200" y="735"/>
      <point x="218" y="717"/>
      <point x="218" y="672" type="curve" smooth="yes"/>
      <point x="218" y="641"/>
      <point x="202" y="625"/>
      <point x="185" y="624" type="curve" smooth="yes"/>
      <point x="161" y="624"/>
      <point x="144" y="645"/>
      <point x="144" y="687" type="curve" smooth="yes"/>
      <point x="144" y="720"/>
      <point x="161" y="734"/>
      <point x="178" y="735" type="curve" smooth="yes"/>
    </contour>
    <contour>
      <point x="179" y="500" type="move" name="_top"/>
    </contour>
  </outline>
</glyph>
<glyph name="pi" format="1">
  <advance width="759"/>
  <unicode hex="03C0"/>
  <outline>
    <contour>
      <point x="693" y="360" type="line"/>
      <point x="719" y="464" type="line"/>
      <point x="62" y="464" type="line"/>
      <point x="34" y="360" type="line"/>
    </contour>
    <contour>
      <point x="306" y="421" type="line"/>
      <point x="156" y="421" type="line"/>
      <point x="105" y="-9" type="line"/>
      <point x="286" y="7" type="line"/>
    </contour>
    <contour>
      <point x="421" y="409" type="line"/>
      <point x="418" y="392"/>
      <point x="401" y="112"/>
      <point x="401" y="89" type="curve" smooth="yes"/>
      <point x="401" y="46"/>
      <point x="415" y="-15"/>
      <point x="494" y="-15" type="curve" smooth="yes"/>
      <point x="549" y="-15"/>
      <point x="603" y="-4"/>
      <point x="676" y="16" type="curve"/>
      <point x="680" y="54" type="line"/>
      <point x="592" y="54"/>
      <point x="569" y="61"/>
      <point x="569" y="104" type="curve" smooth="yes"/>
      <point x="569" y="409" type="line"/>
    </contour>
  </outline>
</glyph>
<glyph name="iideva" format="1">
  <advance width="551"/>
  <unicode hex="0908"/>
  <note>
    dIi
  </note>
  <outline>
    <component base="ideva"/>
    <component base="uni0930094D" xOffset="258"/>
    <contour>
      <point x="375" y="579" type="move" name="top"/>
    </contour>
  </outline>
</glyph>
<glyph name="ddadeva" format="1">
  <advance width="551"/>
  <unicode hex="0921"/>
  <note>
    dDda
  </note>
  <outline>
    <contour>
      <point x="275" y="302"/>
      <point x="232" y="266"/>
      <point x="198" y="266" type="curve" smooth="yes"/>
      <point x="181" y="266"/>
      <point x="167" y="285"/>
      <point x="167" y="309" type="curve" smooth="yes"/>
      <point x="167" y="342"/>
      <point x="189" y="359"/>
      <point x="237" y="361" type="curve" smooth="yes"/>
      <point x="440" y="368" type="line"/>
      <point x="440" y="502" type="line"/>
      <point x="571" y="502" type="line"/>
      <point x="549" y="580" type="line"/>
      <point x="-20" y="580" type="line"/>
      <point x="3" y="502" type="line"/>
      <point x="330" y="502" type="line"/>
      <point x="330" y="439" type="line"/>
      <point x="195" y="439" type="line" smooth="yes"/>
      <point x="131" y="438"/>
      <point x="67" y="403"/>
      <point x="77" y="320" type="curve" smooth="yes"/>
      <point x="86" y="248"/>
      <point x="162" y="179"/>
      <point x="229" y="179" type="curve" smooth="yes"/>
      <point x="278" y="179"/>
      <point x="335" y="205"/>
      <point x="373" y="204" type="curve" smooth="yes"/>
      <point x="394" y="204"/>
      <point x="404" y="187"/>
      <point x="404" y="156" type="curve" smooth="yes"/>
      <point x="404" y="119"/>
      <point x="365" y="77"/>
      <point x="274" y="77" type="curve" smooth="yes"/>
      <point x="212" y="77"/>
      <point x="144" y="95"/>
      <point x="76" y="174" type="curve"/>
      <point x="31" y="146" type="line"/>
      <point x="84" y="53"/>
      <point x="170" y="-31"/>
      <point x="300" y="-31" type="curve" smooth="yes"/>
      <point x="439" y="-31"/>
      <point x="495" y="59"/>
      <point x="475" y="171" type="curve" smooth="yes"/>
      <point x="462" y="245"/>
      <point x="419" y="302"/>
      <point x="348" y="302" type="curve" smooth="yes"/>
    </contour>
    <component base="stem-tiny-deva" xOffset="-35" yOffset="10"/>
    <contour>
      <point x="30" y="-29" type="move" name="nukta"/>
    </contour>
    <contour>
      <point x="301" y="-9" type="move" name="bottom"/>
    </contour>
    <contour>
      <point x="376" y="580" type="move" name="top"/>
    </contour>
  </outline>
</glyph>
<glyph name="tadeva" format="1">
  <advance width="583"/>
  <unicode hex="0924"/>
  <note>
    dTa
  </note>
  <outline>
    <contour>
      <point x="468" y="337" type="line"/>
      <point x="426" y="405" type="line"/>
      <point x="237" y="415" type="line" smooth="yes"/>
      <point x="136" y="420"/>
      <point x="61" y="370"/>
      <point x="61" y="268" type="curve" smooth="yes"/>
      <point x="61" y="176"/>
      <point x="121" y="83"/>
      <point x="238" y="-13" type="curve"/>
      <point x="285" y="31" type="line"/>
      <point x="147" y="169"/>
      <point x="151" y="337"/>
      <point x="308" y="337" type="curve" smooth="yes"/>
    </contour>
    <contour>
      <point x="603" y="502" type="line"/>
      <point x="581" y="580" type="line"/>
      <point x="-20" y="580" type="line"/>
      <point x="3" y="502" type="line"/>
    </contour>
    <component base="stem-deva" xOffset="-23"/>
    <contour>
      <point x="4" y="-34" type="move" name="nukta"/>
    </contour>
    <contour>
      <point x="432" y="0" type="move" name="bottom"/>
    </contour>
    <contour>
      <point x="432" y="580" type="move" name="top"/>
    </contour>
  </outline>
</glyph>
<glyph name="dadeva" format="1">
  <advance width="571"/>
  <unicode hex="0926"/>
  <note>
    dDa
  </note>
  <outline>
    <contour>
      <point x="410" y="128" type="line"/>
      <point x="374" y="99"/>
      <point x="331" y="84"/>
      <point x="292" y="84" type="curve" smooth="yes"/>
      <point x="223" y="84"/>
      <point x="163" y="127"/>
      <point x="163" y="207" type="curve" smooth="yes"/>
      <point x="163" y="278"/>
      <point x="215" y="319"/>
      <point x="308" y="323" type="curve" smooth="yes"/>
      <point x="468" y="330" type="line"/>
      <point x="468" y="502" type="line"/>
      <point x="591" y="502" type="line"/>
      <point x="569" y="580" type="line"/>
      <point x="-20" y="580" type="line"/>
      <point x="3" y="502" type="line"/>
      <point x="388" y="502" type="line"/>
      <point x="388" y="401" type="line"/>
      <point x="335" y="414"/>
      <point x="289" y="420"/>
      <point x="249" y="420" type="curve" smooth="yes"/>
      <point x="110" y="420"/>
      <point x="54" y="346"/>
      <point x="54" y="261" type="curve" smooth="yes"/>
      <point x="54" y="109"/>
      <point x="166" y="5"/>
      <point x="296" y="5" type="curve" smooth="yes"/>
      <point x="341" y="5"/>
      <point x="387" y="16"/>
      <point x="430" y="40" type="curve"/>
    </contour>
    <contour>
      <point x="567" y="-89" type="line"/>
      <point x="457" y="41" type="line"/>
      <point x="477" y="50"/>
      <point x="514" y="68"/>
      <point x="514" y="113" type="curve" smooth="yes"/>
      <point x="514" y="154"/>
      <point x="488" y="189"/>
      <point x="444" y="189" type="curve" smooth="yes"/>
      <point x="397" y="189"/>
      <point x="359" y="158"/>
      <point x="359" y="98" type="curve" smooth="yes"/>
      <point x="359" y="42"/>
      <point x="420" y="-27"/>
      <point x="487" y="-153" type="curve"/>
    </contour>
    <component base="stem-short-deva" xOffset="36" yOffset="10"/>
    <contour>
      <point x="103" y="-49" type="move" name="nukta"/>
    </contour>
    <contour>
      <point x="394" y="-34" type="move" name="bottom"/>
    </contour>
    <contour>
      <point x="420" y="580" type="move" name="top"/>
    </contour>
  </outline>
</glyph>
<glyph name="uni0975" format="1">
  <advance width="1088"/>
  <unicode hex="0975"/>
  <outline>
    <contour>
      <point x="904" y="533" type="line"/>
      <point x="917" y="705"/>
      <point x="806" y="733"/>
      <point x="719" y="709" type="curve" smooth="yes"/>
      <point x="662" y="694"/>
      <point x="617" y="684"/>
      <point x="566" y="766" type="curve"/>
      <point x="533" y="744" type="line"/>
      <point x="589" y="632"/>
      <point x="657" y="609"/>
      <point x="749" y="629" type="curve" smooth="yes"/>
      <point x="818" y="643"/>
      <point x="864" y="632"/>
      <point x="876" y="534" type="curve"/>
    </contour>
    <contour>
      <point x="939" y="528" type="line"/>
      <point x="1015" y="749"/>
      <point x="917" y="862"/>
      <point x="784" y="828" type="curve" smooth="yes"/>
      <point x="704" y="807"/>
      <point x="648" y="800"/>
      <point x="616" y="868" type="curve"/>
      <point x="582" y="850" type="line"/>
      <point x="628" y="736"/>
      <point x="713" y="729"/>
      <point x="786" y="746" type="curve" smooth="yes"/>
      <point x="887" y="769"/>
      <point x="927" y="671"/>
      <point x="895" y="542" type="curve"/>
    </contour>
    <component base="aadeva"/>
    <contour>
      <point x="988" y="578" type="move" name="top"/>
    </contour>
  </outline>
</glyph>
<glyph name="uni097A" format="1">
  <advance width="569"/>
  <unicode hex="097A"/>
  <outline>
    <contour>
      <point x="186" y="522" type="line"/>
      <point x="428.103" y="159.966" type="line"/>
      <point x="471.452" y="195.433" type="line"/>
      <point x="231" y="561" type="line"/>
    </contour>
    <component base="uni092F"/>
  </outline>
</glyph>
<glyph name="daggerdbl" format="1">
  <advance width="544"/>
  <unicode hex="2021"/>
  <outline>
    <contour>
      <point x="222" y="757"/>
      <point x="204" y="705"/>
      <point x="208" y="665" type="curve" smooth="yes"/>
      <point x="212" y="611"/>
      <point x="229" y="537"/>
      <point x="238" y="483" type="curve"/>
      <point x="195" y="492"/>
      <point x="152" y="507"/>
      <point x="110" y="507" type="curve" smooth="yes"/>
      <point x="74" y="507"/>
      <point x="40" y="496"/>
      <point x="40" y="450" type="curve" smooth="yes"/>
      <point x="40" y="404"/>
      <point x="75" y="393"/>
      <point x="111" y="393" type="curve" smooth="yes"/>
      <point x="118" y="393"/>
      <point x="163" y="396"/>
      <point x="232" y="416" type="curve"/>
      <point x="199" y="243" type="line"/>
      <point x="237" y="69" type="line"/>
      <point x="204" y="76"/>
      <point x="159" y="93"/>
      <point x="111" y="93" type="curve" smooth="yes"/>
      <point x="75" y="93"/>
      <point x="40" y="81"/>
      <point x="40" y="35" type="curve" smooth="yes"/>
      <point x="40" y="-9"/>
      <point x="74" y="-21"/>
      <point x="110" y="-21" type="curve" smooth="yes"/>
      <point x="145" y="-21"/>
      <point x="191" y="-6"/>
      <point x="233" y="2" type="curve"/>
      <point x="224" y="-51"/>
      <point x="212" y="-125"/>
      <point x="208" y="-179" type="curve" smooth="yes"/>
      <point x="204" y="-219"/>
      <point x="219" y="-271"/>
      <point x="271" y="-271" type="curve" smooth="yes"/>
      <point x="323" y="-271"/>
      <point x="341" y="-219"/>
      <point x="337" y="-179" type="curve" smooth="yes"/>
      <point x="333" y="-125"/>
      <point x="321" y="-51"/>
      <point x="312" y="2" type="curve"/>
      <point x="360" y="-7"/>
      <point x="400" y="-21"/>
      <point x="435" y="-21" type="curve" smooth="yes"/>
      <point x="471" y="-21"/>
      <point x="504" y="-9"/>
      <point x="504" y="35" type="curve" smooth="yes"/>
      <point x="504" y="81"/>
      <point x="470" y="93"/>
      <point x="434" y="93" type="curve" smooth="yes"/>
      <point x="393" y="93"/>
      <point x="382" y="87"/>
      <point x="307" y="69" type="curve"/>
      <point x="343" y="243" type="line"/>
      <point x="312" y="416" type="line"/>
      <point x="345" y="410"/>
      <point x="379" y="398"/>
      <point x="434" y="393" type="curve" smooth="yes"/>
      <point x="470" y="393"/>
      <point x="504" y="404"/>
      <point x="504" y="450" type="curve" smooth="yes"/>
      <point x="504" y="496"/>
      <point x="471" y="507"/>
      <point x="435" y="507" type="curve" smooth="yes"/>
      <point x="393" y="507"/>
      <point x="350" y="492"/>
      <point x="307" y="483" type="curve"/>
      <point x="316" y="537"/>
      <point x="332" y="611"/>
      <point x="337" y="665" type="curve" smooth="yes"/>
      <point x="341" y="705"/>
      <point x="326" y="757"/>
      <point x="273" y="757" type="curve" smooth="yes"/>
    </contour>
  </outline>
</glyph>
<glyph name="rupeesign" format="1">
  <advance width="723"/>
  <unicode hex="20A8"/>
  <outline>
    <contour>
      <point x="629" y="487" type="line"/>
      <point x="605" y="580" type="line"/>
      <point x="84" y="580" type="line"/>
      <point x="108" y="487" type="line"/>
    </contour>
    <contour>
      <point x="263" y="487" type="line"/>
      <point x="328" y="483"/>
      <point x="375" y="455"/>
      <point x="375" y="380" type="curve" smooth="yes"/>
      <point x="375" y="303"/>
      <point x="333" y="269"/>
      <point x="231" y="269" type="curve"/>
      <point x="166" y="218" type="line"/>
      <point x="219" y="102"/>
      <point x="321" y="-10"/>
      <point x="421" y="-61" type="curve"/>
      <point x="512" y="68" type="line"/>
      <point x="411" y="100"/>
      <point x="350" y="139"/>
      <point x="286" y="204" type="curve"/>
      <point x="434" y="204"/>
      <point x="514" y="264"/>
      <point x="514" y="366" type="curve" smooth="yes"/>
      <point x="514" y="464"/>
      <point x="438" y="515"/>
      <point x="293" y="527" type="curve"/>
    </contour>
    <contour>
      <point x="625" y="331" type="line"/>
      <point x="600" y="423" type="line"/>
      <point x="98" y="423" type="line"/>
      <point x="123" y="331" type="line"/>
    </contour>
  </outline>
</glyph>
<glyph name="uni2126" format="1">
  <advance width="786"/>
  <unicode hex="2126"/>
  <outline>
    <contour>
      <point x="179" y="716"/>
      <point x="56" y="545"/>
      <point x="56" y="387" type="curve" smooth="yes"/>
      <point x="56" y="249"/>
      <point x="153" y="135"/>
      <point x="296" y="101" type="curve"/>
      <point x="296" y="100" type="line"/>
      <point x="192" y="98" type="line" smooth="yes"/>
      <point x="146" y="97"/>
      <point x="116" y="107"/>
      <point x="116" y="163" type="curve"/>
      <point x="53" y="163" type="line"/>
      <point x="61" y="0" type="line"/>
      <point x="372" y="0" type="line"/>
      <point x="372" y="109" type="line"/>
      <point x="292" y="119"/>
      <point x="197" y="216"/>
      <point x="197" y="375" type="curve" smooth="yes"/>
      <point x="197" y="500"/>
      <point x="250" y="645"/>
      <point x="393" y="646" type="curve" smooth="yes"/>
      <point x="536" y="646"/>
      <point x="580" y="504"/>
      <point x="580" y="369" type="curve" smooth="yes"/>
      <point x="580" y="226"/>
      <point x="501" y="127"/>
      <point x="416" y="109" type="curve"/>
      <point x="416" y="0" type="line"/>
      <point x="729" y="0" type="line"/>
      <point x="737" y="163" type="line"/>
      <point x="673" y="163" type="line"/>
      <point x="673" y="107"/>
      <point x="643" y="97"/>
      <point x="598" y="98" type="curve" smooth="yes"/>
      <point x="496" y="100" type="line"/>
      <point x="496" y="101" type="line"/>
      <point x="627" y="140"/>
      <point x="723" y="266"/>
      <point x="723" y="396" type="curve" smooth="yes"/>
      <point x="723" y="554"/>
      <point x="611" y="716"/>
      <point x="390" y="716" type="curve" smooth="yes"/>
    </contour>
  </outline>
</glyph>
<glyph name="approxequal" format="1">
  <advance width="571"/>
  <unicode hex="2248"/>
  <outline>
    <contour>
      <point x="138" y="484"/>
      <point x="106" y="469"/>
      <point x="64" y="440" type="curve"/>
      <point x="64" y="341" type="line"/>
      <point x="100" y="363"/>
      <point x="132" y="381"/>
      <point x="187" y="381" type="curve" smooth="yes"/>
      <point x="267" y="381"/>
      <point x="289" y="318"/>
      <point x="389" y="318" type="curve" smooth="yes"/>
      <point x="441" y="318"/>
      <point x="480" y="337"/>
      <point x="508" y="362" type="curve"/>
      <point x="508" y="461" type="line"/>
      <point x="474" y="435"/>
      <point x="429" y="418"/>
      <point x="381" y="421" type="curve" smooth="yes"/>
      <point x="310" y="427"/>
      <point x="293" y="484"/>
      <point x="191" y="484" type="curve" smooth="yes"/>
    </contour>
    <contour>
      <point x="138" y="289"/>
      <point x="106" y="273"/>
      <point x="64" y="244" type="curve"/>
      <point x="64" y="145" type="line"/>
      <point x="100" y="167"/>
      <point x="132" y="186"/>
      <point x="187" y="186" type="curve" smooth="yes"/>
      <point x="267" y="186"/>
      <point x="289" y="123"/>
      <point x="389" y="123" type="curve" smooth="yes"/>
      <point x="441" y="123"/>
      <point x="480" y="141"/>
      <point x="508" y="167" type="curve"/>
      <point x="508" y="265" type="line"/>
      <point x="474" y="239"/>
      <point x="429" y="223"/>
      <point x="381" y="226" type="curve" smooth="yes"/>
      <point x="310" y="231"/>
      <point x="293" y="289"/>
      <point x="191" y="289" type="curve" smooth="yes"/>
    </contour>
  </outline>
</glyph>
<glyph name="greaterequal" format="1">
  <advance width="566"/>
  <unicode hex="2265"/>
  <outline>
    <contour>
      <point x="65" y="500" type="line"/>
      <point x="376" y="363" type="line"/>
      <point x="376" y="362" type="line"/>
      <point x="65" y="226" type="line"/>
      <point x="65" y="120" type="line"/>
      <point x="516" y="320" type="line"/>
      <point x="516" y="411" type="line"/>
      <point x="65" y="606" type="line"/>
    </contour>
    <contour>
      <point x="65" y="85" type="line"/>
      <point x="65" y="0" type="line"/>
      <point x="516" y="0" type="line"/>
      <point x="516" y="90" type="line"/>
    </contour>
  </outline>
</glyph>
<glyph name="uni092C094D" format="1">
  <advance width="454"/>
  <outline>
    <contour>
      <point x="137" y="399" type="line"/>
      <point x="102" y="361" type="line"/>
      <point x="364" y="141" type="line"/>
      <point x="399" y="179" type="line"/>
    </contour>
    <contour>
      <point x="320" y="414"/>
      <point x="246" y="442"/>
      <point x="180" y="442" type="curve" smooth="yes"/>
      <point x="93" y="442"/>
      <point x="20" y="381"/>
      <point x="20" y="278" type="curve" smooth="yes"/>
      <point x="20" y="128"/>
      <point x="130" y="58"/>
      <point x="250" y="58" type="curve" smooth="yes"/>
      <point x="318" y="58"/>
      <point x="390" y="81"/>
      <point x="447" y="123" type="curve"/>
      <point x="417" y="236" type="line"/>
      <point x="362" y="184"/>
      <point x="277" y="151"/>
      <point x="211" y="151" type="curve" smooth="yes"/>
      <point x="153" y="151"/>
      <point x="108" y="176"/>
      <point x="108" y="236" type="curve" smooth="yes"/>
      <point x="108" y="313"/>
      <point x="156" y="347"/>
      <point x="219" y="347" type="curve" smooth="yes"/>
      <point x="260" y="347"/>
      <point x="306" y="334"/>
      <point x="351" y="309" type="curve"/>
      <point x="377" y="361" type="line"/>
    </contour>
    <contour>
      <point x="381" y="502" type="line"/>
      <point x="359" y="580" type="line"/>
      <point x="-20" y="580" type="line"/>
      <point x="3" y="502" type="line"/>
    </contour>
  </outline>
</glyph>
<glyph name="uni092C094D_jadeva" format="1">
  <advance width="1069"/>
  <note>
    dBJa
  </note>
  <outline>
    <contour>
      <point x="185" y="162"/>
      <point x="168" y="209"/>
      <point x="168" y="235" type="curve" smooth="yes"/>
      <point x="168" y="256"/>
      <point x="173" y="271"/>
      <point x="184" y="292" type="curve"/>
      <point x="191" y="279"/>
      <point x="197" y="274"/>
      <point x="211" y="260" type="curve" smooth="yes"/>
      <point x="285" y="185" type="line" smooth="yes"/>
      <point x="292" y="178"/>
      <point x="303" y="167"/>
      <point x="310" y="165" type="curve"/>
      <point x="287" y="150"/>
      <point x="259" y="147"/>
      <point x="234" y="147" type="curve" smooth="yes"/>
      <point x="229" y="147"/>
      <point x="220" y="147"/>
      <point x="211" y="148" type="curve" smooth="yes"/>
      <point x="202" y="150"/>
      <point x="194" y="152"/>
      <point x="193" y="153" type="curve" smooth="yes"/>
    </contour>
    <contour>
      <point x="273" y="283" type="line" smooth="yes"/>
      <point x="252" y="305"/>
      <point x="238" y="316"/>
      <point x="224" y="324" type="curve"/>
      <point x="235" y="328"/>
      <point x="256" y="328"/>
      <point x="271" y="328" type="curve" smooth="yes"/>
      <point x="291" y="328"/>
      <point x="312" y="328"/>
      <point x="338" y="323" type="curve"/>
      <point x="350" y="283"/>
      <point x="362" y="246"/>
      <point x="377" y="213" type="curve"/>
      <point x="369" y="207"/>
      <point x="361" y="202"/>
      <point x="353" y="197" type="curve"/>
      <point x="348" y="207"/>
      <point x="341" y="212"/>
      <point x="332" y="222" type="curve" smooth="yes"/>
    </contour>
    <contour>
      <point x="1074" y="580" type="line"/>
      <point x="-27" y="580" type="line"/>
      <point x="-1" y="487" type="line"/>
      <point x="854" y="487" type="line"/>
      <point x="854" y="392" type="line"/>
      <point x="538" y="392" type="line"/>
      <point x="555" y="320" type="line"/>
      <point x="617" y="291"/>
      <point x="646" y="265"/>
      <point x="646" y="216" type="curve" smooth="yes"/>
      <point x="646" y="183"/>
      <point x="623" y="152"/>
      <point x="580" y="152" type="curve" smooth="yes"/>
      <point x="526" y="152"/>
      <point x="458" y="187"/>
      <point x="400" y="364" type="curve"/>
      <point x="333" y="407"/>
      <point x="281" y="420"/>
      <point x="217" y="420" type="curve" smooth="yes"/>
      <point x="125" y="420"/>
      <point x="42" y="373"/>
      <point x="42" y="267" type="curve" smooth="yes"/>
      <point x="42" y="167"/>
      <point x="171" y="62"/>
      <point x="270" y="62" type="curve" smooth="yes"/>
      <point x="313" y="62"/>
      <point x="379" y="69"/>
      <point x="438" y="110" type="curve"/>
      <point x="484" y="55"/>
      <point x="544" y="25"/>
      <point x="625" y="25" type="curve" smooth="yes"/>
      <point x="718" y="25"/>
      <point x="789" y="80"/>
      <point x="789" y="167" type="curve" smooth="yes"/>
      <point x="789" y="217"/>
      <point x="759" y="265"/>
      <point x="688" y="299" type="curve"/>
      <point x="854" y="299" type="line"/>
      <point x="854" y="-21" type="line"/>
      <point x="1000" y="-47" type="line"/>
      <point x="1000" y="487" type="line"/>
      <point x="1094" y="487" type="line"/>
    </contour>
    <contour>
      <point x="927" y="580" type="move" name="top"/>
    </contour>
    <contour>
      <point x="927" y="0" type="move" name="bottom"/>
    </contour>
  </outline>
</glyph>
<glyph name="uni092C094D0932.loclMAR" format="1">
  <advance width="631"/>
  <note>
    dBLa.MAR
  </note>
  <outline>
    <contour>
      <point x="257" y="197"/>
      <point x="236" y="195"/>
      <point x="211" y="195" type="curve" smooth="yes"/>
      <point x="202" y="195"/>
      <point x="172" y="198"/>
      <point x="168" y="202" type="curve" smooth="yes"/>
      <point x="161" y="211"/>
      <point x="153" y="243"/>
      <point x="153" y="269" type="curve" smooth="yes"/>
      <point x="153" y="290"/>
      <point x="156" y="307"/>
      <point x="165" y="324" type="curve"/>
      <point x="170" y="310"/>
      <point x="179" y="296"/>
      <point x="194" y="284" type="curve" smooth="yes"/>
      <point x="260" y="229" type="line" smooth="yes"/>
      <point x="268" y="223"/>
      <point x="279" y="214"/>
      <point x="286" y="211" type="curve"/>
    </contour>
    <contour>
      <point x="383" y="310" type="line"/>
      <point x="367" y="268"/>
      <point x="350" y="255"/>
      <point x="327" y="239" type="curve"/>
      <point x="320" y="252"/>
      <point x="313" y="260"/>
      <point x="305" y="267" type="curve" smooth="yes"/>
      <point x="241" y="319" type="line" smooth="yes"/>
      <point x="226" y="332"/>
      <point x="217" y="339"/>
      <point x="200" y="346" type="curve"/>
      <point x="209" y="351"/>
      <point x="230" y="353"/>
      <point x="246" y="353" type="curve" smooth="yes"/>
      <point x="288" y="353"/>
      <point x="319" y="348"/>
      <point x="384" y="329" type="curve"/>
      <point x="384" y="386" type="line"/>
      <point x="321" y="427"/>
      <point x="263" y="445"/>
      <point x="199" y="445" type="curve" smooth="yes"/>
      <point x="110" y="445"/>
      <point x="24" y="404"/>
      <point x="24" y="307" type="curve" smooth="yes"/>
      <point x="24" y="224"/>
      <point x="144" y="115"/>
      <point x="258" y="115" type="curve" smooth="yes"/>
      <point x="306" y="115"/>
      <point x="351" y="122"/>
      <point x="394" y="146" type="curve"/>
      <point x="394" y="305" type="line"/>
    </contour>
    <contour>
      <point x="528" y="487" type="line"/>
      <point x="654" y="487" type="line"/>
      <point x="631" y="580" type="line"/>
      <point x="-27" y="580" type="line"/>
      <point x="-1" y="487" type="line"/>
      <point x="383" y="487" type="line"/>
      <point x="383" y="78" type="line"/>
      <point x="528" y="50" type="line"/>
    </contour>
    <contour>
      <point x="313" y="34" type="line"/>
      <point x="265" y="73"/>
      <point x="219" y="96"/>
      <point x="177" y="96" type="curve" smooth="yes"/>
      <point x="104" y="96"/>
      <point x="33" y="56"/>
      <point x="33" y="-34" type="curve" smooth="yes"/>
      <point x="33" y="-128"/>
      <point x="104" y="-206"/>
      <point x="262" y="-285" type="curve"/>
      <point x="292" y="-237" type="line"/>
      <point x="197" y="-164"/>
      <point x="170" y="-113"/>
      <point x="170" y="-56" type="curve" smooth="yes"/>
      <point x="170" y="-8"/>
      <point x="198" y="18"/>
      <point x="235" y="18" type="curve" smooth="yes"/>
      <point x="251" y="18"/>
      <point x="276" y="11"/>
      <point x="297" y="0" type="curve"/>
    </contour>
    <contour>
      <point x="283" y="12"/>
      <point x="271" y="-31"/>
      <point x="263" y="-85" type="curve"/>
      <point x="384" y="-112" type="line"/>
      <point x="402" y="2"/>
      <point x="437" y="28"/>
      <point x="474" y="28" type="curve" smooth="yes"/>
      <point x="494" y="28"/>
      <point x="510" y="21"/>
      <point x="515" y="15" type="curve" smooth="yes"/>
      <point x="521" y="7"/>
      <point x="523" y="-17"/>
      <point x="523" y="-28" type="curve" smooth="yes"/>
      <point x="523" y="-108"/>
      <point x="452" y="-160"/>
      <point x="379" y="-218" type="curve"/>
      <point x="498" y="-290" type="line"/>
      <point x="595" y="-213"/>
      <point x="619" y="-146"/>
      <point x="619" y="-86" type="curve" smooth="yes"/>
      <point x="619" y="0"/>
      <point x="531" y="99"/>
      <point x="441" y="99" type="curve" smooth="yes"/>
      <point x="393" y="99"/>
      <point x="343" y="79"/>
      <point x="312" y="42" type="curve" smooth="yes"/>
    </contour>
    <contour>
      <point x="456" y="580" type="move" name="top"/>
    </contour>
    <contour>
      <point x="466" y="-220" type="move" name="bottom"/>
    </contour>
  </outline>
</glyph>
<glyph name="uni092D094D_radeva" format="1">
  <advance width="735"/>
  <note>
    dBhRa
  </note>
  <outline>
    <contour>
      <point x="579" y="244" type="line"/>
      <point x="281" y="17" type="line"/>
      <point x="349" y="-54" type="line"/>
      <point x="579" y="145" type="line"/>
    </contour>
    <component base="bhadeva"/>
    <contour>
      <point x="572" y="580" type="move" name="top"/>
    </contour>
    <contour>
      <point x="572" y="0" type="move" name="bottom"/>
    </contour>
  </outline>
</glyph>
<glyph name="uni091A094D" format="1">
  <advance width="391"/>
  <outline>
    <contour>
      <point x="423" y="502" type="line"/>
      <point x="401" y="580" type="line"/>
      <point x="-20" y="580" type="line"/>
      <point x="3" y="502" type="line"/>
    </contour>
    <contour>
      <point x="135" y="352"/>
      <point x="84" y="298"/>
      <point x="84" y="223" type="curve" smooth="yes"/>
      <point x="84" y="114"/>
      <point x="180" y="60"/>
      <point x="283" y="60" type="curve" smooth="yes"/>
      <point x="356" y="60"/>
      <point x="432" y="86"/>
      <point x="481" y="139" type="curve"/>
      <point x="405" y="228" type="line"/>
      <point x="375" y="164"/>
      <point x="317" y="128"/>
      <point x="271" y="128" type="curve" smooth="yes"/>
      <point x="234" y="128"/>
      <point x="205" y="151"/>
      <point x="205" y="200" type="curve" smooth="yes"/>
      <point x="205" y="267"/>
      <point x="262" y="328"/>
      <point x="376" y="348" type="curve"/>
      <point x="263" y="388" type="line"/>
    </contour>
    <contour>
      <point x="354" y="416" type="line"/>
      <point x="-14" y="416" type="line"/>
      <point x="9" y="338" type="line"/>
      <point x="376" y="348" type="line"/>
    </contour>
  </outline>
</glyph>
<glyph name="uni091A094D_cadeva.alt" format="1">
  <advance width="696"/>
  <note>
    dCCa.alt
  </note>
  <outline>
    <contour>
      <point x="479" y="503" type="line"/>
      <point x="479" y="-131" type="line"/>
      <point x="619" y="-160" type="line"/>
      <point x="619" y="503" type="line"/>
    </contour>
    <contour>
      <point x="718" y="487" type="line"/>
      <point x="696" y="580" type="line"/>
      <point x="-24" y="580" type="line"/>
      <point x="0" y="487" type="line"/>
    </contour>
    <contour>
      <point x="479" y="367" type="line"/>
      <point x="437" y="299"/>
      <point x="376" y="244"/>
      <point x="300" y="244" type="curve" smooth="yes"/>
      <point x="286" y="244"/>
      <point x="269" y="245"/>
      <point x="264" y="250" type="curve" smooth="yes"/>
      <point x="261" y="253"/>
      <point x="254" y="269"/>
      <point x="254" y="284" type="curve" smooth="yes"/>
      <point x="254" y="347"/>
      <point x="302" y="353"/>
      <point x="401" y="353" type="curve"/>
      <point x="212" y="391" type="line"/>
      <point x="155" y="366"/>
      <point x="127" y="341"/>
      <point x="127" y="314" type="curve" smooth="yes"/>
      <point x="127" y="297"/>
      <point x="134" y="283"/>
      <point x="146" y="267" type="curve" smooth="yes"/>
      <point x="194" y="204"/>
      <point x="307" y="167"/>
      <point x="367" y="167" type="curve" smooth="yes"/>
      <point x="458" y="167"/>
      <point x="511" y="221"/>
      <point x="567" y="300" type="curve"/>
    </contour>
    <contour>
      <point x="411" y="353" type="line"/>
      <point x="388" y="441" type="line"/>
      <point x="24" y="441" type="line"/>
      <point x="49" y="353" type="line"/>
    </contour>
    <contour>
      <point x="479" y="120" type="line"/>
      <point x="460" y="36"/>
      <point x="412" y="-28"/>
      <point x="339" y="-47" type="curve" smooth="yes"/>
      <point x="325" y="-51"/>
      <point x="308" y="-54"/>
      <point x="302" y="-50" type="curve" smooth="yes"/>
      <point x="298" y="-48"/>
      <point x="288" y="-35"/>
      <point x="284" y="-19" type="curve" smooth="yes"/>
      <point x="269" y="41"/>
      <point x="329" y="57"/>
      <point x="373" y="66" type="curve"/>
      <point x="223" y="68" type="line"/>
      <point x="201" y="51"/>
      <point x="173" y="28"/>
      <point x="170" y="-4" type="curve" smooth="yes"/>
      <point x="167" y="-24"/>
      <point x="173" y="-45"/>
      <point x="192" y="-66" type="curve" smooth="yes"/>
      <point x="239" y="-117"/>
      <point x="372" y="-124"/>
      <point x="414" y="-116" type="curve" smooth="yes"/>
      <point x="500" y="-100"/>
      <point x="530" y="-33"/>
      <point x="573" y="78" type="curve"/>
    </contour>
    <contour>
      <point x="381" y="69" type="line"/>
      <point x="338" y="148" type="line"/>
      <point x="44" y="78" type="line"/>
      <point x="91" y="-1" type="line"/>
    </contour>
    <contour>
      <point x="563" y="580" type="move" name="top"/>
    </contour>
    <contour>
      <point x="563" y="-122" type="move" name="bottom"/>
    </contour>
  </outline>
</glyph>
<glyph name="uni091A094D_cadeva" format="1">
  <advance width="1033"/>
  <note>
    dCCa
  </note>
  <outline>
    <contour>
      <point x="777" y="0" type="line"/>
      <point x="907" y="0" type="line"/>
      <point x="907" y="502" type="line"/>
      <point x="1018" y="502" type="line"/>
      <point x="996" y="580" type="line"/>
      <point x="15" y="580" type="line"/>
      <point x="38" y="502" type="line"/>
      <point x="777" y="502" type="line"/>
    </contour>
    <contour>
      <point x="332" y="122"/>
      <point x="271" y="122" type="curve" smooth="yes"/>
      <point x="231" y="122"/>
      <point x="203" y="145"/>
      <point x="203" y="195" type="curve" smooth="yes"/>
      <point x="203" y="258"/>
      <point x="266" y="340"/>
      <point x="363" y="338" type="curve"/>
      <point x="341" y="416" type="line"/>
      <point x="53" y="416" type="line"/>
      <point x="76" y="338" type="line"/>
      <point x="317" y="338" type="line"/>
      <point x="293" y="402" type="line"/>
      <point x="199" y="387"/>
      <point x="116" y="318"/>
      <point x="116" y="222" type="curve" smooth="yes"/>
      <point x="116" y="123"/>
      <point x="201" y="61"/>
      <point x="297" y="61" type="curve" smooth="yes"/>
      <point x="368" y="61"/>
      <point x="445" y="91"/>
      <point x="509" y="143" type="curve"/>
      <point x="480" y="263" type="line"/>
      <point x="419" y="174"/>
    </contour>
    <contour>
      <point x="682" y="124"/>
      <point x="615" y="124" type="curve" smooth="yes"/>
      <point x="560" y="124"/>
      <point x="535" y="157"/>
      <point x="535" y="197" type="curve" smooth="yes"/>
      <point x="535" y="262"/>
      <point x="604" y="345"/>
      <point x="725" y="338" type="curve"/>
      <point x="703" y="416" type="line"/>
      <point x="385" y="416" type="line"/>
      <point x="408" y="338" type="line"/>
      <point x="649" y="338" type="line"/>
      <point x="665" y="372" type="line"/>
      <point x="521" y="397"/>
      <point x="448" y="318"/>
      <point x="448" y="232" type="curve" smooth="yes"/>
      <point x="448" y="125"/>
      <point x="540" y="58"/>
      <point x="650" y="58" type="curve" smooth="yes"/>
      <point x="712" y="58"/>
      <point x="780" y="82"/>
      <point x="821" y="133" type="curve"/>
      <point x="791" y="245" type="line"/>
      <point x="744" y="165"/>
    </contour>
    <contour>
      <point x="846" y="259" type="line"/>
      <point x="541" y="-6" type="line"/>
      <point x="609" y="-77" type="line"/>
      <point x="846" y="144" type="line"/>
    </contour>
    <contour>
      <point x="844" y="580" type="move" name="top"/>
    </contour>
    <contour>
      <point x="844" y="0" type="move" name="bottom"/>
    </contour>
  </outline>
</glyph>
<glyph name="uni091A094D0932.loclMAR" format="1">
  <advance width="692"/>
  <note>
    dCLa.MAR
  </note>
  <outline>
    <contour>
      <point x="469" y="503" type="line"/>
      <point x="469" y="59" type="line"/>
      <point x="609" y="32" type="line"/>
      <point x="609" y="503" type="line"/>
    </contour>
    <contour>
      <point x="717" y="487" type="line"/>
      <point x="696" y="580" type="line"/>
      <point x="-24" y="580" type="line"/>
      <point x="0" y="487" type="line"/>
    </contour>
    <contour>
      <point x="470" y="333" type="line"/>
      <point x="427" y="265"/>
      <point x="352" y="209"/>
      <point x="276" y="209" type="curve" smooth="yes"/>
      <point x="261" y="209"/>
      <point x="245" y="210"/>
      <point x="240" y="215" type="curve" smooth="yes"/>
      <point x="236" y="219"/>
      <point x="229" y="234"/>
      <point x="229" y="250" type="curve" smooth="yes"/>
      <point x="229" y="313"/>
      <point x="297" y="333"/>
      <point x="376" y="333" type="curve"/>
      <point x="178" y="371" type="line"/>
      <point x="121" y="347"/>
      <point x="103" y="307"/>
      <point x="103" y="280" type="curve" smooth="yes"/>
      <point x="103" y="263"/>
      <point x="109" y="249"/>
      <point x="122" y="233" type="curve" smooth="yes"/>
      <point x="169" y="170"/>
      <point x="282" y="133"/>
      <point x="342" y="133" type="curve" smooth="yes"/>
      <point x="449" y="133"/>
      <point x="501" y="172"/>
      <point x="557" y="251" type="curve"/>
    </contour>
    <contour>
      <point x="386" y="333" type="line"/>
      <point x="364" y="421" type="line"/>
      <point x="9" y="421" type="line"/>
      <point x="35" y="333" type="line"/>
    </contour>
    <contour>
      <point x="356" y="39" type="line"/>
      <point x="309" y="78"/>
      <point x="263" y="101"/>
      <point x="221" y="101" type="curve" smooth="yes"/>
      <point x="148" y="101"/>
      <point x="77" y="61"/>
      <point x="77" y="-29" type="curve" smooth="yes"/>
      <point x="77" y="-123"/>
      <point x="148" y="-201"/>
      <point x="306" y="-280" type="curve"/>
      <point x="335" y="-232" type="line"/>
      <point x="241" y="-159"/>
      <point x="214" y="-108"/>
      <point x="214" y="-51" type="curve" smooth="yes"/>
      <point x="214" y="-3"/>
      <point x="242" y="23"/>
      <point x="279" y="23" type="curve" smooth="yes"/>
      <point x="295" y="23"/>
      <point x="320" y="16"/>
      <point x="341" y="5" type="curve"/>
    </contour>
    <contour>
      <point x="327" y="17"/>
      <point x="315" y="-26"/>
      <point x="307" y="-81" type="curve"/>
      <point x="428" y="-107" type="line"/>
      <point x="446" y="7"/>
      <point x="481" y="33"/>
      <point x="518" y="33" type="curve" smooth="yes"/>
      <point x="538" y="33"/>
      <point x="554" y="26"/>
      <point x="559" y="20" type="curve" smooth="yes"/>
      <point x="564" y="12"/>
      <point x="567" y="-12"/>
      <point x="567" y="-23" type="curve" smooth="yes"/>
      <point x="567" y="-104"/>
      <point x="496" y="-155"/>
      <point x="423" y="-213" type="curve"/>
      <point x="542" y="-285" type="line"/>
      <point x="639" y="-208"/>
      <point x="663" y="-141"/>
      <point x="663" y="-82" type="curve" smooth="yes"/>
      <point x="663" y="5"/>
      <point x="575" y="104"/>
      <point x="485" y="104" type="curve" smooth="yes"/>
      <point x="437" y="104"/>
      <point x="387" y="84"/>
      <point x="355" y="47" type="curve" smooth="yes"/>
    </contour>
    <contour>
      <point x="539" y="580" type="move" name="top"/>
    </contour>
    <contour>
      <point x="507" y="-210" type="move" name="bottom"/>
    </contour>
  </outline>
</glyph>
<glyph name="uni091B094D_nadeva" format="1">
  <advance width="750"/>
  <note>
    dChNa
  </note>
  <outline>
    <contour>
      <point x="413" y="-271" type="line"/>
      <point x="543" y="-271" type="line"/>
      <point x="543" y="122" type="line"/>
      <point x="413" y="102" type="line"/>
    </contour>
    <contour>
      <point x="519" y="-102" type="line"/>
      <point x="501" y="-24" type="line"/>
      <point x="211" y="-24" type="line"/>
      <point x="234" y="-102" type="line"/>
    </contour>
    <contour>
      <point x="306" y="458" type="line"/>
      <point x="286" y="468"/>
      <point x="260" y="474"/>
      <point x="234" y="474" type="curve" smooth="yes"/>
      <point x="173" y="474"/>
      <point x="109" y="443"/>
      <point x="109" y="368" type="curve" smooth="yes"/>
      <point x="109" y="326"/>
      <point x="138" y="281"/>
      <point x="202" y="251" type="curve"/>
      <point x="230" y="297" type="line"/>
      <point x="204" y="315"/>
      <point x="191" y="339"/>
      <point x="191" y="360" type="curve" smooth="yes"/>
      <point x="191" y="388"/>
      <point x="213" y="411"/>
      <point x="257" y="411" type="curve" smooth="yes"/>
      <point x="277" y="411"/>
      <point x="299" y="406"/>
      <point x="320" y="399" type="curve"/>
    </contour>
    <contour>
      <point x="484" y="431" type="line"/>
      <point x="614" y="420" type="line"/>
      <point x="614" y="502" type="line"/>
      <point x="735" y="502" type="line"/>
      <point x="713" y="580" type="line"/>
      <point x="15" y="580" type="line"/>
      <point x="38" y="502" type="line"/>
      <point x="484" y="502" type="line"/>
    </contour>
    <contour>
      <point x="426" y="464"/>
      <point x="393" y="420"/>
      <point x="393" y="367" type="curve" smooth="yes"/>
      <point x="393" y="299"/>
      <point x="464" y="216"/>
      <point x="605" y="198" type="curve"/>
      <point x="621" y="244" type="line"/>
      <point x="524" y="268"/>
      <point x="484" y="313"/>
      <point x="484" y="361" type="curve" smooth="yes"/>
      <point x="484" y="397"/>
      <point x="503" y="413"/>
      <point x="525" y="413" type="curve" smooth="yes"/>
      <point x="554" y="413"/>
      <point x="589" y="383"/>
      <point x="589" y="327" type="curve" smooth="yes"/>
      <point x="589" y="213"/>
      <point x="453" y="153"/>
      <point x="348" y="153" type="curve" smooth="yes"/>
      <point x="283" y="153"/>
      <point x="240" y="183"/>
      <point x="240" y="223" type="curve" smooth="yes"/>
      <point x="240" y="264"/>
      <point x="285" y="295"/>
      <point x="360" y="289" type="curve"/>
      <point x="344" y="354" type="line"/>
      <point x="217" y="364"/>
      <point x="176" y="305"/>
      <point x="176" y="237" type="curve" smooth="yes"/>
      <point x="176" y="153"/>
      <point x="285" y="63"/>
      <point x="412" y="63" type="curve" smooth="yes"/>
      <point x="590" y="63"/>
      <point x="683" y="204"/>
      <point x="683" y="305" type="curve" smooth="yes"/>
      <point x="683" y="390"/>
      <point x="626" y="464"/>
      <point x="513" y="464" type="curve"/>
    </contour>
    <component base="deva_knot" xOffset="116" yOffset="-327" xScale="0.93" yScale="0.93"/>
    <contour>
      <point x="555" y="580" type="move" name="top"/>
    </contour>
    <contour>
      <point x="478" y="-275" type="move" name="bottom"/>
    </contour>
  </outline>
</glyph>
<glyph name="uni091B094D_vadeva" format="1">
  <advance width="750"/>
  <note>
    dChVa
  </note>
  <outline>
    <contour>
      <point x="444" y="18"/>
      <point x="344" y="44"/>
      <point x="275" y="30" type="curve" smooth="yes"/>
      <point x="218" y="18"/>
      <point x="183" y="-30"/>
      <point x="183" y="-89" type="curve" smooth="yes"/>
      <point x="183" y="-178"/>
      <point x="290" y="-251"/>
      <point x="401" y="-251" type="curve" smooth="yes"/>
      <point x="447" y="-251"/>
      <point x="496" y="-231"/>
      <point x="533" y="-216" type="curve"/>
      <point x="519" y="-120" type="line"/>
      <point x="421" y="-194"/>
      <point x="329" y="-206"/>
      <point x="292" y="-175" type="curve" smooth="yes"/>
      <point x="255" y="-138"/>
      <point x="271" y="-66"/>
      <point x="336" y="-52" type="curve" smooth="yes"/>
      <point x="398" y="-39"/>
      <point x="454" y="-66"/>
      <point x="500" y="-90" type="curve"/>
      <point x="500" y="-31" type="line"/>
    </contour>
    <contour>
      <point x="485" y="-271" type="line"/>
      <point x="615" y="-271" type="line"/>
      <point x="615" y="162" type="line"/>
      <point x="485" y="142" type="line"/>
    </contour>
    <contour>
      <point x="426" y="464"/>
      <point x="393" y="420"/>
      <point x="393" y="367" type="curve" smooth="yes"/>
      <point x="393" y="299"/>
      <point x="464" y="216"/>
      <point x="605" y="198" type="curve"/>
      <point x="621" y="244" type="line"/>
      <point x="524" y="268"/>
      <point x="484" y="313"/>
      <point x="484" y="361" type="curve" smooth="yes"/>
      <point x="484" y="397"/>
      <point x="503" y="413"/>
      <point x="525" y="413" type="curve" smooth="yes"/>
      <point x="554" y="413"/>
      <point x="589" y="383"/>
      <point x="589" y="327" type="curve" smooth="yes"/>
      <point x="589" y="213"/>
      <point x="453" y="153"/>
      <point x="348" y="153" type="curve" smooth="yes"/>
      <point x="283" y="153"/>
      <point x="240" y="183"/>
      <point x="240" y="223" type="curve" smooth="yes"/>
      <point x="240" y="264"/>
      <point x="285" y="295"/>
      <point x="360" y="289" type="curve"/>
      <point x="344" y="354" type="line"/>
      <point x="217" y="364"/>
      <point x="176" y="305"/>
      <point x="176" y="237" type="curve" smooth="yes"/>
      <point x="176" y="153"/>
      <point x="285" y="73"/>
      <point x="412" y="73" type="curve" smooth="yes"/>
      <point x="590" y="73"/>
      <point x="683" y="204"/>
      <point x="683" y="305" type="curve" smooth="yes"/>
      <point x="683" y="390"/>
      <point x="626" y="464"/>
      <point x="513" y="464" type="curve"/>
    </contour>
    <contour>
      <point x="306" y="458" type="line"/>
      <point x="286" y="468"/>
      <point x="260" y="474"/>
      <point x="234" y="474" type="curve" smooth="yes"/>
      <point x="173" y="474"/>
      <point x="109" y="443"/>
      <point x="109" y="368" type="curve" smooth="yes"/>
      <point x="109" y="326"/>
      <point x="138" y="281"/>
      <point x="202" y="251" type="curve"/>
      <point x="230" y="297" type="line"/>
      <point x="204" y="315"/>
      <point x="191" y="339"/>
      <point x="191" y="360" type="curve" smooth="yes"/>
      <point x="191" y="388"/>
      <point x="213" y="411"/>
      <point x="257" y="411" type="curve" smooth="yes"/>
      <point x="277" y="411"/>
      <point x="299" y="406"/>
      <point x="320" y="399" type="curve"/>
    </contour>
    <contour>
      <point x="484" y="431" type="line"/>
      <point x="614" y="420" type="line"/>
      <point x="614" y="502" type="line"/>
      <point x="735" y="502" type="line"/>
      <point x="713" y="580" type="line"/>
      <point x="15" y="580" type="line"/>
      <point x="38" y="502" type="line"/>
      <point x="484" y="502" type="line"/>
    </contour>
    <contour>
      <point x="547" y="580" type="move" name="top"/>
    </contour>
  </outline>
</glyph>
<glyph name="uni0926094D092C094D_radeva" format="1">
  <advance width="620"/>
  <note>
    dDBRa
  </note>
  <outline>
    <contour>
      <point x="196" y="-248" type="line"/>
      <point x="305" y="-305" type="line"/>
      <point x="468" y="-74" type="line"/>
      <point x="409" y="-3" type="line"/>
    </contour>
    <component base="uni0926094D092C"/>
  </outline>
</glyph>
<glyph name="uni0926094D092C" format="1">
  <advance width="620"/>
  <note>
    dDBa
  </note>
  <outline>
    <contour>
      <point x="425" y="128" type="line"/>
      <point x="389" y="99"/>
      <point x="346" y="84"/>
      <point x="307" y="84" type="curve" smooth="yes"/>
      <point x="238" y="84"/>
      <point x="178" y="127"/>
      <point x="178" y="207" type="curve" smooth="yes"/>
      <point x="178" y="281"/>
      <point x="230" y="323"/>
      <point x="323" y="323" type="curve" smooth="yes"/>
      <point x="483" y="323" type="line"/>
      <point x="483" y="502" type="line"/>
      <point x="636" y="502" type="line"/>
      <point x="614" y="580" type="line"/>
      <point x="15" y="580" type="line"/>
      <point x="38" y="502" type="line"/>
      <point x="353" y="502" type="line"/>
      <point x="353" y="401" type="line"/>
      <point x="274" y="401" type="line" smooth="yes"/>
      <point x="152" y="401"/>
      <point x="59" y="362"/>
      <point x="59" y="251" type="curve" smooth="yes"/>
      <point x="59" y="112"/>
      <point x="202" y="6"/>
      <point x="336" y="6" type="curve" smooth="yes"/>
      <point x="374" y="6"/>
      <point x="411" y="14"/>
      <point x="445" y="29" type="curve"/>
    </contour>
    <contour>
      <point x="617" y="-144" type="line"/>
      <point x="472" y="41" type="line"/>
      <point x="492" y="50"/>
      <point x="525" y="73"/>
      <point x="525" y="118" type="curve" smooth="yes"/>
      <point x="525" y="161"/>
      <point x="495" y="186"/>
      <point x="459" y="186" type="curve" smooth="yes"/>
      <point x="422" y="186"/>
      <point x="384" y="161"/>
      <point x="384" y="98" type="curve" smooth="yes"/>
      <point x="384" y="42"/>
      <point x="440" y="-71"/>
      <point x="537" y="-208" type="curve"/>
    </contour>
    <contour>
      <point x="141" y="20" type="line"/>
      <point x="367" y="-110" type="line"/>
      <point x="380" y="-57" type="line"/>
      <point x="156" y="77" type="line"/>
    </contour>
    <contour>
      <point x="387" y="-54"/>
      <point x="306" y="-106"/>
      <point x="233" y="-106" type="curve" smooth="yes"/>
      <point x="180" y="-106"/>
      <point x="159" y="-77"/>
      <point x="159" y="-39" type="curve" smooth="yes"/>
      <point x="159" y="7"/>
      <point x="189" y="64"/>
      <point x="247" y="64" type="curve"/>
      <point x="154" y="142" type="line"/>
      <point x="94" y="104"/>
      <point x="66" y="56"/>
      <point x="66" y="8" type="curve" smooth="yes"/>
      <point x="66" y="-81"/>
      <point x="159" y="-167"/>
      <point x="282" y="-167" type="curve" smooth="yes"/>
      <point x="387" y="-167"/>
      <point x="443" y="-106"/>
      <point x="494" y="-44" type="curve"/>
      <point x="420" y="48" type="line"/>
    </contour>
    <contour>
      <point x="421" y="580" type="move" name="top"/>
    </contour>
    <contour>
      <point x="442" y="-184" type="move" name="bottom"/>
    </contour>
  </outline>
</glyph>
<glyph name="uni0926094D092D094D092F" format="1">
  <advance width="1361"/>
  <note>
    dDBhYa
  </note>
  <outline>
    <contour>
      <point x="1142" y="207" type="line"/>
      <point x="1080" y="118"/>
      <point x="939" y="71"/>
      <point x="882" y="147" type="curve"/>
      <point x="1024" y="175"/>
      <point x="1046" y="262"/>
      <point x="1015" y="327" type="curve" smooth="yes"/>
      <point x="981" y="399"/>
      <point x="877" y="401"/>
      <point x="764" y="401" type="curve" smooth="yes"/>
      <point x="537" y="401" type="line"/>
      <point x="566" y="323" type="line"/>
      <point x="794" y="323" type="line" smooth="yes"/>
      <point x="882" y="323"/>
      <point x="919" y="320"/>
      <point x="934" y="288" type="curve" smooth="yes"/>
      <point x="944" y="266"/>
      <point x="944" y="209"/>
      <point x="789" y="186" type="curve"/>
      <point x="856" y="11"/>
      <point x="996" y="-13"/>
      <point x="1145" y="68" type="curve"/>
    </contour>
    <contour>
      <point x="1126" y="0" type="line"/>
      <point x="1256" y="0" type="line"/>
      <point x="1256" y="502" type="line"/>
      <point x="1346" y="502" type="line"/>
      <point x="1324" y="580" type="line"/>
      <point x="667" y="580" type="line"/>
      <point x="690" y="502" type="line"/>
      <point x="1126" y="502" type="line"/>
    </contour>
    <component base="uni0926094D_bhadeva"/>
    <contour>
      <point x="1194" y="580" type="move" name="top"/>
    </contour>
    <contour>
      <point x="1187" y="0" type="move" name="bottom"/>
    </contour>
  </outline>
</glyph>
<glyph name="uni0926094D_bhadeva_uuvowelsign" format="1">
  <advance width="795"/>
  <outline>
    <contour>
      <point x="680" y="-295"/>
      <point x="607" y="-297"/>
      <point x="584" y="-248" type="curve" smooth="yes"/>
      <point x="558" y="-194"/>
      <point x="608" y="-146"/>
      <point x="675" y="-146" type="curve" smooth="yes"/>
      <point x="749" y="-146"/>
      <point x="800" y="-182"/>
      <point x="850" y="-240" type="curve"/>
      <point x="893" y="-205" type="line"/>
      <point x="833" y="-110"/>
      <point x="761" y="-56"/>
      <point x="681" y="-56" type="curve" smooth="yes"/>
      <point x="551" y="-56"/>
      <point x="477" y="-175"/>
      <point x="530" y="-276" type="curve" smooth="yes"/>
      <point x="559" y="-332"/>
      <point x="613" y="-367"/>
      <point x="680" y="-367" type="curve" smooth="yes"/>
      <point x="723" y="-367"/>
      <point x="766" y="-353"/>
      <point x="802" y="-326" type="curve"/>
      <point x="757" y="-246" type="line"/>
    </contour>
    <component base="uni0926094D_bhadeva"/>
    <contour>
      <point x="610" y="580" type="move" name="top"/>
    </contour>
  </outline>
</glyph>
<glyph name="uni0926094D0926094D092F" format="1">
  <advance width="1123"/>
  <note>
    dDDYa
  </note>
  <outline>
    <contour>
      <point x="691" y="294"/>
      <point x="611" y="271"/>
      <point x="510" y="260" type="curve"/>
      <point x="574" y="98"/>
      <point x="661" y="20"/>
      <point x="781" y="20" type="curve" smooth="yes"/>
      <point x="824" y="20"/>
      <point x="870" y="28"/>
      <point x="916" y="54" type="curve"/>
      <point x="933" y="54" type="line"/>
      <point x="933" y="252" type="line"/>
      <point x="916" y="252" type="line"/>
      <point x="887" y="187"/>
      <point x="809" y="141"/>
      <point x="739" y="141" type="curve" smooth="yes"/>
      <point x="696" y="141"/>
      <point x="672" y="144"/>
      <point x="638" y="161" type="curve"/>
      <point x="746" y="185"/>
      <point x="808" y="231"/>
      <point x="808" y="297" type="curve" smooth="yes"/>
      <point x="808" y="360"/>
      <point x="757" y="420"/>
      <point x="660" y="420" type="curve" smooth="yes"/>
      <point x="377" y="420" type="line"/>
      <point x="407" y="331" type="line"/>
      <point x="619" y="331" type="line" smooth="yes"/>
      <point x="642" y="331"/>
      <point x="687" y="329"/>
      <point x="689" y="311" type="curve" smooth="yes"/>
    </contour>
    <contour>
      <point x="466" y="580" type="line"/>
      <point x="492" y="487" type="line"/>
      <point x="916" y="487" type="line"/>
      <point x="916" y="-21" type="line"/>
      <point x="1061" y="-49" type="line"/>
      <point x="1061" y="487" type="line"/>
      <point x="1148" y="487" type="line"/>
      <point x="1125" y="580" type="line"/>
    </contour>
    <component base="uni0926094D_dadeva"/>
    <contour>
      <point x="989" y="580" type="move" name="top"/>
    </contour>
    <contour>
      <point x="989" y="0" type="move" name="bottom"/>
    </contour>
  </outline>
</glyph>
<glyph name="uni0926094D_dadeva_uuvowelsignd" format="1">
  <advance width="621"/>
  <outline>
    <contour>
      <point x="230" y="251"/>
      <point x="204" y="271"/>
      <point x="204" y="295" type="curve" smooth="yes"/>
      <point x="204" y="325"/>
      <point x="231" y="331"/>
      <point x="296" y="331" type="curve" smooth="yes"/>
      <point x="471" y="331" type="line"/>
      <point x="474" y="358"/>
      <point x="475" y="381"/>
      <point x="475" y="402" type="curve" smooth="yes"/>
      <point x="475" y="430"/>
      <point x="470" y="456"/>
      <point x="463" y="487" type="curve"/>
      <point x="646" y="487" type="line"/>
      <point x="624" y="580" type="line"/>
      <point x="-25" y="580" type="line"/>
      <point x="-1" y="487" type="line"/>
      <point x="329" y="487" type="line"/>
      <point x="330" y="479"/>
      <point x="330" y="472"/>
      <point x="330" y="464" type="curve" smooth="yes"/>
      <point x="330" y="452"/>
      <point x="328" y="439"/>
      <point x="324" y="423" type="curve"/>
      <point x="243" y="423" type="line" smooth="yes"/>
      <point x="103" y="423"/>
      <point x="53" y="397"/>
      <point x="53" y="340" type="curve" smooth="yes"/>
      <point x="53" y="296"/>
      <point x="98" y="236"/>
      <point x="253" y="208" type="curve"/>
      <point x="298" y="251" type="line"/>
    </contour>
    <contour>
      <point x="404" y="251" type="line"/>
      <point x="238" y="251" type="line" smooth="yes"/>
      <point x="95" y="251"/>
      <point x="35" y="193"/>
      <point x="35" y="127" type="curve" smooth="yes"/>
      <point x="35" y="40"/>
      <point x="154" y="-88"/>
      <point x="309" y="-88" type="curve" smooth="yes"/>
      <point x="351" y="-88"/>
      <point x="398" y="-82"/>
      <point x="438" y="-64" type="curve" smooth="yes"/>
      <point x="483" y="-44"/>
      <point x="533" y="-13"/>
      <point x="558" y="33" type="curve" smooth="yes"/>
      <point x="564" y="43"/>
      <point x="564" y="58"/>
      <point x="556" y="65" type="curve" smooth="yes"/>
      <point x="514" y="103"/>
      <point x="445" y="135"/>
      <point x="393" y="135" type="curve" smooth="yes"/>
      <point x="352" y="135"/>
      <point x="334" y="130"/>
      <point x="334" y="90" type="curve" smooth="yes"/>
      <point x="334" y="73"/>
      <point x="340" y="51"/>
      <point x="348" y="32" type="curve"/>
      <point x="319" y="10"/>
      <point x="281" y="-3"/>
      <point x="245" y="-3" type="curve" smooth="yes"/>
      <point x="229" y="-3"/>
      <point x="213" y="-1"/>
      <point x="209" y="3" type="curve" smooth="yes"/>
      <point x="198" y="14"/>
      <point x="186" y="49"/>
      <point x="186" y="88" type="curve" smooth="yes"/>
      <point x="186" y="124"/>
      <point x="187" y="167"/>
      <point x="293" y="168" type="curve" smooth="yes"/>
      <point x="427" y="168" type="line"/>
    </contour>
    <contour>
      <point x="380" y="-58"/>
      <point x="419" y="-139"/>
      <point x="487" y="-199" type="curve"/>
      <point x="570" y="-128" type="line"/>
      <point x="498" y="-86"/>
      <point x="453" y="-55"/>
      <point x="404" y="17" type="curve"/>
      <point x="353" y="18" type="line"/>
    </contour>
    <component base="uuvowelsigndeva" xOffset="372" yOffset="-125"/>
    <contour>
      <point x="396" y="580" type="move" name="top"/>
    </contour>
    <contour>
      <point x="430" y="-113" type="move" name="bottom"/>
    </contour>
  </outline>
</glyph>
<glyph name="uni0926094D0927094D092F" format="1">
  <advance width="1305"/>
  <note>
    dDDhYa
  </note>
  <outline>
    <component base="uni0926094D_dhadeva"/>
    <component base="uni092F.post" xOffset="641"/>
    <contour>
      <point x="1134" y="580" type="move" name="top"/>
    </contour>
    <contour>
      <point x="1133" y="0" type="move" name="bottom"/>
    </contour>
  </outline>
</glyph>
<glyph name="uni0926094D_dhadeva_uvowelsignd" format="1">
  <advance width="719"/>
  <outline>
    <contour>
      <point x="483" y="6"/>
      <point x="519" y="-96"/>
      <point x="602" y="-142" type="curve"/>
      <point x="682" y="-85" type="line"/>
      <point x="621" y="-46"/>
      <point x="548" y="8"/>
      <point x="510" y="96" type="curve"/>
      <point x="473" y="83" type="line"/>
    </contour>
    <contour>
      <point x="476" y="100" type="line"/>
      <point x="434" y="1"/>
      <point x="343" y="-107"/>
      <point x="267" y="-128" type="curve" smooth="yes"/>
      <point x="256" y="-131"/>
      <point x="240" y="-132"/>
      <point x="235" y="-129" type="curve" smooth="yes"/>
      <point x="226" y="-123"/>
      <point x="219" y="-113"/>
      <point x="219" y="-100" type="curve" smooth="yes"/>
      <point x="219" y="-71"/>
      <point x="246" y="-53"/>
      <point x="325" y="-30" type="curve"/>
      <point x="259" y="65" type="line"/>
      <point x="209" y="55"/>
      <point x="167" y="37"/>
      <point x="138" y="13" type="curve" smooth="yes"/>
      <point x="115" y="-6"/>
      <point x="100" y="-29"/>
      <point x="100" y="-64" type="curve" smooth="yes"/>
      <point x="100" y="-149"/>
      <point x="222" y="-207"/>
      <point x="338" y="-184" type="curve" smooth="yes"/>
      <point x="367" y="-179"/>
      <point x="478" y="-135"/>
      <point x="540" y="-11" type="curve"/>
    </contour>
    <contour>
      <point x="169" y="-23" type="line"/>
      <point x="107" y="-9"/>
      <point x="91" y="19"/>
      <point x="91" y="48" type="curve" smooth="yes"/>
      <point x="91" y="63"/>
      <point x="97" y="79"/>
      <point x="116" y="87" type="curve" smooth="yes"/>
      <point x="130" y="93"/>
      <point x="143" y="94"/>
      <point x="171" y="93" type="curve"/>
      <point x="115" y="153" type="line"/>
      <point x="99" y="160"/>
      <point x="81" y="164"/>
      <point x="59" y="164" type="curve" smooth="yes"/>
      <point x="29" y="164"/>
      <point x="-31" y="149"/>
      <point x="-31" y="81" type="curve" smooth="yes"/>
      <point x="-31" y="19"/>
      <point x="40" y="-32"/>
      <point x="170" y="-36" type="curve"/>
    </contour>
    <contour>
      <point x="295" y="138"/>
      <point x="284" y="178"/>
      <point x="284" y="229" type="curve" smooth="yes"/>
      <point x="284" y="277"/>
      <point x="294" y="316"/>
      <point x="394" y="316" type="curve" smooth="yes"/>
      <point x="589" y="316" type="line"/>
      <point x="591" y="337"/>
      <point x="593" y="357"/>
      <point x="594" y="379" type="curve" smooth="yes"/>
      <point x="594" y="409"/>
      <point x="590" y="443"/>
      <point x="581" y="487" type="curve"/>
      <point x="741" y="487" type="line"/>
      <point x="720" y="580" type="line"/>
      <point x="-26" y="580" type="line"/>
      <point x="-2" y="487" type="line"/>
      <point x="446" y="487" type="line"/>
      <point x="447" y="477"/>
      <point x="448" y="464"/>
      <point x="448" y="451" type="curve" smooth="yes"/>
      <point x="448" y="431"/>
      <point x="445" y="424"/>
      <point x="442" y="409" type="curve"/>
      <point x="336" y="409" type="line" smooth="yes"/>
      <point x="162" y="409"/>
      <point x="133" y="326"/>
      <point x="133" y="255" type="curve" smooth="yes"/>
      <point x="133" y="124"/>
      <point x="298" y="42"/>
      <point x="408" y="42" type="curve" smooth="yes"/>
      <point x="450" y="42"/>
      <point x="497" y="51"/>
      <point x="538" y="67" type="curve" smooth="yes"/>
      <point x="587" y="86"/>
      <point x="632" y="125"/>
      <point x="653" y="153" type="curve" smooth="yes"/>
      <point x="660" y="163"/>
      <point x="661" y="180"/>
      <point x="654" y="189" type="curve" smooth="yes"/>
      <point x="612" y="236"/>
      <point x="543" y="258"/>
      <point x="491" y="258" type="curve" smooth="yes"/>
      <point x="450" y="258"/>
      <point x="433" y="244"/>
      <point x="433" y="204" type="curve" smooth="yes"/>
      <point x="433" y="187"/>
      <point x="438" y="167"/>
      <point x="446" y="148" type="curve"/>
      <point x="413" y="128"/>
      <point x="368" y="121"/>
      <point x="343" y="121" type="curve" smooth="yes"/>
      <point x="327" y="121"/>
      <point x="311" y="122"/>
      <point x="307" y="126" type="curve" smooth="yes"/>
    </contour>
    <contour>
      <point x="623" y="-174"/>
      <point x="655" y="-167"/>
      <point x="682" y="-167" type="curve" smooth="yes"/>
      <point x="702" y="-167"/>
      <point x="717" y="-173"/>
      <point x="722" y="-179" type="curve" smooth="yes"/>
      <point x="725" y="-182"/>
      <point x="727" y="-190"/>
      <point x="727" y="-202" type="curve" smooth="yes"/>
      <point x="727" y="-235"/>
      <point x="696" y="-276"/>
      <point x="628" y="-276" type="curve" smooth="yes"/>
      <point x="560" y="-276"/>
      <point x="519" y="-236"/>
      <point x="486" y="-203" type="curve"/>
      <point x="442" y="-237" type="line"/>
      <point x="465" y="-273"/>
      <point x="543" y="-371"/>
      <point x="655" y="-371" type="curve" smooth="yes"/>
      <point x="750" y="-371"/>
      <point x="810" y="-315"/>
      <point x="810" y="-244" type="curve" smooth="yes"/>
      <point x="810" y="-176"/>
      <point x="728" y="-75"/>
      <point x="630" y="-75" type="curve" smooth="yes"/>
      <point x="589" y="-75"/>
      <point x="554" y="-90"/>
      <point x="503" y="-128" type="curve"/>
      <point x="577" y="-212" type="line"/>
    </contour>
    <contour>
      <point x="514" y="580" type="move" name="top"/>
    </contour>
    <contour>
      <point x="549" y="-53" type="move" name="bottom"/>
    </contour>
  </outline>
</glyph>
<glyph name="uni0926094D0917094D_radeva" format="1">
  <advance width="621"/>
  <note>
    dDGRa
  </note>
  <outline>
    <contour>
      <point x="315" y="-154" type="line"/>
      <point x="361" y="-221" type="line"/>
      <point x="517" y="-90" type="line"/>
      <point x="470" y="-32" type="line"/>
    </contour>
    <component base="uni0926094D_gadeva"/>
  </outline>
</glyph>
<glyph name="uni0926094D_gadeva_uvowelsignde" format="1">
  <advance width="621"/>
  <outline>
    <contour>
      <point x="433" y="128" type="line"/>
      <point x="366" y="113" type="line"/>
      <point x="454" y="-71" type="line"/>
      <point x="564" y="-85" type="line"/>
    </contour>
    <contour>
      <point x="416.759" y="65"/>
      <point x="550" y="104.642"/>
      <point x="550" y="199" type="curve" smooth="yes"/>
      <point x="550" y="249.646"/>
      <point x="519" y="283"/>
      <point x="463" y="283" type="curve" smooth="yes"/>
      <point x="413" y="283"/>
      <point x="368.108" y="245.916"/>
      <point x="381.524" y="169.93" type="curve"/>
      <point x="358" y="158"/>
      <point x="334.309" y="152"/>
      <point x="306" y="152" type="curve"/>
      <point x="242.976" y="152"/>
      <point x="195" y="196.646"/>
      <point x="195" y="251" type="curve" smooth="yes"/>
      <point x="195" y="309.371"/>
      <point x="237" y="363"/>
      <point x="310" y="363" type="curve"/>
      <point x="463" y="363" type="line"/>
      <point x="464" y="502" type="line"/>
      <point x="606" y="502" type="line"/>
      <point x="584" y="580" type="line"/>
      <point x="15" y="580" type="line"/>
      <point x="38" y="502" type="line"/>
      <point x="353" y="502" type="line"/>
      <point x="353" y="441" type="line"/>
      <point x="291" y="441" type="line" smooth="yes"/>
      <point x="186" y="441"/>
      <point x="94" y="399.609"/>
      <point x="94" y="289" type="curve" smooth="yes"/>
      <point x="94" y="181.608"/>
      <point x="192.081" y="65"/>
      <point x="344" y="65" type="curve" smooth="yes"/>
    </contour>
    <contour>
      <point x="213" y="150" type="line"/>
      <point x="227" y="18" type="line"/>
      <point x="164" y="19"/>
      <point x="132" y="-2"/>
      <point x="132" y="-44" type="curve"/>
      <point x="133" y="-99"/>
      <point x="198" y="-140"/>
      <point x="248" y="-145" type="curve"/>
      <point x="339" y="-152"/>
      <point x="314" y="25"/>
      <point x="293" y="132" type="curve"/>
    </contour>
    <component base="uvowelsigndeva" xOffset="410" yOffset="-50"/>
    <contour>
      <point x="419" y="580" type="move" name="top"/>
    </contour>
    <contour>
      <point x="480" y="-54" type="move" name="bottom"/>
    </contour>
  </outline>
</glyph>
<glyph name="uni0926094D_ghadeva_uvowelsignd" format="1">
  <advance width="737"/>
  <outline>
    <component base="uni0926094D_ghadeva"/>
    <component base="uvowelsigndeva" xOffset="562" yOffset="-47"/>
    <contour>
      <point x="488" y="580" type="move" name="top"/>
    </contour>
    <contour>
      <point x="610" y="-104" type="move" name="bottom"/>
    </contour>
  </outline>
</glyph>
<glyph name="uni0926094D_ghadeva_uuvowelsign" format="1">
  <advance width="795"/>
  <outline>
    <component base="uni0926094D_ghadeva"/>
    <component base="uuvowelsigndeva" xOffset="562" yOffset="-47"/>
    <contour>
      <point x="452" y="580" type="move" name="top"/>
    </contour>
  </outline>
</glyph>
<glyph name="uni0926094D0930094D092F" format="1">
  <advance width="690"/>
  <note>
    dDRYa
  </note>
  <outline>
    <contour>
      <point x="219" y="-71" type="line"/>
      <point x="317" y="-159" type="line"/>
      <point x="499" y="46" type="line"/>
      <point x="446" y="100" type="line"/>
    </contour>
    <component base="uni0926094D092F"/>
  </outline>
</glyph>
<glyph name="uni0926094D_radeva" format="1">
  <advance width="606"/>
  <note>
    dDRa
  </note>
  <outline>
    <contour>
      <point x="104" y="-98" type="line"/>
      <point x="182" y="-173" type="line"/>
      <point x="442" y="39" type="line"/>
      <point x="389" y="99" type="line"/>
    </contour>
    <component base="dadeva"/>
    <contour>
      <point x="358" y="-131" type="move" name="bottom"/>
    </contour>
  </outline>
</glyph>
<glyph name="uni0926094D092F" format="1">
  <advance width="690"/>
  <note>
    dDYa
  </note>
  <outline>
    <contour>
      <point x="377" y="333" type="line" smooth="yes"/>
      <point x="391" y="333"/>
      <point x="392" y="347"/>
      <point x="391" y="370" type="curve" smooth="yes"/>
      <point x="390" y="400"/>
      <point x="386" y="454"/>
      <point x="378" y="487" type="curve"/>
      <point x="715" y="487" type="line"/>
      <point x="693" y="580" type="line"/>
      <point x="-25" y="580" type="line"/>
      <point x="-1" y="487" type="line"/>
      <point x="247" y="487" type="line"/>
      <point x="249" y="474"/>
      <point x="250" y="461"/>
      <point x="250" y="449" type="curve" smooth="yes"/>
      <point x="250" y="439"/>
      <point x="249" y="435"/>
      <point x="248" y="426" type="curve"/>
      <point x="164" y="426" type="line" smooth="yes"/>
      <point x="93" y="426"/>
      <point x="32" y="408"/>
      <point x="32" y="343" type="curve" smooth="yes"/>
      <point x="32" y="295"/>
      <point x="88" y="247"/>
      <point x="183" y="224" type="curve"/>
      <point x="244" y="268" type="line"/>
      <point x="176" y="259"/>
      <point x="163" y="281"/>
      <point x="163" y="300" type="curve" smooth="yes"/>
      <point x="163" y="330"/>
      <point x="193" y="333"/>
      <point x="237" y="333" type="curve"/>
    </contour>
    <contour>
      <point x="484" y="-21" type="line"/>
      <point x="629" y="-48" type="line"/>
      <point x="629" y="497" type="line"/>
      <point x="484" y="497" type="line"/>
    </contour>
    <contour>
      <point x="177" y="274"/>
      <point x="69" y="242"/>
      <point x="69" y="153" type="curve" smooth="yes"/>
      <point x="69" y="27"/>
      <point x="253" y="-27"/>
      <point x="317" y="-26" type="curve" smooth="yes"/>
      <point x="377" y="-26"/>
      <point x="430" y="-11"/>
      <point x="491" y="31" type="curve"/>
      <point x="491" y="253" type="line"/>
      <point x="455" y="171"/>
      <point x="366" y="73"/>
      <point x="266" y="73" type="curve" smooth="yes"/>
      <point x="243" y="73"/>
      <point x="217" y="74"/>
      <point x="212" y="79" type="curve" smooth="yes"/>
      <point x="207" y="84"/>
      <point x="200" y="96"/>
      <point x="200" y="112" type="curve" smooth="yes"/>
      <point x="200" y="143"/>
      <point x="233" y="169"/>
      <point x="367" y="169" type="curve"/>
      <point x="331" y="271" type="line"/>
    </contour>
    <contour>
      <point x="557" y="580" type="move" name="top"/>
    </contour>
    <contour>
      <point x="557" y="0" type="move" name="bottom"/>
    </contour>
  </outline>
</glyph>
<glyph name="dadeva_uvowelsigndeva" format="1">
  <advance width="621"/>
  <note>
    dDMatraU
  </note>
  <outline>
    <contour>
      <point x="453.303" y="148.249" type="line"/>
      <point x="376.473" y="133.185" type="line"/>
      <point x="394.167" y="-30.781" type="line"/>
      <point x="504.17" y="-75.068" type="line"/>
    </contour>
    <contour>
      <point x="416.759" y="65"/>
      <point x="550" y="104.642"/>
      <point x="550" y="199" type="curve" smooth="yes"/>
      <point x="550" y="249.646"/>
      <point x="519" y="283"/>
      <point x="463" y="283" type="curve" smooth="yes"/>
      <point x="413" y="283"/>
      <point x="368.108" y="245.916"/>
      <point x="381.524" y="169.93" type="curve"/>
      <point x="357.825" y="158.244"/>
      <point x="334.309" y="152"/>
      <point x="306" y="152" type="curve"/>
      <point x="242.976" y="152"/>
      <point x="195" y="196.646"/>
      <point x="195" y="251" type="curve" smooth="yes"/>
      <point x="195" y="309.371"/>
      <point x="237" y="363"/>
      <point x="310" y="363" type="curve"/>
      <point x="463" y="363" type="line"/>
      <point x="464" y="502" type="line"/>
      <point x="606" y="502" type="line"/>
      <point x="584" y="580" type="line"/>
      <point x="15" y="580" type="line"/>
      <point x="38" y="502" type="line"/>
      <point x="353" y="502" type="line"/>
      <point x="353" y="441" type="line"/>
      <point x="291" y="441" type="line" smooth="yes"/>
      <point x="186" y="441"/>
      <point x="94" y="399.609"/>
      <point x="94" y="289" type="curve" smooth="yes"/>
      <point x="94" y="181.608"/>
      <point x="192.081" y="65"/>
      <point x="344" y="65" type="curve" smooth="yes"/>
    </contour>
    <component base="uvowelsigndeva" xOffset="290"/>
    <contour>
      <point x="419" y="580" type="move" name="top"/>
    </contour>
  </outline>
</glyph>
<glyph name="uni0921094D_ddadeva" format="1">
  <advance width="597"/>
  <note>
    dDdDda
  </note>
  <outline>
    <contour>
      <point x="345" y="391" type="line"/>
      <point x="475" y="391" type="line"/>
      <point x="475" y="502" type="line"/>
      <point x="606" y="502" type="line"/>
      <point x="584" y="580" type="line"/>
      <point x="15" y="580" type="line"/>
      <point x="38" y="502" type="line"/>
      <point x="345" y="502" type="line"/>
    </contour>
    <contour>
      <point x="66" y="231" type="line"/>
      <point x="119" y="156"/>
      <point x="205" y="79"/>
      <point x="335" y="80" type="curve" smooth="yes"/>
      <point x="464" y="81"/>
      <point x="528" y="147"/>
      <point x="510" y="234" type="curve" smooth="yes"/>
      <point x="499" y="290"/>
      <point x="454" y="345"/>
      <point x="383" y="345" type="curve" smooth="yes"/>
      <point x="310" y="345"/>
      <point x="267" y="312"/>
      <point x="233" y="312" type="curve" smooth="yes"/>
      <point x="216" y="312"/>
      <point x="202" y="322"/>
      <point x="202" y="343" type="curve" smooth="yes"/>
      <point x="202" y="373"/>
      <point x="224" y="391"/>
      <point x="272" y="391" type="curve" smooth="yes"/>
      <point x="403" y="391" type="line"/>
      <point x="389" y="472" type="line"/>
      <point x="230" y="472" type="line" smooth="yes"/>
      <point x="166" y="472"/>
      <point x="102" y="429"/>
      <point x="112" y="353" type="curve" smooth="yes"/>
      <point x="121" y="288"/>
      <point x="197" y="233"/>
      <point x="264" y="233" type="curve" smooth="yes"/>
      <point x="313" y="233"/>
      <point x="370" y="257"/>
      <point x="408" y="256" type="curve" smooth="yes"/>
      <point x="429" y="256"/>
      <point x="439" y="240"/>
      <point x="439" y="220" type="curve" smooth="yes"/>
      <point x="439" y="187"/>
      <point x="400" y="168"/>
      <point x="309" y="169" type="curve" smooth="yes"/>
      <point x="247" y="168"/>
      <point x="179" y="191"/>
      <point x="111" y="257" type="curve"/>
    </contour>
    <contour>
      <point x="345" y="-29" type="line"/>
      <point x="455" y="-29" type="line"/>
      <point x="455" y="122" type="line"/>
      <point x="345" y="122" type="line"/>
    </contour>
    <contour>
      <point x="66" y="-189" type="line"/>
      <point x="119" y="-264"/>
      <point x="205" y="-341"/>
      <point x="335" y="-340" type="curve" smooth="yes"/>
      <point x="464" y="-339"/>
      <point x="528" y="-273"/>
      <point x="510" y="-186" type="curve" smooth="yes"/>
      <point x="499" y="-130"/>
      <point x="454" y="-75"/>
      <point x="383" y="-75" type="curve" smooth="yes"/>
      <point x="310" y="-75"/>
      <point x="267" y="-108"/>
      <point x="233" y="-108" type="curve" smooth="yes"/>
      <point x="216" y="-108"/>
      <point x="202" y="-98"/>
      <point x="202" y="-77" type="curve" smooth="yes"/>
      <point x="202" y="-47"/>
      <point x="224" y="-29"/>
      <point x="272" y="-29" type="curve" smooth="yes"/>
      <point x="403" y="-29" type="line"/>
      <point x="389" y="52" type="line"/>
      <point x="230" y="52" type="line" smooth="yes"/>
      <point x="166" y="52"/>
      <point x="102" y="9"/>
      <point x="112" y="-67" type="curve" smooth="yes"/>
      <point x="121" y="-132"/>
      <point x="197" y="-187"/>
      <point x="264" y="-187" type="curve" smooth="yes"/>
      <point x="313" y="-187"/>
      <point x="370" y="-163"/>
      <point x="408" y="-164" type="curve" smooth="yes"/>
      <point x="429" y="-164"/>
      <point x="439" y="-180"/>
      <point x="439" y="-200" type="curve" smooth="yes"/>
      <point x="439" y="-233"/>
      <point x="400" y="-252"/>
      <point x="309" y="-251" type="curve" smooth="yes"/>
      <point x="247" y="-252"/>
      <point x="179" y="-229"/>
      <point x="111" y="-163" type="curve"/>
    </contour>
    <contour>
      <point x="412" y="580" type="move" name="top"/>
    </contour>
    <contour>
      <point x="406" y="-317" type="move" name="bottom"/>
    </contour>
  </outline>
</glyph>
<glyph name="uni0921094D_madeva" format="1">
  <advance width="1105"/>
  <note>
    dDdMa
  </note>
  <outline>
    <contour>
      <point x="876" y="0" type="line"/>
      <point x="1007" y="0" type="line"/>
      <point x="1007" y="502" type="line"/>
      <point x="1090" y="502" type="line"/>
      <point x="1068" y="580" type="line"/>
      <point x="761" y="580" type="line"/>
      <point x="784" y="502" type="line"/>
      <point x="876" y="502" type="line"/>
    </contour>
    <contour>
      <point x="645" y="195" type="line"/>
      <point x="951" y="195" type="line"/>
      <point x="951" y="273" type="line"/>
      <point x="668" y="273" type="line"/>
    </contour>
    <contour>
      <point x="472" y="439" type="line"/>
      <point x="473" y="361" type="line"/>
      <point x="574" y="361" type="line" smooth="yes"/>
      <point x="663" y="361"/>
      <point x="665" y="300"/>
      <point x="645" y="195" type="curve"/>
      <point x="771" y="212" type="line"/>
      <point x="772" y="320"/>
      <point x="708" y="439"/>
      <point x="571" y="439" type="curve" smooth="yes"/>
    </contour>
    <component base="ddadeva"/>
    <component base="deva_knot" xOffset="552" yOffset="-54"/>
    <contour>
      <point x="952" y="580" type="move" name="top"/>
    </contour>
    <contour>
      <point x="942" y="0" type="move" name="bottom"/>
    </contour>
  </outline>
</glyph>
<glyph name="uni0921094D_ttadeva" format="1">
  <advance width="595"/>
  <note>
    dDdTta
  </note>
  <outline>
    <contour>
      <point x="345" y="381" type="line"/>
      <point x="475" y="381" type="line"/>
      <point x="475" y="502" type="line"/>
      <point x="606" y="502" type="line"/>
      <point x="584" y="580" type="line"/>
      <point x="15" y="580" type="line"/>
      <point x="38" y="502" type="line"/>
      <point x="345" y="502" type="line"/>
    </contour>
    <contour>
      <point x="66" y="221" type="line"/>
      <point x="119" y="146"/>
      <point x="205" y="69"/>
      <point x="335" y="70" type="curve" smooth="yes"/>
      <point x="464" y="71"/>
      <point x="528" y="137"/>
      <point x="510" y="224" type="curve" smooth="yes"/>
      <point x="499" y="280"/>
      <point x="454" y="335"/>
      <point x="383" y="335" type="curve" smooth="yes"/>
      <point x="310" y="335"/>
      <point x="267" y="302"/>
      <point x="233" y="302" type="curve" smooth="yes"/>
      <point x="216" y="302"/>
      <point x="202" y="312"/>
      <point x="202" y="333" type="curve" smooth="yes"/>
      <point x="202" y="363"/>
      <point x="224" y="381"/>
      <point x="272" y="381" type="curve" smooth="yes"/>
      <point x="403" y="381" type="line"/>
      <point x="389" y="462" type="line"/>
      <point x="230" y="462" type="line" smooth="yes"/>
      <point x="166" y="462"/>
      <point x="102" y="419"/>
      <point x="112" y="343" type="curve" smooth="yes"/>
      <point x="121" y="278"/>
      <point x="197" y="223"/>
      <point x="264" y="223" type="curve" smooth="yes"/>
      <point x="313" y="223"/>
      <point x="370" y="247"/>
      <point x="408" y="246" type="curve" smooth="yes"/>
      <point x="429" y="246"/>
      <point x="439" y="230"/>
      <point x="439" y="210" type="curve" smooth="yes"/>
      <point x="439" y="177"/>
      <point x="400" y="158"/>
      <point x="309" y="159" type="curve" smooth="yes"/>
      <point x="247" y="158"/>
      <point x="179" y="181"/>
      <point x="111" y="247" type="curve"/>
    </contour>
    <contour>
      <point x="388" y="-188"/>
      <point x="323" y="-217"/>
      <point x="270" y="-217" type="curve" smooth="yes"/>
      <point x="213" y="-217"/>
      <point x="169" y="-181"/>
      <point x="169" y="-129" type="curve" smooth="yes"/>
      <point x="169" y="-80"/>
      <point x="218" y="-34"/>
      <point x="310" y="-34" type="curve" smooth="yes"/>
      <point x="428" y="-34" type="line"/>
      <point x="428" y="129" type="line"/>
      <point x="318" y="129" type="line"/>
      <point x="318" y="37" type="line"/>
      <point x="253" y="37" type="line" smooth="yes"/>
      <point x="123" y="37"/>
      <point x="67" y="-26"/>
      <point x="67" y="-98" type="curve" smooth="yes"/>
      <point x="67" y="-209"/>
      <point x="171" y="-288"/>
      <point x="295" y="-288" type="curve" smooth="yes"/>
      <point x="377" y="-288"/>
      <point x="463" y="-257"/>
      <point x="512" y="-199" type="curve"/>
      <point x="433" y="-126" type="line"/>
    </contour>
    <contour>
      <point x="411" y="580" type="move" name="top"/>
    </contour>
    <contour>
      <point x="244" y="-274" type="move" name="bottom"/>
    </contour>
  </outline>
</glyph>
<glyph name="uni0921094D092F" format="1">
  <advance width="1122"/>
  <note>
    dDdYa
  </note>
  <outline>
    <contour>
      <point x="903" y="237" type="line"/>
      <point x="841" y="148"/>
      <point x="700" y="111"/>
      <point x="643" y="187" type="curve"/>
      <point x="785" y="215"/>
      <point x="807" y="301"/>
      <point x="776" y="366" type="curve" smooth="yes"/>
      <point x="742" y="438"/>
      <point x="638" y="439"/>
      <point x="525" y="439" type="curve" smooth="yes"/>
      <point x="298" y="439" type="line"/>
      <point x="327" y="361" type="line"/>
      <point x="555" y="361" type="line" smooth="yes"/>
      <point x="643" y="361"/>
      <point x="680" y="359"/>
      <point x="695" y="327" type="curve" smooth="yes"/>
      <point x="705" y="305"/>
      <point x="705" y="249"/>
      <point x="550" y="226" type="curve"/>
      <point x="617" y="51"/>
      <point x="757" y="17"/>
      <point x="906" y="98" type="curve"/>
    </contour>
    <contour>
      <point x="887" y="0" type="line"/>
      <point x="1017" y="0" type="line"/>
      <point x="1017" y="502" type="line"/>
      <point x="1107" y="502" type="line"/>
      <point x="1085" y="580" type="line"/>
      <point x="428" y="580" type="line"/>
      <point x="451" y="502" type="line"/>
      <point x="887" y="502" type="line"/>
    </contour>
    <component base="ddadeva"/>
    <contour>
      <point x="975" y="580" type="move" name="top"/>
    </contour>
    <contour>
      <point x="975" y="0" type="move" name="bottom"/>
    </contour>
  </outline>
</glyph>
<glyph name="uni0922094D0922094D092F" format="1">
  <advance width="1121"/>
  <note>
    dDdhDdhYa
  </note>
  <outline>
    <contour>
      <point x="902" y="237" type="line"/>
      <point x="840" y="148"/>
      <point x="699" y="131"/>
      <point x="642" y="207" type="curve"/>
      <point x="784" y="235"/>
      <point x="806" y="321"/>
      <point x="779" y="378" type="curve" smooth="yes"/>
      <point x="752" y="434"/>
      <point x="687" y="451"/>
      <point x="574" y="451" type="curve" smooth="yes"/>
      <point x="297" y="451" type="line"/>
      <point x="326" y="381" type="line"/>
      <point x="554" y="381" type="line" smooth="yes"/>
      <point x="642" y="381"/>
      <point x="679" y="379"/>
      <point x="694" y="347" type="curve" smooth="yes"/>
      <point x="704" y="325"/>
      <point x="704" y="269"/>
      <point x="549" y="246" type="curve"/>
      <point x="616" y="71"/>
      <point x="756" y="17"/>
      <point x="905" y="98" type="curve"/>
    </contour>
    <contour>
      <point x="886" y="0" type="line"/>
      <point x="1016" y="0" type="line"/>
      <point x="1016" y="502" type="line"/>
      <point x="1106" y="502" type="line"/>
      <point x="1084" y="580" type="line"/>
      <point x="427" y="580" type="line"/>
      <point x="450" y="502" type="line"/>
      <point x="886" y="502" type="line"/>
    </contour>
    <component base="uni0922094D_ddhadeva"/>
    <contour>
      <point x="982" y="580" type="move" name="top"/>
    </contour>
    <contour>
      <point x="982" y="0" type="move" name="bottom"/>
    </contour>
  </outline>
</glyph>
<glyph name="uni0922094D_ddhadeva" format="1">
  <advance width="621"/>
  <note>
    dDdhDdha
  </note>
  <outline>
    <contour>
      <point x="375" y="381" type="line"/>
      <point x="485" y="381" type="line"/>
      <point x="485" y="502" type="line"/>
      <point x="596" y="502" type="line"/>
      <point x="574" y="580" type="line"/>
      <point x="5" y="580" type="line"/>
      <point x="28" y="502" type="line"/>
      <point x="375" y="502" type="line"/>
    </contour>
    <contour>
      <point x="458" y="-14" type="line"/>
      <point x="458" y="129" type="line"/>
      <point x="348" y="129" type="line"/>
      <point x="348" y="37" type="line"/>
    </contour>
    <contour>
      <point x="406" y="-247" type="line"/>
      <point x="367" y="-232"/>
      <point x="344" y="-202"/>
      <point x="344" y="-161" type="curve" smooth="yes"/>
      <point x="344" y="-121"/>
      <point x="370" y="-102"/>
      <point x="398" y="-102" type="curve" smooth="yes"/>
      <point x="424" y="-102"/>
      <point x="451" y="-121"/>
      <point x="451" y="-159" type="curve" smooth="yes"/>
      <point x="451" y="-201"/>
      <point x="407" y="-225"/>
      <point x="327" y="-225" type="curve" smooth="yes"/>
      <point x="235" y="-225"/>
      <point x="183" y="-159"/>
      <point x="183" y="-101" type="curve" smooth="yes"/>
      <point x="183" y="-54"/>
      <point x="216" y="-14"/>
      <point x="288" y="-14" type="curve" smooth="yes"/>
      <point x="458" y="-14" type="line"/>
      <point x="382" y="56" type="line"/>
      <point x="272" y="56" type="line" smooth="yes"/>
      <point x="138" y="56"/>
      <point x="76" y="-2"/>
      <point x="76" y="-74" type="curve" smooth="yes"/>
      <point x="76" y="-170"/>
      <point x="184" y="-287"/>
      <point x="366" y="-285" type="curve" smooth="yes"/>
      <point x="460" y="-284"/>
      <point x="518" y="-240"/>
      <point x="518" y="-182" type="curve" smooth="yes"/>
      <point x="518" y="-107"/>
      <point x="445" y="-50"/>
      <point x="363" y="-50" type="curve" smooth="yes"/>
      <point x="299" y="-50"/>
      <point x="259" y="-88"/>
      <point x="259" y="-140" type="curve" smooth="yes"/>
      <point x="259" y="-183"/>
      <point x="297" y="-231"/>
      <point x="353" y="-257" type="curve"/>
    </contour>
    <contour>
      <point x="406" y="148" type="line"/>
      <point x="367" y="163"/>
      <point x="344" y="193"/>
      <point x="344" y="234" type="curve" smooth="yes"/>
      <point x="344" y="274"/>
      <point x="370" y="293"/>
      <point x="398" y="293" type="curve" smooth="yes"/>
      <point x="424" y="293"/>
      <point x="451" y="274"/>
      <point x="451" y="236" type="curve" smooth="yes"/>
      <point x="451" y="194"/>
      <point x="407" y="170"/>
      <point x="327" y="170" type="curve" smooth="yes"/>
      <point x="235" y="170"/>
      <point x="183" y="236"/>
      <point x="183" y="294" type="curve" smooth="yes"/>
      <point x="183" y="341"/>
      <point x="216" y="381"/>
      <point x="288" y="381" type="curve" smooth="yes"/>
      <point x="458" y="381" type="line"/>
      <point x="382" y="451" type="line"/>
      <point x="272" y="451" type="line" smooth="yes"/>
      <point x="138" y="451"/>
      <point x="76" y="393"/>
      <point x="76" y="321" type="curve" smooth="yes"/>
      <point x="76" y="225"/>
      <point x="184" y="108"/>
      <point x="366" y="110" type="curve" smooth="yes"/>
      <point x="460" y="111"/>
      <point x="518" y="155"/>
      <point x="518" y="213" type="curve" smooth="yes"/>
      <point x="518" y="288"/>
      <point x="445" y="345"/>
      <point x="363" y="345" type="curve" smooth="yes"/>
      <point x="299" y="345"/>
      <point x="259" y="307"/>
      <point x="259" y="255" type="curve" smooth="yes"/>
      <point x="259" y="212"/>
      <point x="297" y="164"/>
      <point x="353" y="138" type="curve"/>
    </contour>
    <contour>
      <point x="434" y="580" type="move" name="top"/>
    </contour>
    <contour>
      <point x="376" y="-271" type="move" name="bottom"/>
    </contour>
  </outline>
</glyph>
<glyph name="uni0922094D_nadeva" format="1">
  <advance width="621"/>
  <note>
    dDdhNa
  </note>
  <outline>
    <contour>
      <point x="345" y="381" type="line"/>
      <point x="455" y="381" type="line"/>
      <point x="455" y="502" type="line"/>
      <point x="606" y="502" type="line"/>
      <point x="584" y="580" type="line"/>
      <point x="15" y="580" type="line"/>
      <point x="38" y="502" type="line"/>
      <point x="345" y="502" type="line"/>
    </contour>
    <contour>
      <point x="406" y="148" type="line"/>
      <point x="367" y="163"/>
      <point x="344" y="193"/>
      <point x="344" y="234" type="curve" smooth="yes"/>
      <point x="344" y="274"/>
      <point x="370" y="293"/>
      <point x="398" y="293" type="curve" smooth="yes"/>
      <point x="424" y="293"/>
      <point x="451" y="274"/>
      <point x="451" y="236" type="curve" smooth="yes"/>
      <point x="451" y="194"/>
      <point x="407" y="170"/>
      <point x="327" y="170" type="curve" smooth="yes"/>
      <point x="241" y="170"/>
      <point x="193" y="236"/>
      <point x="193" y="294" type="curve" smooth="yes"/>
      <point x="193" y="341"/>
      <point x="223" y="381"/>
      <point x="288" y="381" type="curve" smooth="yes"/>
      <point x="458" y="381" type="line"/>
      <point x="382" y="451" type="line"/>
      <point x="272" y="451" type="line" smooth="yes"/>
      <point x="145" y="451"/>
      <point x="86" y="393"/>
      <point x="86" y="321" type="curve" smooth="yes"/>
      <point x="86" y="225"/>
      <point x="190" y="108"/>
      <point x="366" y="110" type="curve" smooth="yes"/>
      <point x="460" y="111"/>
      <point x="518" y="155"/>
      <point x="518" y="213" type="curve" smooth="yes"/>
      <point x="518" y="288"/>
      <point x="446" y="345"/>
      <point x="364" y="345" type="curve" smooth="yes"/>
      <point x="303" y="345"/>
      <point x="262" y="307"/>
      <point x="262" y="255" type="curve" smooth="yes"/>
      <point x="262" y="212"/>
      <point x="300" y="164"/>
      <point x="356" y="138" type="curve"/>
    </contour>
    <contour>
      <point x="136" y="-16" type="line"/>
      <point x="137" y="-97" type="line"/>
      <point x="363" y="-97" type="line"/>
      <point x="363" y="-16" type="line"/>
    </contour>
    <contour>
      <point x="299" y="129" type="line"/>
      <point x="299" y="-255" type="line"/>
      <point x="409" y="-255" type="line"/>
      <point x="409" y="147" type="line"/>
    </contour>
    <component base="deva_knot" xOffset="15" yOffset="-313" xScale="0.93" yScale="0.91"/>
    <contour>
      <point x="399" y="580" type="move" name="top"/>
    </contour>
    <contour>
      <point x="354" y="-271" type="move" name="bottom"/>
    </contour>
  </outline>
</glyph>
<glyph name="deva_knot" format="1">
  <advance width="293"/>
  <outline>
    <contour>
      <point x="199" y="133"/>
      <point x="219" y="151"/>
      <point x="219" y="194" type="curve" smooth="yes"/>
      <point x="219" y="284" type="line"/>
      <point x="155" y="327" type="line"/>
      <point x="81" y="327" type="line" smooth="yes"/>
      <point x="41" y="327"/>
      <point x="21" y="309"/>
      <point x="21" y="274" type="curve" smooth="yes"/>
      <point x="21" y="217"/>
      <point x="89" y="133"/>
      <point x="164" y="133" type="curve" smooth="yes"/>
    </contour>
  </outline>
</glyph>
<glyph name="uni0927094D" format="1">
  <advance width="497"/>
  <outline>
    <contour>
      <point x="107" y="603"/>
      <point x="55" y="539"/>
      <point x="55" y="469" type="curve" smooth="yes"/>
      <point x="55" y="400"/>
      <point x="106" y="326"/>
      <point x="226" y="287" type="curve"/>
      <point x="255" y="318" type="line"/>
      <point x="182" y="331"/>
      <point x="148" y="393"/>
      <point x="148" y="449" type="curve" smooth="yes"/>
      <point x="148" y="500"/>
      <point x="177" y="547"/>
      <point x="230" y="547" type="curve" smooth="yes"/>
      <point x="279" y="547"/>
      <point x="278" y="486"/>
      <point x="237" y="456" type="curve"/>
      <point x="303" y="411" type="line"/>
      <point x="325" y="430"/>
      <point x="337" y="457"/>
      <point x="337" y="485" type="curve" smooth="yes"/>
      <point x="337" y="542"/>
      <point x="291" y="603"/>
      <point x="200" y="603" type="curve" smooth="yes"/>
    </contour>
    <contour>
      <point x="485" y="262" type="line"/>
      <point x="460" y="164"/>
      <point x="353" y="111"/>
      <point x="280" y="111" type="curve" smooth="yes"/>
      <point x="223" y="111"/>
      <point x="192" y="143"/>
      <point x="192" y="185" type="curve" smooth="yes"/>
      <point x="192" y="241"/>
      <point x="246" y="292"/>
      <point x="363" y="295" type="curve"/>
      <point x="341" y="383" type="line"/>
      <point x="190" y="366"/>
      <point x="111" y="306"/>
      <point x="111" y="214" type="curve" smooth="yes"/>
      <point x="111" y="103"/>
      <point x="230" y="31"/>
      <point x="344" y="33" type="curve" smooth="yes"/>
      <point x="439" y="34"/>
      <point x="526" y="85"/>
      <point x="577" y="176" type="curve"/>
    </contour>
    <contour>
      <point x="513" y="502" type="line"/>
      <point x="491" y="580" type="line"/>
      <point x="372" y="580" type="line"/>
      <point x="395" y="502" type="line"/>
    </contour>
  </outline>
</glyph>
<glyph name="uni0927094D0930094D" format="1">
  <advance width="522"/>
  <note>
    dDhR.half
  </note>
  <outline>
    <contour>
      <point x="185" y="-34" type="line"/>
      <point x="251" y="-107" type="line"/>
      <point x="490" y="99" type="line"/>
      <point x="452" y="137" type="line"/>
    </contour>
    <component base="uni0927094D"/>
  </outline>
</glyph>
<glyph name="evowelsigndeva_uni0930094D_anus" format="1">
  <advance width="668"/>
  <outline>
    <component base="evowelsigndeva_uni0930094D" xOffset="2"/>
    <component base="anusvaradeva" xOffset="438" yOffset="90" xScale="0.82" yScale="0.82"/>
    <contour>
      <point x="457" y="555" type="move" name="_top"/>
    </contour>
  </outline>
</glyph>
<glyph name="uni0917094D" format="1">
  <advance width="272"/>
  <outline>
    <contour>
      <point x="107" y="530" type="line"/>
      <point x="116" y="458"/>
      <point x="120" y="381"/>
      <point x="118" y="305" type="curve"/>
      <point x="104" y="307"/>
      <point x="90" y="309"/>
      <point x="75" y="309" type="curve"/>
      <point x="39" y="309"/>
      <point x="6" y="291"/>
      <point x="6" y="246" type="curve" smooth="yes"/>
      <point x="6" y="188"/>
      <point x="106" y="97"/>
      <point x="160" y="97" type="curve" smooth="yes"/>
      <point x="251" y="97"/>
      <point x="228" y="409"/>
      <point x="207" y="530" type="curve"/>
    </contour>
    <contour>
      <point x="302" y="502" type="line"/>
      <point x="280" y="580" type="line"/>
      <point x="-30" y="580" type="line"/>
      <point x="-7" y="502" type="line"/>
    </contour>
    <contour>
      <point x="152" y="0" type="move" name="nukta"/>
    </contour>
  </outline>
</glyph>
<glyph name="uni0917094D0928094D092F" format="1">
  <advance width="871"/>
  <note>
    dGNYa
  </note>
  <outline>
    <contour>
      <point x="490" y="149" type="line"/>
      <point x="457" y="203" type="line"/>
      <point x="422" y="176"/>
      <point x="336" y="117"/>
      <point x="294" y="84" type="curve" smooth="yes"/>
      <point x="254" y="53"/>
      <point x="230" y="22"/>
      <point x="230" y="-16" type="curve" smooth="yes"/>
      <point x="230" y="-62"/>
      <point x="265" y="-95"/>
      <point x="314" y="-95" type="curve" smooth="yes"/>
      <point x="365" y="-95"/>
      <point x="389" y="-55"/>
      <point x="389" y="-21" type="curve" smooth="yes"/>
      <point x="389" y="2"/>
      <point x="377" y="27"/>
      <point x="354" y="41" type="curve"/>
    </contour>
    <component base="uni0917094D" xOffset="10"/>
    <component base="uni092F" xOffset="302"/>
    <contour>
      <point x="294" y="-10" type="move" name="nukta"/>
    </contour>
  </outline>
</glyph>
<glyph name="uni0917094D_nadeva" format="1">
  <advance width="691"/>
  <note>
    dGNa
  </note>
  <outline>
    <contour>
      <point x="676" y="502" type="line"/>
      <point x="654" y="580" type="line"/>
      <point x="15" y="580" type="line"/>
      <point x="38" y="502" type="line"/>
    </contour>
    <contour>
      <point x="136" y="530" type="line"/>
      <point x="157" y="454"/>
      <point x="165" y="398"/>
      <point x="159" y="323" type="curve"/>
      <point x="97" y="329"/>
      <point x="60" y="309"/>
      <point x="60" y="267" type="curve" smooth="yes"/>
      <point x="60" y="210"/>
      <point x="133" y="166"/>
      <point x="184" y="166" type="curve" smooth="yes"/>
      <point x="290" y="166"/>
      <point x="294" y="292"/>
      <point x="249" y="530" type="curve"/>
    </contour>
    <component base="nadeva.post2" xOffset="667" yOffset="53"/>
    <component base="stem-deva" xOffset="35"/>
    <contour>
      <point x="492" y="580" type="move" name="top"/>
    </contour>
    <contour>
      <point x="486" y="0" type="move" name="bottom"/>
    </contour>
  </outline>
</glyph>
<glyph name="uni0917094D0930094D092F" format="1">
  <advance width="854"/>
  <note>
    dGRYa
  </note>
  <outline>
    <contour>
      <point x="158" y="7" type="line"/>
      <point x="228" y="-87" type="line"/>
      <point x="491" y="107" type="line"/>
      <point x="456" y="188" type="line"/>
    </contour>
    <component base="uni0917094D" xOffset="10"/>
    <component base="uni092F" xOffset="285"/>
  </outline>
</glyph>
<glyph name="uni0939094D_madeva" format="1">
  <advance width="775"/>
  <note>
    dHMa
  </note>
  <outline>
    <contour>
      <point x="589" y="526" type="line"/>
      <point x="589" y="146" type="line"/>
      <point x="508" y="146" type="line"/>
      <point x="508" y="154" type="line"/>
      <point x="503" y="234"/>
      <point x="380" y="280"/>
      <point x="292" y="280" type="curve" smooth="yes"/>
      <point x="197" y="280"/>
      <point x="35" y="232"/>
      <point x="35" y="106" type="curve" smooth="yes"/>
      <point x="35" y="-60"/>
      <point x="197" y="-148"/>
      <point x="404" y="-173" type="curve"/>
      <point x="420" y="-115" type="line"/>
      <point x="224" y="-73"/>
      <point x="193" y="12"/>
      <point x="193" y="83" type="curve" smooth="yes"/>
      <point x="193" y="150"/>
      <point x="239" y="193"/>
      <point x="305" y="193" type="curve" smooth="yes"/>
      <point x="333" y="193"/>
      <point x="358" y="192"/>
      <point x="367" y="186" type="curve" smooth="yes"/>
      <point x="371" y="183"/>
      <point x="372" y="163"/>
      <point x="372" y="149" type="curve" smooth="yes"/>
      <point x="372" y="144" type="line"/>
      <point x="365" y="144" type="line" smooth="yes"/>
      <point x="314" y="144"/>
      <point x="277" y="137"/>
      <point x="277" y="104" type="curve" smooth="yes"/>
      <point x="277" y="72"/>
      <point x="405" y="-41"/>
      <point x="479" y="-41" type="curve" smooth="yes"/>
      <point x="504" y="-41"/>
      <point x="507" y="6"/>
      <point x="507" y="41" type="curve"/>
      <point x="589" y="41" type="line"/>
      <point x="589" y="-34" type="line"/>
      <point x="734" y="-65" type="line"/>
      <point x="734" y="526" type="line"/>
    </contour>
    <contour>
      <point x="431" y="328" type="line"/>
      <point x="435" y="349"/>
      <point x="435" y="370"/>
      <point x="435" y="390" type="curve" smooth="yes"/>
      <point x="435" y="422"/>
      <point x="430" y="454"/>
      <point x="422" y="487" type="curve"/>
      <point x="801" y="487" type="line"/>
      <point x="778" y="580" type="line"/>
      <point x="-28" y="580" type="line"/>
      <point x="-4" y="487" type="line"/>
      <point x="291" y="487" type="line"/>
      <point x="292" y="474"/>
      <point x="293" y="461"/>
      <point x="293" y="449" type="curve" smooth="yes"/>
      <point x="293" y="439"/>
      <point x="293" y="430"/>
      <point x="292" y="421" type="curve"/>
      <point x="174" y="421" type="line" smooth="yes"/>
      <point x="103" y="421"/>
      <point x="42" y="403"/>
      <point x="42" y="338" type="curve" smooth="yes"/>
      <point x="42" y="291"/>
      <point x="99" y="243"/>
      <point x="155" y="204" type="curve"/>
      <point x="173" y="217"/>
      <point x="182" y="224"/>
      <point x="182" y="224" type="curve"/>
      <point x="173" y="252"/>
      <point x="171" y="264"/>
      <point x="173" y="285" type="curve" smooth="yes"/>
      <point x="178" y="317"/>
      <point x="202" y="328"/>
      <point x="247" y="328" type="curve"/>
    </contour>
    <contour>
      <point x="662" y="580" type="move" name="top"/>
    </contour>
    <contour>
      <point x="662" y="-28" type="move" name="bottom"/>
    </contour>
  </outline>
</glyph>
<glyph name="uni0939094D_nnadeva" format="1">
  <advance width="597"/>
  <note>
    dHNna
  </note>
  <outline>
    <contour>
      <point x="170" y="159"/>
      <point x="263" y="199"/>
      <point x="339" y="199" type="curve" smooth="yes"/>
      <point x="375" y="199"/>
      <point x="417" y="190"/>
      <point x="451" y="174" type="curve" smooth="yes"/>
      <point x="460" y="169"/>
      <point x="466" y="166"/>
      <point x="469" y="161" type="curve" smooth="yes"/>
      <point x="472" y="157"/>
      <point x="474" y="146"/>
      <point x="474" y="135" type="curve" smooth="yes"/>
      <point x="474" y="53"/>
      <point x="460" y="15"/>
      <point x="420" y="-60" type="curve"/>
      <point x="547" y="-85" type="line"/>
      <point x="564" y="-35"/>
      <point x="569" y="-3"/>
      <point x="569" y="34" type="curve" smooth="yes"/>
      <point x="569" y="108"/>
      <point x="519" y="279"/>
      <point x="283" y="279" type="curve" smooth="yes"/>
      <point x="176" y="279"/>
      <point x="28" y="222"/>
      <point x="28" y="90" type="curve" smooth="yes"/>
      <point x="28" y="-56"/>
      <point x="178" y="-159"/>
      <point x="377" y="-210" type="curve"/>
      <point x="397" y="-150" type="line"/>
      <point x="231" y="-93"/>
      <point x="170" y="-2"/>
      <point x="170" y="75" type="curve" smooth="yes"/>
    </contour>
    <contour>
      <point x="341" y="122" type="line" smooth="yes"/>
      <point x="341" y="44"/>
      <point x="334" y="39"/>
      <point x="316" y="39" type="curve" smooth="yes"/>
      <point x="310" y="39"/>
      <point x="307" y="40"/>
      <point x="304" y="42" type="curve" smooth="yes"/>
      <point x="300" y="45"/>
      <point x="298" y="55"/>
      <point x="298" y="113" type="curve" smooth="yes"/>
      <point x="298" y="206" type="line"/>
      <point x="195" y="206" type="line"/>
      <point x="195" y="121" type="line" smooth="yes"/>
      <point x="195" y="14"/>
      <point x="299" y="-16"/>
      <point x="347" y="-16" type="curve" smooth="yes"/>
      <point x="401" y="-16"/>
      <point x="445" y="8"/>
      <point x="445" y="107" type="curve" smooth="yes"/>
      <point x="445" y="206" type="line"/>
      <point x="341" y="206" type="line"/>
    </contour>
    <contour>
      <point x="454" y="328" type="line"/>
      <point x="458" y="349"/>
      <point x="458" y="370"/>
      <point x="458" y="390" type="curve" smooth="yes"/>
      <point x="458" y="422"/>
      <point x="453" y="454"/>
      <point x="445" y="487" type="curve"/>
      <point x="623" y="487" type="line"/>
      <point x="600" y="580" type="line"/>
      <point x="-26" y="580" type="line"/>
      <point x="-2" y="487" type="line"/>
      <point x="313" y="487" type="line"/>
      <point x="315" y="474"/>
      <point x="316" y="461"/>
      <point x="316" y="449" type="curve" smooth="yes"/>
      <point x="316" y="439"/>
      <point x="316" y="430"/>
      <point x="315" y="421" type="curve"/>
      <point x="197" y="421" type="line" smooth="yes"/>
      <point x="126" y="421"/>
      <point x="64" y="403"/>
      <point x="64" y="338" type="curve" smooth="yes"/>
      <point x="64" y="291"/>
      <point x="122" y="243"/>
      <point x="178" y="204" type="curve"/>
      <point x="196" y="217"/>
      <point x="205" y="224"/>
      <point x="205" y="224" type="curve"/>
      <point x="196" y="252"/>
      <point x="194" y="264"/>
      <point x="196" y="285" type="curve" smooth="yes"/>
      <point x="201" y="317"/>
      <point x="225" y="328"/>
      <point x="270" y="328" type="curve"/>
    </contour>
    <contour>
      <point x="378" y="580" type="move" name="top"/>
    </contour>
    <contour>
      <point x="338" y="-145" type="move" name="bottom"/>
    </contour>
  </outline>
</glyph>
<glyph name="hadeva_uvowelsigndeva" format="1">
  <advance width="543"/>
  <note>
    dHaMatraU
  </note>
  <outline>
    <contour>
      <point x="225" y="-24"/>
      <point x="199" y="26"/>
      <point x="199" y="83" type="curve" smooth="yes"/>
      <point x="199" y="150"/>
      <point x="259" y="187"/>
      <point x="324" y="187" type="curve" smooth="yes"/>
      <point x="351" y="187"/>
      <point x="380" y="185"/>
      <point x="400" y="172" type="curve" smooth="yes"/>
      <point x="405" y="169"/>
      <point x="406" y="166"/>
      <point x="406" y="161" type="curve" smooth="yes"/>
      <point x="406" y="138"/>
      <point x="382" y="99"/>
      <point x="321" y="71" type="curve"/>
      <point x="422" y="-32" type="line"/>
      <point x="491" y="15"/>
      <point x="500" y="41"/>
      <point x="500" y="85" type="curve" smooth="yes"/>
      <point x="500" y="183"/>
      <point x="401" y="268"/>
      <point x="288" y="268" type="curve" smooth="yes"/>
      <point x="140" y="268"/>
      <point x="49" y="193"/>
      <point x="49" y="95" type="curve" smooth="yes"/>
      <point x="50" y="-24"/>
      <point x="155" y="-104"/>
      <point x="303" y="-126" type="curve" smooth="yes"/>
      <point x="378" y="-138"/>
      <point x="426" y="-143"/>
      <point x="439" y="-156" type="curve" smooth="yes"/>
      <point x="444" y="-161"/>
      <point x="444" y="-167"/>
      <point x="444" y="-179" type="curve" smooth="yes"/>
      <point x="444" y="-212"/>
      <point x="413" y="-253"/>
      <point x="346" y="-253" type="curve" smooth="yes"/>
      <point x="250" y="-253"/>
      <point x="192" y="-204"/>
      <point x="148" y="-158" type="curve"/>
      <point x="104" y="-192" type="line"/>
      <point x="138" y="-240"/>
      <point x="232" y="-348"/>
      <point x="373" y="-348" type="curve" smooth="yes"/>
      <point x="467" y="-348"/>
      <point x="527" y="-292"/>
      <point x="527" y="-221" type="curve" smooth="yes"/>
      <point x="527" y="-153"/>
      <point x="470" y="-76"/>
      <point x="391" y="-63" type="curve"/>
    </contour>
    <contour>
      <point x="446" y="328" type="line"/>
      <point x="449" y="349"/>
      <point x="450" y="370"/>
      <point x="450" y="390" type="curve" smooth="yes"/>
      <point x="450" y="422"/>
      <point x="444" y="454"/>
      <point x="437" y="487" type="curve"/>
      <point x="566" y="487" type="line"/>
      <point x="543" y="580" type="line"/>
      <point x="-24" y="580" type="line"/>
      <point x="0" y="487" type="line"/>
      <point x="305" y="487" type="line"/>
      <point x="307" y="474"/>
      <point x="308" y="461"/>
      <point x="308" y="449" type="curve" smooth="yes"/>
      <point x="308" y="439"/>
      <point x="308" y="430"/>
      <point x="307" y="421" type="curve"/>
      <point x="188" y="421" type="line" smooth="yes"/>
      <point x="118" y="421"/>
      <point x="56" y="403"/>
      <point x="56" y="338" type="curve" smooth="yes"/>
      <point x="56" y="291"/>
      <point x="113" y="243"/>
      <point x="170" y="204" type="curve"/>
      <point x="188" y="217"/>
      <point x="196" y="224"/>
      <point x="196" y="224" type="curve"/>
      <point x="188" y="252"/>
      <point x="186" y="264"/>
      <point x="188" y="285" type="curve" smooth="yes"/>
      <point x="193" y="317"/>
      <point x="216" y="328"/>
      <point x="261" y="328" type="curve"/>
    </contour>
    <contour>
      <point x="371" y="580" type="move" name="top"/>
    </contour>
  </outline>
</glyph>
<glyph name="uni093F.02" format="1">
  <advance width="272"/>
  <note>
    dMatraI.2
  </note>
  <outline>
    <contour>
      <point x="185" y="577" type="line"/>
      <point x="173" y="599"/>
      <point x="163" y="627"/>
      <point x="163" y="648" type="curve" smooth="yes"/>
      <point x="163" y="704"/>
      <point x="210" y="720"/>
      <point x="263" y="720" type="curve" smooth="yes"/>
      <point x="363" y="720"/>
      <point x="515" y="686"/>
      <point x="671" y="591" type="curve"/>
      <point x="713" y="648" type="line"/>
      <point x="575" y="747"/>
      <point x="358" y="836"/>
      <point x="202" y="836" type="curve" smooth="yes"/>
      <point x="84" y="836"/>
      <point x="30" y="789"/>
      <point x="29" y="710" type="curve" smooth="yes"/>
      <point x="29" y="668"/>
      <point x="63" y="614"/>
      <point x="93" y="571" type="curve"/>
    </contour>
    <contour>
      <point x="71" y="-20" type="line"/>
      <point x="216" y="-47" type="line"/>
      <point x="216" y="487" type="line"/>
      <point x="292" y="487" type="line"/>
      <point x="272" y="580" type="line"/>
      <point x="-25" y="580" type="line"/>
      <point x="0" y="487" type="line"/>
      <point x="71" y="487" type="line"/>
    </contour>
    <contour>
      <point x="713" y="648" type="move" name="imatra"/>
    </contour>
    <contour>
      <point x="693" y="623" type="move" name="top"/>
    </contour>
  </outline>
</glyph>
<glyph name="uni093F.03" format="1">
  <advance width="272"/>
  <note>
    dMatraI.3
  </note>
  <outline>
    <contour>
      <point x="185" y="577" type="line"/>
      <point x="173" y="599"/>
      <point x="163" y="627"/>
      <point x="163" y="648" type="curve" smooth="yes"/>
      <point x="163" y="704"/>
      <point x="212" y="721"/>
      <point x="271" y="721" type="curve" smooth="yes"/>
      <point x="384" y="721"/>
      <point x="557" y="688"/>
      <point x="727" y="591" type="curve"/>
      <point x="770" y="649" type="line"/>
      <point x="619" y="749"/>
      <point x="377" y="837"/>
      <point x="210" y="837" type="curve" smooth="yes"/>
      <point x="86" y="837"/>
      <point x="30" y="790"/>
      <point x="29" y="710" type="curve" smooth="yes"/>
      <point x="29" y="667"/>
      <point x="63" y="613"/>
      <point x="93" y="571" type="curve"/>
    </contour>
    <contour>
      <point x="71" y="-20" type="line"/>
      <point x="216" y="-47" type="line"/>
      <point x="216" y="487" type="line"/>
      <point x="294" y="487" type="line"/>
      <point x="272" y="580" type="line"/>
      <point x="-26" y="580" type="line"/>
      <point x="-1" y="487" type="line"/>
      <point x="71" y="487" type="line"/>
    </contour>
    <contour>
      <point x="770" y="649" type="move" name="imatra"/>
    </contour>
    <contour>
      <point x="747" y="618" type="move" name="top"/>
    </contour>
  </outline>
</glyph>
<glyph name="uni093F.05" format="1">
  <advance width="272"/>
  <note>
    dMatraI.5
  </note>
  <outline>
    <contour>
      <point x="185" y="577" type="line"/>
      <point x="173" y="599"/>
      <point x="164" y="626"/>
      <point x="164" y="647" type="curve" smooth="yes"/>
      <point x="164" y="706"/>
      <point x="215" y="723"/>
      <point x="289" y="723" type="curve" smooth="yes"/>
      <point x="427" y="723"/>
      <point x="643" y="695"/>
      <point x="837" y="592" type="curve"/>
      <point x="879" y="649" type="line"/>
      <point x="703" y="754"/>
      <point x="416" y="838"/>
      <point x="228" y="838" type="curve" smooth="yes"/>
      <point x="89" y="838"/>
      <point x="30" y="792"/>
      <point x="30" y="709" type="curve" smooth="yes"/>
      <point x="29" y="667"/>
      <point x="63" y="613"/>
      <point x="94" y="570" type="curve"/>
    </contour>
    <contour>
      <point x="71" y="-20" type="line"/>
      <point x="216" y="-47" type="line"/>
      <point x="216" y="487" type="line"/>
      <point x="295" y="487" type="line"/>
      <point x="272" y="580" type="line"/>
      <point x="-24" y="580" type="line"/>
      <point x="0" y="487" type="line"/>
      <point x="71" y="487" type="line"/>
    </contour>
    <contour>
      <point x="879" y="649" type="move" name="imatra"/>
    </contour>
    <contour>
      <point x="859" y="623" type="move" name="top"/>
    </contour>
  </outline>
</glyph>
<glyph name="uni093F.08" format="1">
  <advance width="272"/>
  <note>
    dMatraI.8
  </note>
  <outline>
    <contour>
      <point x="186" y="577" type="line"/>
      <point x="174" y="599"/>
      <point x="165" y="625"/>
      <point x="165" y="646" type="curve" smooth="yes"/>
      <point x="165" y="708"/>
      <point x="219" y="726"/>
      <point x="314" y="726" type="curve" smooth="yes"/>
      <point x="490" y="726"/>
      <point x="766" y="701"/>
      <point x="1003" y="593" type="curve"/>
      <point x="1044" y="650" type="line"/>
      <point x="828" y="761"/>
      <point x="474" y="839"/>
      <point x="252" y="839" type="curve" smooth="yes"/>
      <point x="95" y="839"/>
      <point x="31" y="794"/>
      <point x="30" y="708" type="curve" smooth="yes"/>
      <point x="29" y="665"/>
      <point x="64" y="611"/>
      <point x="94" y="570" type="curve"/>
    </contour>
    <contour>
      <point x="71" y="-20" type="line"/>
      <point x="216" y="-47" type="line"/>
      <point x="216" y="487" type="line"/>
      <point x="294" y="487" type="line"/>
      <point x="272" y="580" type="line"/>
      <point x="-25" y="580" type="line"/>
      <point x="0" y="487" type="line"/>
      <point x="71" y="487" type="line"/>
    </contour>
    <contour>
      <point x="1044" y="650" type="move" name="imatra"/>
    </contour>
    <contour>
      <point x="1025" y="623" type="move" name="top"/>
    </contour>
  </outline>
</glyph>
<glyph name="uni091C094D" format="1">
  <advance width="464"/>
  <outline>
    <contour>
      <point x="306" y="322"/>
      <point x="357" y="206"/>
      <point x="311" y="157" type="curve" smooth="yes"/>
      <point x="268" y="111"/>
      <point x="154" y="154"/>
      <point x="63" y="325" type="curve"/>
      <point x="22" y="297" type="line"/>
      <point x="105" y="110"/>
      <point x="193" y="39"/>
      <point x="288" y="39" type="curve" smooth="yes"/>
      <point x="337" y="39"/>
      <point x="377" y="52"/>
      <point x="405" y="76" type="curve" smooth="yes"/>
      <point x="432" y="100"/>
      <point x="447" y="133"/>
      <point x="447" y="175" type="curve" smooth="yes"/>
      <point x="447" y="277"/>
      <point x="361" y="357"/>
      <point x="207" y="376" type="curve"/>
      <point x="190" y="338" type="line"/>
    </contour>
    <contour>
      <point x="524" y="502" type="line"/>
      <point x="502" y="580" type="line"/>
      <point x="-20" y="580" type="line"/>
      <point x="3" y="502" type="line"/>
    </contour>
    <contour>
      <point x="544" y="347" type="line"/>
      <point x="522" y="416" type="line"/>
      <point x="167" y="416" type="line"/>
      <point x="190" y="338" type="line"/>
    </contour>
    <contour>
      <point x="82" y="0" type="move" name="nukta"/>
    </contour>
  </outline>
</glyph>
<glyph name="uni091C094D091C094D.alt" format="1">
  <advance width="602"/>
  <note>
    dJJ.half_alt
  </note>
  <outline>
    <contour>
      <point x="625" y="487" type="line"/>
      <point x="602" y="580" type="line"/>
      <point x="-24" y="580" type="line"/>
      <point x="0" y="487" type="line"/>
    </contour>
    <contour>
      <point x="691" y="326" type="line"/>
      <point x="669" y="419" type="line"/>
      <point x="243" y="419" type="line"/>
      <point x="259" y="345" type="line"/>
      <point x="320" y="341"/>
      <point x="341" y="328"/>
      <point x="341" y="296" type="curve" smooth="yes"/>
      <point x="341" y="267"/>
      <point x="316" y="248"/>
      <point x="279" y="248" type="curve" smooth="yes"/>
      <point x="238" y="248"/>
      <point x="163" y="259"/>
      <point x="101" y="388" type="curve"/>
      <point x="33" y="366" type="line"/>
      <point x="91" y="202"/>
      <point x="188" y="121"/>
      <point x="327" y="121" type="curve" smooth="yes"/>
      <point x="425" y="121"/>
      <point x="487" y="169"/>
      <point x="487" y="235" type="curve" smooth="yes"/>
      <point x="487" y="280"/>
      <point x="457" y="314"/>
      <point x="397" y="326" type="curve"/>
    </contour>
    <contour>
      <point x="706" y="122" type="line"/>
      <point x="652" y="199" type="line"/>
      <point x="247" y="40" type="line"/>
      <point x="285" y="-24" type="line"/>
      <point x="362" y="-5"/>
      <point x="390" y="-17"/>
      <point x="390" y="-57" type="curve" smooth="yes"/>
      <point x="390" y="-90"/>
      <point x="362" y="-107"/>
      <point x="313" y="-112" type="curve" smooth="yes"/>
      <point x="275" y="-114"/>
      <point x="215" y="-110"/>
      <point x="125" y="-21" type="curve"/>
      <point x="71" y="-66" type="line"/>
      <point x="189" y="-206"/>
      <point x="297" y="-224"/>
      <point x="375" y="-220" type="curve" smooth="yes"/>
      <point x="470" y="-215"/>
      <point x="551" y="-160"/>
      <point x="551" y="-92" type="curve" smooth="yes"/>
      <point x="551" y="-48"/>
      <point x="536" y="17"/>
      <point x="432" y="14" type="curve"/>
    </contour>
  </outline>
</glyph>
<glyph name="uni091C094D_jadeva.alt" format="1">
  <advance width="838"/>
  <note>
    dJJa.alt
  </note>
  <outline>
    <contour>
      <point x="618" y="-69" type="line"/>
      <point x="763" y="-96" type="line"/>
      <point x="763" y="487" type="line"/>
      <point x="863" y="487" type="line"/>
      <point x="840" y="580" type="line"/>
      <point x="519" y="580" type="line"/>
      <point x="542" y="487" type="line"/>
      <point x="618" y="487" type="line"/>
    </contour>
    <component base="uni091C094D091C094D.alt"/>
    <contour>
      <point x="691" y="580" type="move" name="top"/>
    </contour>
    <contour>
      <point x="691" y="-63" type="move" name="bottom"/>
    </contour>
  </outline>
</glyph>
<glyph name="uni091C094D091E094D" format="1">
  <advance width="482"/>
  <note>
    dJNy.half
  </note>
  <outline>
    <contour>
      <point x="144" y="44" type="line"/>
      <point x="214" y="-96"/>
      <point x="259" y="-148"/>
      <point x="351" y="-148" type="curve" smooth="yes"/>
      <point x="382" y="-148"/>
      <point x="409" y="-140"/>
      <point x="446" y="-121" type="curve"/>
      <point x="396" y="-18" type="line"/>
      <point x="362" y="-35"/>
      <point x="344" y="-38"/>
      <point x="331" y="-38" type="curve" smooth="yes"/>
      <point x="289" y="-38"/>
      <point x="230" y="-35"/>
      <point x="175" y="71" type="curve"/>
    </contour>
    <contour>
      <point x="505" y="487" type="line"/>
      <point x="483" y="580" type="line"/>
      <point x="-24" y="580" type="line"/>
      <point x="0" y="487" type="line"/>
    </contour>
    <contour>
      <point x="598" y="294" type="line"/>
      <point x="578" y="392" type="line"/>
      <point x="169" y="392" type="line"/>
      <point x="185" y="310" type="line"/>
      <point x="263" y="288"/>
      <point x="296" y="253"/>
      <point x="296" y="204" type="curve" smooth="yes"/>
      <point x="296" y="146"/>
      <point x="251" y="107"/>
      <point x="187" y="109" type="curve"/>
      <point x="171" y="153"/>
      <point x="155" y="200"/>
      <point x="131" y="200" type="curve" smooth="yes"/>
      <point x="87" y="200"/>
      <point x="20" y="129"/>
      <point x="20" y="93" type="curve" smooth="yes"/>
      <point x="20" y="43"/>
      <point x="117" y="-2"/>
      <point x="230" y="-2" type="curve" smooth="yes"/>
      <point x="341" y="-2"/>
      <point x="438" y="50"/>
      <point x="438" y="163" type="curve"/>
      <point x="438" y="212"/>
      <point x="400" y="272"/>
      <point x="329" y="294" type="curve"/>
    </contour>
  </outline>
</glyph>
<glyph name="uni091C094D_nyadeva" format="1">
  <advance width="781"/>
  <note>
    dJNya
  </note>
  <outline>
    <contour>
      <point x="15" y="580" type="line"/>
      <point x="38" y="502" type="line"/>
      <point x="525" y="502" type="line"/>
      <point x="525" y="0" type="line"/>
      <point x="655" y="0" type="line"/>
      <point x="655" y="502" type="line"/>
      <point x="766" y="502" type="line"/>
      <point x="744" y="580" type="line"/>
    </contour>
    <contour>
      <point x="93" y="117" type="line"/>
      <point x="162" y="-28"/>
      <point x="221" y="-84"/>
      <point x="312" y="-150" type="curve"/>
      <point x="386" y="-78" type="line"/>
      <point x="290" y="-29"/>
      <point x="217" y="3"/>
      <point x="142" y="122" type="curve"/>
    </contour>
    <contour>
      <point x="431" y="69"/>
      <point x="431" y="158" type="curve" smooth="yes"/>
      <point x="431" y="251"/>
      <point x="335" y="362"/>
      <point x="170" y="362" type="curve"/>
      <point x="173" y="314" type="line"/>
      <point x="272" y="314"/>
      <point x="316" y="256"/>
      <point x="316" y="200" type="curve" smooth="yes"/>
      <point x="316" y="150"/>
      <point x="279" y="103"/>
      <point x="214" y="102" type="curve"/>
      <point x="224" y="146"/>
      <point x="199" y="205"/>
      <point x="144" y="205" type="curve" smooth="yes"/>
      <point x="98" y="205"/>
      <point x="70" y="179"/>
      <point x="70" y="138" type="curve" smooth="yes"/>
      <point x="70" y="86"/>
      <point x="134" y="37"/>
      <point x="196" y="28" type="curve" smooth="yes"/>
      <point x="333" y="8"/>
    </contour>
    <contour>
      <point x="616" y="314" type="line"/>
      <point x="594" y="392" type="line"/>
      <point x="145" y="392" type="line"/>
      <point x="168" y="314" type="line" smooth="yes"/>
    </contour>
    <contour>
      <point x="591" y="580" type="move" name="top"/>
    </contour>
    <contour>
      <point x="591" y="0" type="move" name="bottom"/>
    </contour>
  </outline>
</glyph>
<glyph name="uni091D094D.loclNEP" format="1">
  <advance width="824"/>
  <outline>
    <contour>
      <point x="511" y="0" type="line"/>
      <point x="641" y="0" type="line"/>
      <point x="641" y="502" type="line"/>
      <point x="831" y="502" type="line"/>
      <point x="809" y="580" type="line"/>
      <point x="402" y="580" type="line"/>
      <point x="425" y="502" type="line"/>
      <point x="511" y="502" type="line"/>
    </contour>
    <contour>
      <point x="775" y="444"/>
      <point x="680" y="421"/>
      <point x="590" y="327" type="curve"/>
      <point x="604" y="208" type="line"/>
      <point x="688" y="302"/>
      <point x="754" y="368"/>
      <point x="851" y="311" type="curve"/>
      <point x="833" y="400" type="line"/>
    </contour>
    <contour>
      <point x="240" y="221" type="line"/>
      <point x="546" y="221" type="line"/>
      <point x="546" y="299" type="line"/>
      <point x="263" y="299" type="line"/>
    </contour>
    <contour>
      <point x="296" y="384" type="line"/>
      <point x="215" y="395"/>
      <point x="168" y="434"/>
      <point x="168" y="497" type="curve" smooth="yes"/>
      <point x="168" y="523"/>
      <point x="180" y="536"/>
      <point x="199" y="536" type="curve" smooth="yes"/>
      <point x="248" y="536"/>
      <point x="260" y="483"/>
      <point x="240" y="221" type="curve"/>
      <point x="366" y="238" type="line"/>
      <point x="377" y="500"/>
      <point x="293" y="595"/>
      <point x="176" y="595" type="curve" smooth="yes"/>
      <point x="107" y="595"/>
      <point x="55" y="557"/>
      <point x="55" y="494" type="curve" smooth="yes"/>
      <point x="55" y="401"/>
      <point x="182" y="334"/>
      <point x="290" y="328" type="curve"/>
    </contour>
    <component base="deva_knot" xOffset="142" yOffset="-3" xScale="0.93" yScale="0.93" yxScale="0.08"/>
    <contour>
      <point x="226" y="-1" type="move" name="nukta"/>
    </contour>
    <contour>
      <point x="580" y="0" type="move" name="bottom"/>
    </contour>
    <contour>
      <point x="582" y="580" type="move" name="top"/>
    </contour>
  </outline>
</glyph>
<glyph name="uni091D094D_radeva" format="1">
  <advance width="882"/>
  <note>
    dJhRa
  </note>
  <outline>
    <contour>
      <point x="845" y="580" type="line"/>
      <point x="15" y="580" type="line"/>
      <point x="38" y="502" type="line"/>
      <point x="345" y="502" type="line"/>
      <point x="345" y="354" type="line"/>
      <point x="475" y="354" type="line"/>
      <point x="475" y="502" type="line"/>
      <point x="637" y="502" type="line"/>
      <point x="637" y="0" type="line"/>
      <point x="767" y="0" type="line"/>
      <point x="767" y="502" type="line"/>
      <point x="867" y="502" type="line"/>
    </contour>
    <contour>
      <point x="225" y="124"/>
      <point x="195" y="149"/>
      <point x="159" y="149" type="curve" smooth="yes"/>
      <point x="122" y="149"/>
      <point x="94" y="124"/>
      <point x="94" y="78" type="curve" smooth="yes"/>
      <point x="94" y="3"/>
      <point x="130" y="-86"/>
      <point x="194" y="-183" type="curve"/>
      <point x="287" y="-129" type="line"/>
      <point x="238" y="-88"/>
      <point x="199" y="-43"/>
      <point x="172" y="14" type="curve"/>
      <point x="192" y="23"/>
      <point x="225" y="46"/>
      <point x="225" y="81" type="curve" smooth="yes"/>
    </contour>
    <contour>
      <point x="107" y="57" type="line"/>
      <point x="183" y="13"/>
      <point x="255" y="-25"/>
      <point x="335" y="-25" type="curve" smooth="yes"/>
      <point x="434" y="-25"/>
      <point x="514" y="39"/>
      <point x="513" y="121" type="curve" smooth="yes"/>
      <point x="512" y="216"/>
      <point x="454" y="282"/>
      <point x="383" y="282" type="curve" smooth="yes"/>
      <point x="310" y="282"/>
      <point x="267" y="246"/>
      <point x="233" y="246" type="curve" smooth="yes"/>
      <point x="209" y="246"/>
      <point x="197" y="260"/>
      <point x="194" y="275" type="curve" smooth="yes"/>
      <point x="184" y="323"/>
      <point x="219" y="354"/>
      <point x="262" y="354" type="curve" smooth="yes"/>
      <point x="403" y="354" type="line"/>
      <point x="389" y="432" type="line"/>
      <point x="250" y="432" type="line" smooth="yes"/>
      <point x="186" y="432"/>
      <point x="112" y="399"/>
      <point x="112" y="313" type="curve" smooth="yes"/>
      <point x="112" y="239"/>
      <point x="186" y="157"/>
      <point x="263" y="157" type="curve" smooth="yes"/>
      <point x="312" y="157"/>
      <point x="370" y="185"/>
      <point x="408" y="184" type="curve" smooth="yes"/>
      <point x="429" y="184"/>
      <point x="439" y="167"/>
      <point x="439" y="136" type="curve" smooth="yes"/>
      <point x="439" y="93"/>
      <point x="394" y="68"/>
      <point x="331" y="68" type="curve" smooth="yes"/>
      <point x="278" y="68"/>
      <point x="213" y="86"/>
      <point x="152" y="123" type="curve"/>
    </contour>
    <contour>
      <point x="679" y="197" type="line"/>
      <point x="467" y="-16" type="line"/>
      <point x="525" y="-77" type="line"/>
      <point x="689" y="115" type="line"/>
    </contour>
    <contour>
      <point x="446" y="260" type="line"/>
      <point x="464" y="205" type="line"/>
      <point x="659" y="175" type="line"/>
      <point x="659" y="260" type="line"/>
    </contour>
    <contour>
      <point x="65" y="-149" type="move" name="nukta"/>
    </contour>
    <contour>
      <point x="703" y="0" type="move" name="bottom"/>
    </contour>
    <contour>
      <point x="703" y="580" type="move" name="top"/>
    </contour>
  </outline>
</glyph>
<glyph name="uni0915094D_kadeva" format="1">
  <advance width="841"/>
  <note>
    dKKa
  </note>
  <outline>
    <contour>
      <point x="15" y="580" type="line"/>
      <point x="38" y="502" type="line"/>
      <point x="383" y="502" type="line"/>
      <point x="383" y="-130" type="line"/>
      <point x="512" y="-130" type="line"/>
      <point x="512" y="502" type="line"/>
      <point x="826" y="502" type="line"/>
      <point x="804" y="580" type="line"/>
    </contour>
    <contour>
      <point x="821" y="412"/>
      <point x="753" y="470"/>
      <point x="671" y="470" type="curve" smooth="yes"/>
      <point x="585" y="470"/>
      <point x="544" y="440"/>
      <point x="474" y="383" type="curve"/>
      <point x="488" y="296" type="line"/>
      <point x="547" y="359"/>
      <point x="607" y="383"/>
      <point x="655" y="383" type="curve" smooth="yes"/>
      <point x="709" y="383"/>
      <point x="740" y="353"/>
      <point x="740" y="314" type="curve" smooth="yes"/>
      <point x="740" y="283"/>
      <point x="721" y="247"/>
      <point x="677" y="215" type="curve"/>
      <point x="744" y="174" type="line"/>
      <point x="798" y="214"/>
      <point x="821" y="256"/>
      <point x="821" y="320" type="curve" smooth="yes"/>
    </contour>
    <contour>
      <point x="806" y="204"/>
      <point x="731" y="259"/>
      <point x="643" y="259" type="curve" smooth="yes"/>
      <point x="586" y="259"/>
      <point x="521" y="234"/>
      <point x="465" y="179" type="curve"/>
      <point x="478" y="74" type="line"/>
      <point x="519" y="140"/>
      <point x="593" y="173"/>
      <point x="653" y="173" type="curve" smooth="yes"/>
      <point x="703" y="173"/>
      <point x="742" y="150"/>
      <point x="742" y="103" type="curve" smooth="yes"/>
      <point x="742" y="54"/>
      <point x="701" y="23"/>
      <point x="602" y="1" type="curve"/>
      <point x="639" y="-86" type="line"/>
      <point x="781" y="-45"/>
      <point x="806" y="36"/>
      <point x="806" y="98" type="curve" smooth="yes"/>
    </contour>
    <contour>
      <point x="131" y="459"/>
      <point x="58" y="412"/>
      <point x="58" y="321" type="curve" smooth="yes"/>
      <point x="58" y="234"/>
      <point x="128" y="138"/>
      <point x="256" y="138" type="curve" smooth="yes"/>
      <point x="327" y="138"/>
      <point x="383" y="165"/>
      <point x="456" y="208" type="curve"/>
      <point x="456" y="306" type="line"/>
      <point x="394" y="259"/>
      <point x="318" y="216"/>
      <point x="247" y="215" type="curve" smooth="yes"/>
      <point x="178" y="213"/>
      <point x="145" y="240"/>
      <point x="145" y="289" type="curve" smooth="yes"/>
      <point x="145" y="348"/>
      <point x="195" y="373"/>
      <point x="259" y="373" type="curve" smooth="yes"/>
      <point x="314" y="373"/>
      <point x="379" y="355"/>
      <point x="433" y="325" type="curve"/>
      <point x="436" y="381" type="line"/>
      <point x="386" y="427"/>
      <point x="311" y="459"/>
      <point x="231" y="459" type="curve" smooth="yes"/>
    </contour>
    <contour>
      <point x="167" y="227" type="line"/>
      <point x="101" y="202"/>
      <point x="71" y="152"/>
      <point x="71" y="102" type="curve" smooth="yes"/>
      <point x="71" y="18"/>
      <point x="144" y="-68"/>
      <point x="273" y="-68" type="curve" smooth="yes"/>
      <point x="342" y="-68"/>
      <point x="405" y="-45"/>
      <point x="466" y="8" type="curve"/>
      <point x="443" y="105" type="line"/>
      <point x="390" y="53"/>
      <point x="309" y="12"/>
      <point x="240" y="10" type="curve" smooth="yes"/>
      <point x="186" y="9"/>
      <point x="162" y="40"/>
      <point x="162" y="74" type="curve" smooth="yes"/>
      <point x="162" y="117"/>
      <point x="198" y="165"/>
      <point x="259" y="168" type="curve"/>
    </contour>
    <contour>
      <point x="453" y="580" type="move" name="top"/>
    </contour>
    <contour>
      <point x="453" y="-98" type="move" name="bottom"/>
    </contour>
  </outline>
</glyph>
<glyph name="uni0915094D_radeva" format="1">
  <advance width="821"/>
  <note>
    dKRa
  </note>
  <outline>
    <contour>
      <point x="33" y="-13" type="line"/>
      <point x="78" y="-87" type="line"/>
      <point x="367" y="89" type="line"/>
      <point x="363" y="180" type="line"/>
    </contour>
    <component base="kadeva"/>
    <contour>
      <point x="448" y="580" type="move" name="top"/>
    </contour>
    <contour>
      <point x="447" y="0" type="move" name="bottom"/>
    </contour>
  </outline>
</glyph>
<glyph name="uni0915094D_radeva.loclNEP" format="1">
  <advance width="879"/>
  <outline>
    <contour>
      <point x="394" y="0" type="line"/>
      <point x="524" y="0" type="line"/>
      <point x="524" y="502" type="line"/>
      <point x="864" y="502" type="line"/>
      <point x="842" y="580" type="line"/>
      <point x="15" y="580" type="line"/>
      <point x="38" y="502" type="line"/>
      <point x="394" y="502" type="line"/>
    </contour>
    <contour>
      <point x="623" y="438"/>
      <point x="558" y="405"/>
      <point x="483" y="327" type="curve"/>
      <point x="497" y="208" type="line"/>
      <point x="561" y="284"/>
      <point x="635" y="350"/>
      <point x="695" y="350" type="curve" smooth="yes"/>
      <point x="733" y="350"/>
      <point x="747" y="322"/>
      <point x="747" y="290" type="curve" smooth="yes"/>
      <point x="747" y="234"/>
      <point x="701" y="145"/>
      <point x="602" y="118" type="curve"/>
      <point x="671" y="14" type="line"/>
      <point x="777" y="66"/>
      <point x="824" y="161"/>
      <point x="824" y="251" type="curve" smooth="yes"/>
      <point x="824" y="346"/>
      <point x="771" y="438"/>
      <point x="679" y="438" type="curve" smooth="yes"/>
    </contour>
    <contour>
      <point x="408" y="328" type="line"/>
      <point x="110" y="116" type="line"/>
      <point x="189" y="32" type="line"/>
      <point x="408" y="217.479" type="line"/>
    </contour>
    <contour>
      <point x="305" y="397"/>
      <point x="248" y="446"/>
      <point x="161" y="446" type="curve"/>
      <point x="115" y="446"/>
      <point x="70" y="430"/>
      <point x="28" y="402" type="curve"/>
      <point x="74" y="304" type="line"/>
      <point x="105" y="321"/>
      <point x="141" y="332"/>
      <point x="186" y="332" type="curve"/>
      <point x="252" y="332"/>
      <point x="290" y="309"/>
      <point x="393" y="246" type="curve"/>
      <point x="434" y="304" type="line"/>
    </contour>
    <contour>
      <point x="463" y="580" type="move" name="top"/>
    </contour>
    <contour>
      <point x="463" y="0" type="move" name="bottom"/>
    </contour>
  </outline>
</glyph>
<glyph name="uni0915094D0937094D_madeva" format="1">
  <advance width="1061"/>
  <note>
    dKSsMa
  </note>
  <outline>
    <component base="uni0915094D0937094D"/>
    <component base="madeva" xOffset="422"/>
    <contour>
      <point x="893" y="580" type="move" name="top"/>
    </contour>
    <contour>
      <point x="890" y="0" type="move" name="bottom"/>
    </contour>
  </outline>
</glyph>
<glyph name="uni0915094D0924094D_tadeva" format="1">
  <advance width="879"/>
  <note>
    dKTTa
  </note>
  <outline>
    <contour>
      <point x="394" y="0" type="line"/>
      <point x="524" y="0" type="line"/>
      <point x="524" y="502" type="line"/>
      <point x="864" y="502" type="line"/>
      <point x="842" y="580" type="line"/>
      <point x="15" y="580" type="line"/>
      <point x="38" y="502" type="line"/>
      <point x="394" y="502" type="line"/>
    </contour>
    <contour>
      <point x="623" y="438"/>
      <point x="558" y="405"/>
      <point x="483" y="327" type="curve"/>
      <point x="497" y="208" type="line"/>
      <point x="561" y="284"/>
      <point x="635" y="350"/>
      <point x="695" y="350" type="curve" smooth="yes"/>
      <point x="733" y="350"/>
      <point x="747" y="322"/>
      <point x="747" y="290" type="curve" smooth="yes"/>
      <point x="747" y="234"/>
      <point x="701" y="145"/>
      <point x="602" y="118" type="curve"/>
      <point x="671" y="14" type="line"/>
      <point x="777" y="66"/>
      <point x="824" y="161"/>
      <point x="824" y="251" type="curve" smooth="yes"/>
      <point x="824" y="346"/>
      <point x="771" y="438"/>
      <point x="679" y="438" type="curve" smooth="yes"/>
    </contour>
    <contour>
      <point x="444" y="328" type="line"/>
      <point x="422" y="406" type="line"/>
      <point x="15" y="406" type="line"/>
      <point x="38" y="328" type="line"/>
    </contour>
    <contour>
      <point x="494.273" y="317" type="line"/>
      <point x="454" y="406" type="line"/>
      <point x="309" y="406" type="line"/>
      <point x="226" y="367" type="line"/>
      <point x="142" y="350"/>
      <point x="91" y="296"/>
      <point x="91" y="231" type="curve" smooth="yes"/>
      <point x="91" y="152"/>
      <point x="159" y="56"/>
      <point x="271" y="-17" type="curve"/>
      <point x="321" y="29" type="line"/>
      <point x="246" y="87"/>
      <point x="217" y="158"/>
      <point x="217" y="222" type="curve" smooth="yes"/>
      <point x="217" y="276"/>
      <point x="245" y="317"/>
      <point x="306" y="317" type="curve"/>
    </contour>
    <contour>
      <point x="461" y="580" type="move" name="top"/>
    </contour>
    <contour>
      <point x="461" y="0" type="move" name="bottom"/>
    </contour>
  </outline>
</glyph>
<glyph name="uni0916094D0932.loclMAR" format="1">
  <advance width="835"/>
  <note>
    dKhLa.MAR
  </note>
  <outline>
    <contour>
      <point x="340" y="229"/>
      <point x="430" y="172"/>
      <point x="543" y="172" type="curve" smooth="yes"/>
      <point x="586" y="172"/>
      <point x="630" y="182"/>
      <point x="677" y="213" type="curve"/>
      <point x="644" y="317" type="line"/>
      <point x="614" y="273"/>
      <point x="564" y="238"/>
      <point x="518" y="238" type="curve" smooth="yes"/>
      <point x="511" y="238"/>
      <point x="508" y="240"/>
      <point x="506" y="242" type="curve" smooth="yes"/>
      <point x="491" y="261"/>
      <point x="483" y="279"/>
      <point x="483" y="296" type="curve" smooth="yes"/>
      <point x="483" y="328"/>
      <point x="508" y="352"/>
      <point x="559" y="352" type="curve" smooth="yes"/>
      <point x="593" y="352"/>
      <point x="641" y="328"/>
      <point x="641" y="329" type="curve"/>
      <point x="640" y="367" type="line"/>
      <point x="592" y="423"/>
      <point x="533" y="446"/>
      <point x="485" y="446" type="curve" smooth="yes"/>
      <point x="402" y="446"/>
      <point x="340" y="404"/>
      <point x="340" y="323" type="curve" smooth="yes"/>
    </contour>
    <contour>
      <point x="246" y="252"/>
      <point x="305" y="292"/>
      <point x="305" y="393" type="curve" smooth="yes"/>
      <point x="305" y="439"/>
      <point x="282" y="501"/>
      <point x="249" y="533" type="curve"/>
      <point x="249" y="533"/>
      <point x="148" y="539"/>
      <point x="148" y="539" type="curve"/>
      <point x="160" y="495"/>
      <point x="169" y="461"/>
      <point x="169" y="417" type="curve" smooth="yes"/>
      <point x="169" y="383"/>
      <point x="163" y="368"/>
      <point x="152" y="348" type="curve"/>
      <point x="112" y="371" type="line"/>
      <point x="34" y="337" type="line"/>
      <point x="34" y="327"/>
      <point x="37" y="314"/>
      <point x="41" y="300" type="curve" smooth="yes"/>
      <point x="56" y="248"/>
      <point x="93" y="180"/>
      <point x="133" y="136" type="curve" smooth="yes"/>
      <point x="197" y="66"/>
      <point x="286" y="21"/>
      <point x="400" y="21" type="curve" smooth="yes"/>
      <point x="451" y="21"/>
      <point x="477" y="26"/>
      <point x="522" y="45" type="curve"/>
      <point x="475" y="166" type="line"/>
      <point x="454" y="159"/>
      <point x="396" y="140"/>
      <point x="346" y="140" type="curve" smooth="yes"/>
      <point x="281" y="140"/>
      <point x="209" y="152"/>
      <point x="144" y="219" type="curve"/>
    </contour>
    <contour>
      <point x="631" y="487" type="line"/>
      <point x="631" y="-21" type="line"/>
      <point x="776" y="-84" type="line"/>
      <point x="776" y="487" type="line"/>
      <point x="861" y="487" type="line"/>
      <point x="839" y="580" type="line"/>
      <point x="-23" y="580" type="line"/>
      <point x="0" y="487" type="line"/>
    </contour>
    <contour>
      <point x="513" y="-66" type="line"/>
      <point x="465" y="-27"/>
      <point x="419" y="-5"/>
      <point x="377" y="-5" type="curve" smooth="yes"/>
      <point x="304" y="-5"/>
      <point x="233" y="-44"/>
      <point x="233" y="-135" type="curve" smooth="yes"/>
      <point x="233" y="-229"/>
      <point x="305" y="-306"/>
      <point x="462" y="-386" type="curve"/>
      <point x="492" y="-338" type="line"/>
      <point x="397" y="-265"/>
      <point x="370" y="-214"/>
      <point x="370" y="-156" type="curve" smooth="yes"/>
      <point x="370" y="-108"/>
      <point x="398" y="-83"/>
      <point x="435" y="-83" type="curve" smooth="yes"/>
      <point x="451" y="-83"/>
      <point x="477" y="-90"/>
      <point x="498" y="-100" type="curve"/>
    </contour>
    <contour>
      <point x="483" y="-88"/>
      <point x="471" y="-132"/>
      <point x="463" y="-186" type="curve"/>
      <point x="584" y="-212" type="line"/>
      <point x="602" y="-99"/>
      <point x="637" y="-72"/>
      <point x="674" y="-72" type="curve" smooth="yes"/>
      <point x="694" y="-73"/>
      <point x="710" y="-79"/>
      <point x="715" y="-85" type="curve" smooth="yes"/>
      <point x="721" y="-93"/>
      <point x="724" y="-117"/>
      <point x="724" y="-128" type="curve" smooth="yes"/>
      <point x="724" y="-209"/>
      <point x="652" y="-261"/>
      <point x="579" y="-318" type="curve"/>
      <point x="698" y="-390" type="line"/>
      <point x="795" y="-314"/>
      <point x="819" y="-247"/>
      <point x="819" y="-187" type="curve" smooth="yes"/>
      <point x="819" y="-101"/>
      <point x="731" y="-2"/>
      <point x="642" y="-2" type="curve" smooth="yes"/>
      <point x="593" y="-2"/>
      <point x="543" y="-21"/>
      <point x="512" y="-59" type="curve" smooth="yes"/>
    </contour>
    <contour>
      <point x="558" y="580" type="move" name="top"/>
    </contour>
    <contour>
      <point x="652" y="-322" type="move" name="bottom"/>
    </contour>
  </outline>
</glyph>
<glyph name="uni0916094D_nadeva" format="1">
  <advance width="1010"/>
  <note>
    dKhNa
  </note>
  <outline>
    <component base="radeva"/>
    <component base="vadeva" xOffset="329"/>
    <component base="nadeva.post2" xOffset="970" yOffset="-15"/>
    <contour>
      <point x="812" y="580" type="move" name="top"/>
    </contour>
    <contour>
      <point x="810" y="0" type="move" name="bottom"/>
    </contour>
  </outline>
</glyph>
<glyph name="uni0916094D_radeva" format="1">
  <advance width="990"/>
  <note>
    dKhRa
  </note>
  <outline>
    <contour>
      <point x="494" y="-12" type="line"/>
      <point x="561" y="-61" type="line"/>
      <point x="779" y="176" type="line"/>
      <point x="759" y="245" type="line"/>
    </contour>
    <component base="radeva"/>
    <component base="vadeva" xOffset="309"/>
    <contour>
      <point x="791" y="580" type="move" name="top"/>
    </contour>
    <contour>
      <point x="790" y="0" type="move" name="bottom"/>
    </contour>
  </outline>
</glyph>
